<?xml version="1.0" encoding="UTF-8" standalone="no"?>
<!-- Created with Inkscape (http://www.inkscape.org/) -->

<svg
   xmlns:dc="http://purl.org/dc/elements/1.1/"
   xmlns:cc="http://creativecommons.org/ns#"
   xmlns:rdf="http://www.w3.org/1999/02/22-rdf-syntax-ns#"
   xmlns:svg="http://www.w3.org/2000/svg"
   xmlns="http://www.w3.org/2000/svg"
   xmlns:xlink="http://www.w3.org/1999/xlink"
   xmlns:sodipodi="http://sodipodi.sourceforge.net/DTD/sodipodi-0.dtd"
   xmlns:inkscape="http://www.inkscape.org/namespaces/inkscape"
   width="42.876823mm"
   height="42.87682mm"
   viewBox="0 0 42.876823 42.87682"
   version="1.1"
   id="svg8"
   inkscape:version="0.92.4 (5da689c313, 2019-01-14)"
   sodipodi:docname="ig.svg">
  <defs
     id="defs2">
    <linearGradient
       gradientTransform="matrix(0.04889155,0,0,0.04889155,380.28671,168.96637)"
       xlink:href="#linearGradient1694"
       id="linearGradient1696"
       x1="-5869.75"
       y1="543.86011"
       x2="-5869.75"
       y2="-46.764301"
       gradientUnits="userSpaceOnUse" />
    <linearGradient
       id="linearGradient1694">
      <stop
         style="stop-color:#feda75;stop-opacity:1;"
         offset="0"
         id="stop1690" />
      <stop
         style="stop-color:#d62976;stop-opacity:1"
         offset="1"
         id="stop1692" />
    </linearGradient>
  </defs>
  <sodipodi:namedview
     id="base"
     pagecolor="#ffffff"
     bordercolor="#666666"
     borderopacity="1.0"
     inkscape:pageopacity="0.0"
     inkscape:pageshadow="2"
     inkscape:zoom="0.35"
     inkscape:cx="-580.40151"
     inkscape:cy="178.16992"
     inkscape:document-units="mm"
     inkscape:current-layer="layer1"
     showgrid="false"
     inkscape:window-width="1920"
     inkscape:window-height="1017"
     inkscape:window-x="-8"
     inkscape:window-y="-8"
     inkscape:window-maximized="1" />
  <metadata
     id="metadata5">
    <rdf:RDF>
      <cc:Work
         rdf:about="">
        <dc:format>image/svg+xml</dc:format>
        <dc:type
           rdf:resource="http://purl.org/dc/dcmitype/StillImage" />
        <dc:title></dc:title>
      </cc:Work>
    </rdf:RDF>
  </metadata>
  <g
     inkscape:label="Layer 1"
     inkscape:groupmode="layer"
     id="layer1"
     transform="translate(-71.543732,-153.09731)">
    <rect
       ry="4.5516787"
       y="153.09731"
       x="71.543732"
       height="42.87682"
       width="42.876823"
       id="rect1662"
       style="display:inline;opacity:1;fill:url(#linearGradient1696);fill-opacity:1;stroke:none;stroke-width:0.01029927;stroke-opacity:1" />
    <path
       inkscape:connector-curvature="0"
       d="m 92.982191,159.66675 c -4.038197,0 -4.54455,0.0171 -6.130483,0.0895 -1.582627,0.0722 -2.663505,0.32356 -3.609298,0.6911 -0.977766,0.37998 -1.80696,0.8884 -2.633599,1.71501 -0.826615,0.82661 -1.335034,1.65588 -1.715014,2.63364 -0.367554,0.94578 -0.618907,2.02665 -0.691139,3.60928 -0.07235,1.58593 -0.08946,2.09229 -0.08946,6.13048 0,4.03814 0.01711,4.5445 0.08946,6.13043 0.07223,1.58262 0.323585,2.6635 0.691139,3.60927 0.37998,0.97777 0.888399,1.80699 1.715014,2.63365 0.826639,0.82661 1.655833,1.33503 2.633599,1.71501 0.945793,0.36753 2.026671,0.61891 3.609298,0.6911 1.585933,0.0724 2.092286,0.0895 6.130483,0.0895 4.038137,0 4.544491,-0.0171 6.130422,-0.0895 1.582627,-0.0722 2.663507,-0.32357 3.609287,-0.6911 0.97776,-0.37998 1.80697,-0.8884 2.63363,-1.71501 0.82662,-0.82666 1.33503,-1.65588 1.71502,-2.63365 0.36753,-0.94577 0.61891,-2.02665 0.69109,-3.60927 0.0724,-1.58593 0.0895,-2.09229 0.0895,-6.13043 0,-4.03819 -0.0171,-4.54455 -0.0895,-6.13048 -0.0722,-1.58263 -0.32356,-2.6635 -0.69109,-3.60928 -0.37999,-0.97776 -0.8884,-1.80703 -1.71502,-2.63364 -0.82666,-0.82661 -1.65587,-1.33503 -2.63363,-1.71501 -0.94578,-0.36754 -2.02666,-0.61891 -3.609287,-0.6911 -1.585931,-0.0724 -2.092285,-0.0895 -6.130422,-0.0895 z m 0,2.67909 c 3.970143,0 4.440434,0.0152 6.008306,0.0867 1.449713,0.0661 2.237013,0.30833 2.760953,0.51196 0.69404,0.26973 1.18936,0.59193 1.70964,1.11221 0.52034,0.52035 0.84255,1.01566 1.11228,1.70971 0.20363,0.52394 0.44585,1.31124 0.51196,2.76095 0.0715,1.56787 0.0867,2.03816 0.0867,6.00836 0,3.97015 -0.0152,4.44044 -0.0867,6.00831 -0.0661,1.44971 -0.30833,2.23701 -0.51196,2.76095 -0.26973,0.69405 -0.59194,1.18936 -1.11228,1.70965 -0.52028,0.52034 -1.0156,0.84255 -1.70964,1.11227 -0.52394,0.20363 -1.31124,0.44585 -2.760953,0.51195 -1.567636,0.0716 -2.037867,0.0867 -6.008306,0.0867 -3.970498,0 -4.440671,-0.0152 -6.008366,-0.0867 -1.449709,-0.0661 -2.237009,-0.30832 -2.760951,-0.51195 -0.694051,-0.26972 -1.189355,-0.59193 -1.709649,-1.11227 -0.520295,-0.52029 -0.842546,-1.0156 -1.112272,-1.70965 -0.203627,-0.52394 -0.445826,-1.31124 -0.511972,-2.76095 -0.07154,-1.56787 -0.08669,-2.03816 -0.08669,-6.00831 0,-3.9702 0.01515,-4.44049 0.08669,-6.00836 0.06615,-1.44971 0.308345,-2.23701 0.511972,-2.76095 0.269726,-0.69405 0.591953,-1.18936 1.112248,-1.70965 0.520318,-0.52034 1.015622,-0.84254 1.709673,-1.11227 0.523942,-0.20363 1.311242,-0.44586 2.760951,-0.51196 1.567872,-0.0715 2.038163,-0.0867 6.008366,-0.0867"
       style="display:inline;fill:#ffffff;fill-opacity:1;fill-rule:nonzero;stroke:none;stroke-width:0.00590224"
       id="path14" />
    <path
       inkscape:connector-curvature="0"
       d="m 92.982191,179.49203 c -2.737342,0 -4.95635,-2.219 -4.95635,-4.95629 0,-2.73734 2.219008,-4.95635 4.95635,-4.95635 2.737283,0 4.95629,2.21901 4.95629,4.95635 0,2.73729 -2.219007,4.95629 -4.95629,4.95629 z m 0,-12.59172 c -4.216976,0 -7.635437,3.41846 -7.635437,7.63543 0,4.21692 3.418461,7.63538 7.635437,7.63538 4.216916,0 7.635379,-3.41846 7.635379,-7.63538 0,-4.21697 -3.418463,-7.63543 -7.635379,-7.63543"
       style="display:inline;fill:#ffffff;fill-opacity:1;fill-rule:nonzero;stroke:none;stroke-width:0.00590224"
       id="path16-2" />
    <path
       inkscape:connector-curvature="0"
       d="m 102.70354,166.59864 c 0,0.98544 -0.79887,1.78425 -1.78431,1.78425 -0.985377,0 -1.784246,-0.79881 -1.784246,-1.78425 0,-0.98543 0.798869,-1.7843 1.784246,-1.7843 0.98544,0 1.78431,0.79887 1.78431,1.7843"
       style="display:inline;fill:#ffffff;fill-opacity:1;fill-rule:nonzero;stroke:none;stroke-width:0.00590224"
       id="path18" />
  </g>
</svg>
