<svg version="1.0" xmlns="http://www.w3.org/2000/svg" width="457px" height="377px" viewBox="0 0 4570 3770" preserveAspectRatio="xMidYMid meet">
    <g id="layer101" fill="#564d64" stroke="none">
        <path d="M3080 3716 l0 -56 109 0 c59 0 122 -5 139 -11 47 -16 82 -75 82 -137 l0 -51 -52 27 c-44 23 -65 27 -128 26 -88 0 -119 -14 -174 -75 -64 -70 -81 -119 -81 -234 0 -121 23 -182 92 -246 56 -51 98 -69 165 -69 69 0 115 14 158 45 l35 26 3 -30 3 -31 110 0 109 0 0 60 0 60 -54 0 -54 0 -5 273 c-3 175 -8 286 -16 311 -17 53 -94 133 -140 146 -20 5 -96 12 -168 16 l-133 7 0 -57z m265 -328 c44 -20 68 -72 73 -157 7 -133 -31 -207 -117 -231 -53 -14 -92 -6 -132 27 -49 42 -63 78 -63 173 0 98 17 139 74 177 37 26 121 31 165 11z" />
        <path d="M3670 3711 l0 -61 76 0 c69 0 78 -2 103 -27 14 -16 33 -47 40 -70 l14 -42 -122 -295 c-66 -162 -121 -300 -121 -306 0 -6 26 -10 63 -10 l63 0 59 153 c33 83 73 190 91 236 l32 83 16 -49 c9 -28 50 -133 90 -234 l74 -184 101 -3 101 -3 0 61 0 60 -62 0 -63 0 -69 173 c-186 460 -216 521 -276 552 -16 8 -70 18 -120 22 l-90 6 0 -62z" />
        <path d="M370 3210 l0 -310 60 0 60 0 0 250 0 250 55 0 55 0 0 60 0 60 -115 0 -115 0 0 -310z" />
        <path d="M660 3210 l0 -310 54 0 c53 0 55 1 58 30 l3 29 43 -29 c107 -72 296 -45 355 50 20 32 22 50 25 228 l4 192 49 0 49 0 0 54 c0 40 -4 55 -16 60 -9 3 -58 6 -109 6 l-94 0 -3 -227 c-3 -251 -7 -268 -69 -293 -43 -18 -129 -8 -169 20 -54 39 -60 66 -60 295 l0 205 -60 0 -60 0 0 -310z" />
        <path d="M1390 3255 l0 -265 -50 0 -50 0 0 -45 0 -45 49 0 49 0 4 -74 c6 -127 53 -166 201 -166 l87 0 0 50 0 50 -60 0 c-80 0 -110 26 -110 95 l0 45 65 0 65 0 0 45 0 45 -65 0 -65 0 0 205 0 205 45 0 46 0 -3 58 -3 57 -102 3 -103 3 0 -266z" />
        <path d="M1750 3210 l0 -310 60 0 60 0 0 250 0 250 55 0 55 0 0 60 0 60 -115 0 -115 0 0 -310z" />
        <path d="M2030 3210 l0 -310 55 0 55 0 0 36 0 35 35 -27 c19 -14 52 -32 72 -40 47 -16 144 -18 198 -3 51 14 110 73 124 124 6 22 11 115 11 208 l0 167 45 0 46 0 -3 58 -3 57 -102 3 -103 3 0 -198 c-1 -230 -7 -267 -51 -307 -29 -26 -37 -28 -95 -24 -75 5 -109 26 -139 84 -18 34 -20 63 -23 242 l-4 202 -59 0 -59 0 0 -310z" />
        <path d="M2740 3210 l0 -310 55 0 55 0 0 250 0 250 55 0 55 0 0 60 0 60 -110 0 -110 0 0 -310z" />
        <path d="M370 2760 l0 -60 55 0 55 0 0 -55 0 -55 60 0 60 0 0 60 0 60 -55 0 -55 0 0 55 0 55 -60 0 -60 0 0 -60z" />
        <path d="M1750 2760 l0 -60 55 0 55 0 0 -55 0 -55 60 0 60 0 0 60 0 60 -55 0 -55 0 0 55 0 55 -60 0 -60 0 0 -60z" />
        <path d="M2740 2760 l0 -60 55 0 55 0 0 -55 0 -55 60 0 60 0 0 60 0 60 -55 0 -55 0 0 55 0 55 -60 0 -60 0 0 -60z" />
        <path d="M4070 2155 l0 -185 205 0 205 0 0 185 0 185 -205 0 -205 0 0 -185z" />
        <path d="M1147 1843 c3 -197 8 -361 12 -365 9 -10 2862 -1480 2865 -1476 8 9 45 483 39 489 -15 13 -2905 1709 -2914 1709 -4 0 -5 -161 -2 -357z" />
        <path d="M2838 2072 c-109 -64 -198 -119 -198 -122 0 -3 352 -129 783 -279 430 -150 786 -277 790 -281 5 -4 -18 -311 -51 -681 -33 -371 -58 -675 -57 -677 2 -2 312 225 337 247 8 7 129 1363 123 1369 -7 7 -1506 542 -1518 542 -7 0 -101 -53 -209 -118z" />
        <path d="M800 1970 c-171 -129 -265 -206 -265 -217 0 -246 17 -1423 21 -1488 l6 -90 657 -83 656 -82 293 142 c160 78 292 144 292 147 0 3 -303 66 -672 140 -370 74 -674 135 -676 137 -4 3 -31 1252 -32 1447 0 81 -3 147 -7 147 -5 0 -127 -90 -273 -200z" />
        <path d="M2495 1723 c-37 -98 -68 -184 -69 -190 0 -7 85 -64 189 -127 160 -97 191 -112 197 -98 12 28 109 455 104 459 -4 4 -292 114 -332 127 -19 6 -27 -8 -89 -171z" />
        <path d="M0 1125 l0 -135 145 0 145 0 0 135 0 135 -145 0 -145 0 0 -135z" />
        <path d="M2145 680 c-44 -132 -66 -213 -60 -218 15 -14 487 -104 495 -95 4 4 19 71 33 148 24 131 25 141 9 153 -19 14 -396 222 -403 222 -2 0 -36 -94 -74 -210z" />
        <path d="M2930 220 l0 -80 85 0 85 0 0 80 0 80 -85 0 -85 0 0 -80z" />
    </g>
    <g id="layer102" fill="#7d6f91" stroke="none">
        <path d="M3080 3716 l0 -56 114 0 c63 0 125 -4 138 -9 42 -16 78 -80 78 -139 l0 -51 -52 27 c-44 23 -65 27 -128 26 -88 0 -119 -14 -174 -75 -64 -70 -81 -119 -81 -234 0 -121 23 -182 92 -246 56 -51 98 -69 165 -69 69 0 115 14 158 45 l35 26 3 -30 3 -31 110 0 109 0 0 60 0 60 -54 0 -54 0 -5 273 c-3 176 -8 286 -17 312 -15 50 -104 139 -147 148 -17 3 -90 9 -162 13 l-131 7 0 -57z m265 -328 c45 -20 68 -72 73 -163 5 -95 -7 -141 -47 -184 -31 -33 -99 -55 -142 -46 -16 4 -43 18 -60 32 -49 42 -63 78 -63 173 0 98 17 139 74 177 37 26 121 31 165 11z" />
        <path d="M3670 3711 l0 -61 76 0 c69 0 78 -2 103 -27 14 -16 33 -47 40 -70 l14 -42 -122 -295 c-66 -162 -121 -300 -121 -306 0 -6 26 -10 63 -10 l62 0 60 153 c33 83 74 190 91 236 l32 83 16 -49 c9 -28 50 -133 90 -234 l74 -184 101 -3 101 -3 0 61 0 60 -63 0 -62 0 -60 148 c-131 326 -204 493 -229 527 -39 50 -73 64 -176 72 l-90 6 0 -62z" />
        <path d="M370 3210 l0 -310 60 0 60 0 0 250 0 250 55 0 55 0 0 60 0 60 -115 0 -115 0 0 -310z" />
        <path d="M660 3210 l0 -310 54 0 c53 0 55 1 58 30 l3 29 43 -29 c111 -74 309 -43 358 57 16 32 19 66 22 226 l3 187 50 0 49 0 0 54 c0 40 -4 55 -16 60 -9 3 -58 6 -110 6 l-94 0 0 -207 c0 -236 -7 -275 -53 -304 -45 -28 -139 -23 -186 10 -55 40 -61 67 -61 296 l0 205 -60 0 -60 0 0 -310z" />
        <path d="M1390 3255 l0 -265 -50 0 -50 0 0 -45 0 -45 49 0 49 0 4 -74 c6 -127 53 -166 201 -166 l87 0 0 50 0 50 -60 0 c-80 0 -110 26 -110 95 l0 45 65 0 65 0 0 45 0 45 -65 0 -65 0 0 205 0 205 45 0 45 0 0 54 c0 65 -1 66 -121 66 l-89 0 0 -265z" />
        <path d="M1750 3210 l0 -310 60 0 60 0 0 250 0 250 55 0 55 0 0 60 0 60 -115 0 -115 0 0 -310z" />
        <path d="M2030 3210 l0 -310 55 0 55 0 0 36 0 35 35 -27 c19 -14 52 -32 72 -40 47 -16 144 -18 198 -3 51 14 110 73 124 124 6 22 11 115 11 208 l0 167 45 0 46 0 -3 58 -3 57 -102 3 -103 3 0 -198 c-1 -230 -7 -267 -51 -307 -29 -26 -37 -28 -95 -24 -72 4 -107 24 -139 79 -18 30 -20 56 -24 242 l-3 207 -59 0 -59 0 0 -310z" />
        <path d="M2740 3210 l0 -310 55 0 55 0 0 250 0 250 55 0 55 0 0 60 0 60 -110 0 -110 0 0 -310z" />
        <path d="M370 2760 l0 -60 55 0 55 0 0 -55 0 -55 60 0 60 0 0 60 0 60 -55 0 -55 0 0 55 0 55 -60 0 -60 0 0 -60z" />
        <path d="M1750 2760 l0 -60 55 0 55 0 0 -55 0 -55 60 0 60 0 0 60 0 60 -55 0 -55 0 0 55 0 55 -60 0 -60 0 0 -60z" />
        <path d="M2740 2760 l0 -60 55 0 55 0 0 -55 0 -55 60 0 60 0 0 60 0 60 -55 0 -55 0 0 55 0 55 -60 0 -60 0 0 -60z" />
        <path d="M4070 2155 l0 -185 205 0 205 0 0 185 0 185 -205 0 -205 0 0 -185z" />
        <path d="M2838 2072 c-109 -64 -198 -119 -198 -122 0 -3 354 -129 786 -280 433 -151 788 -280 791 -286 2 -5 -23 -311 -56 -680 -32 -368 -58 -670 -56 -672 3 -3 340 247 342 256 6 16 122 1357 118 1360 -7 7 -1507 542 -1519 542 -6 0 -100 -53 -208 -118z" />
        <path d="M800 1970 c-166 -126 -265 -207 -265 -218 0 -246 17 -1423 21 -1487 l6 -90 657 -82 656 -82 293 141 c160 78 292 144 292 147 0 3 -303 66 -672 140 -370 74 -674 135 -676 137 -4 3 -31 1252 -32 1447 0 81 -3 147 -7 147 -5 0 -127 -90 -273 -200z" />
    </g>

</svg>
