<?xml version="1.0" encoding="UTF-8" standalone="no"?>
<!-- Page 2 -->

<svg
   xmlns:dc="http://purl.org/dc/elements/1.1/"
   xmlns:cc="http://creativecommons.org/ns#"
   xmlns:rdf="http://www.w3.org/1999/02/22-rdf-syntax-ns#"
   xmlns:svg="http://www.w3.org/2000/svg"
   xmlns="http://www.w3.org/2000/svg"
   xmlns:sodipodi="http://sodipodi.sourceforge.net/DTD/sodipodi-0.dtd"
   xmlns:inkscape="http://www.inkscape.org/namespaces/inkscape"
   x="0"
   y="0"
   width="1025.4"
   height="1003.5815"
   viewBox="0 0 1025.4 1003.5815"
   version="1.1"
   style="display:block"
   id="svg473"
   sodipodi:docname="logo2.svg"
   inkscape:version="0.92.4 (5da689c313, 2019-01-14)">
  <metadata
     id="metadata477">
    <rdf:RDF>
      <cc:Work
         rdf:about="">
        <dc:format>image/svg+xml</dc:format>
        <dc:type
           rdf:resource="http://purl.org/dc/dcmitype/StillImage" />
      </cc:Work>
    </rdf:RDF>
  </metadata>
  <sodipodi:namedview
     pagecolor="#ffffff"
     bordercolor="#666666"
     borderopacity="1"
     objecttolerance="10"
     gridtolerance="10"
     guidetolerance="10"
     inkscape:pageopacity="0"
     inkscape:pageshadow="2"
     inkscape:window-width="1920"
     inkscape:window-height="1017"
     id="namedview475"
     showgrid="false"
     inkscape:zoom="0.19312602"
     inkscape:cx="456.1"
     inkscape:cy="499.29079"
     inkscape:window-x="-8"
     inkscape:window-y="-8"
     inkscape:window-maximized="1"
     inkscape:current-layer="svg473" />
  <defs
     id="defs7">
    <clipPath
       id="c_2">
      <path
         d="M 0,0 H 1222 V 1222 H 0 Z"
         id="path2"
         inkscape:connector-curvature="0" />
    </clipPath>
    <style
       type="text/css"
       id="style5"><![CDATA[

.g0_2{
fill: #1F191A;
}
.g1_2{
fill: none;
stroke: #F9F5E6;
stroke-width: 4.583;
stroke-linecap: butt;
stroke-linejoin: miter;
}
.g2_2{
fill: none;
stroke: #FFFFFF;
stroke-width: 3.055;
stroke-linecap: butt;
stroke-linejoin: miter;
}
.g3_2{
fill: none;
stroke: #F9F5E6;
stroke-width: 1.527;
stroke-linecap: butt;
stroke-linejoin: miter;
}
.g4_2{
fill: #FFFFFF;
}
.g5_2{
fill: none;
stroke: #38312D;
stroke-width: 0.305;
stroke-linecap: round;
stroke-linejoin: round;
}
.g6_2{
fill: none;
stroke: #38312D;
stroke-width: 1.527;
stroke-linecap: butt;
stroke-linejoin: miter;
}
.g7_2{
fill: #F9F5E6;
}

]]></style>
  </defs>
  <g
     clip-path="url(#c_2)"
     id="g471"
     transform="translate(-154.9,-106.70921)">
    <path
       d="m 1180.3,608.5 c 0,54.7 -19.4,105.7 -35.4,155.1 -16.6,51.1 -31.5,103.7 -62.5,146.3 -31.3,43 -76.9,73.2 -119.9,104.5 -42.6,31 -85.2,65.2 -136.4,81.9 -49.4,16 -103.8,13.9 -158.5,13.9 -54.7,0 -109.1,2.1 -158.5,-14 -51.1,-16.6 -93.8,-50.8 -136.4,-81.8 -43,-31.3 -88.6,-61.5 -119.9,-104.5 -31,-42.6 -45.8,-95.2 -62.4,-146.3 -16.1,-49.4 -35.5,-100.4 -35.5,-155.1 0,-54.7 19.4,-105.7 35.5,-155.1 16.6,-51.1 31.4,-103.7 62.4,-146.3 31.3,-43 76.9,-73.2 119.9,-104.5 42.6,-31 85.3,-65.2 136.4,-81.9 49.4,-16 103.8,-13.9 158.5,-13.9 54.7,0 109.1,-2.1 158.5,13.9 51.2,16.7 93.8,50.9 136.4,81.9 43,31.3 88.6,61.5 119.9,104.5 31,42.6 45.9,95.2 62.5,146.3 16,49.4 35.4,100.4 35.4,155.1 z"
       class="g0_2"
       id="path11"
       inkscape:connector-curvature="0"
       style="fill:#1f191a" />
    <path
       d="m 1150.3,608.5 c 0,266.6 -216.1,482.7 -482.7,482.7 C 401.1,1091.2 185,875.1 185,608.5 185,341.9 401.1,125.8 667.6,125.8 c 266.6,0 482.7,216.1 482.7,482.7 z"
       class="g1_2"
       id="path13"
       inkscape:connector-curvature="0"
       style="fill:none;stroke:#f9f5e6;stroke-width:4.58300018;stroke-linecap:butt;stroke-linejoin:miter" />
    <path
       d="m 1128.8,608.5 c 0,254.7 -206.5,461.1 -461.2,461.1 -254.7,0 -461.1,-206.4 -461.1,-461.1 0,-254.7 206.4,-461.1 461.1,-461.1 254.7,0 461.2,206.4 461.2,461.1 z"
       class="g2_2"
       id="path15"
       inkscape:connector-curvature="0"
       style="fill:none;stroke:#ffffff;stroke-width:3.05500007;stroke-linecap:butt;stroke-linejoin:miter" />
    <path
       d="m 909.8,609.2 c 0,133.7 -108.4,242.2 -242.2,242.2 -133.7,0 -242.2,-108.5 -242.2,-242.2 0,-133.8 108.5,-242.2 242.2,-242.2 133.8,0 242.2,108.4 242.2,242.2 z m 15.5,0 c 0,142.3 -115.4,257.7 -257.7,257.7 -142.3,0 -257.7,-115.4 -257.7,-257.7 0,-142.4 115.4,-257.7 257.7,-257.7 142.3,0 257.7,115.3 257.7,257.7 z"
       class="g3_2"
       id="path17"
       inkscape:connector-curvature="0"
       style="fill:none;stroke:#f9f5e6;stroke-width:1.52699995;stroke-linecap:butt;stroke-linejoin:miter" />
    <path
       d="M 747.7,849.4 C 750,847.8 835,791.8 846.4,770 l 5,1.4 c 0,0 -77.8,70.8 -99.4,83.5 4.4,-5.9 -4.3,-5.5 -4.3,-5.5 z"
       class="g0_2"
       id="path19"
       inkscape:connector-curvature="0"
       style="fill:#1f191a" />
    <path
       d="m 865.8,518 c 5.9,19.6 -17.2,64.4 37.4,90.2 -5.5,-14.5 24.1,-56.4 -37.4,-90.2 z"
       class="g4_2"
       id="path21"
       inkscape:connector-curvature="0"
       style="fill:#ffffff" />
    <path
       d="m 906.8,612 -4.4,-2.1 c -41.5,-19.5 -39.5,-49.9 -38,-72.1 0.5,-7.7 1,-14.4 -0.5,-19.2 l -1.3,-4.6 4.1,2.3 c 47.1,25.8 42.2,56.2 39,76.4 -1,6.2 -1.9,11.6 -0.6,14.8 z m -38.3,-90.1 c 0.6,4.6 0.2,10.1 -0.2,16.1 -1.4,21.6 -3.2,48.3 32.3,66.7 -0.2,-3.5 0.4,-7.7 1.2,-12.7 3,-18.4 7.4,-46.1 -33.3,-70.1 z"
       class="g0_2"
       id="path23"
       inkscape:connector-curvature="0"
       style="fill:#1f191a" />
    <path
       d="m 850.7,555.6 c 11.2,17.1 60.2,28.4 44.7,86.7 -7.5,-13.5 -58.6,-17.9 -44.7,-86.7 z"
       class="g4_2"
       id="path25"
       inkscape:connector-curvature="0"
       style="fill:#ffffff" />
    <path
       d="m 936.3,609.5 c -12.4,16.2 -62.2,23.8 -51.2,83.1 8.5,-12.9 59.9,-13.4 51.2,-83.1 z"
       class="g4_2"
       id="path27"
       inkscape:connector-curvature="0"
       style="fill:#ffffff" />
    <path
       d="m 935.2,666.6 c -15.1,13.7 -65.5,12.1 -65.3,72.5 10.6,-11.2 61.2,-2.4 65.3,-72.5 z"
       class="g4_2"
       id="path29"
       inkscape:connector-curvature="0"
       style="fill:#ffffff" />
    <path
       d="m 925,727.3 c -18.5,8.6 -66.2,-7.6 -83.7,50.2 13.5,-7.6 59.3,15.5 83.7,-50.2 z"
       class="g4_2"
       id="path31"
       inkscape:connector-curvature="0"
       style="fill:#ffffff" />
    <path
       d="m 899,635.2 c -0.4,2.5 -1,5 -1.7,7.6 l -1.2,4.7 -2.4,-4.2 c -1.7,-3 -6.3,-5.8 -11.7,-9.1 -17.2,-10.3 -43,-25.9 -33.7,-76.6 0.1,-0.8 0.3,-1.6 0.4,-2.4 l 1,-4.7 2.6,4 c 2.7,4.2 8.1,8.2 14.3,12.7 16.7,12.3 39.6,29.2 32.4,68 m -4.5,2.8 c 8.7,-38.8 -12.9,-54.9 -30.2,-67.6 -4.9,-3.6 -9.3,-6.8 -12.5,-10.3 -7.9,46.6 16.2,61.1 32.2,70.7 4.3,2.6 7.9,4.8 10.5,7.2 z"
       class="g0_2"
       id="path33"
       inkscape:connector-curvature="0"
       style="fill:#1f191a" />
    <path
       d="m 937.9,640 v 0 c -5.2,28.7 -25.4,38.8 -38.7,45.5 -5.7,2.9 -10.5,5.3 -12.4,8.2 l -2.7,4 -0.9,-4.7 c -1.9,-10.4 -2.1,-19.9 -0.6,-28.3 4.5,-24.5 22.5,-35.7 36.9,-44.8 6.6,-4 12.2,-7.6 15.3,-11.6 l 2.9,-3.8 0.6,4.8 c 1.4,11.4 1.3,21.7 -0.4,30.7 m -51.5,48.4 c 2.7,-2.2 6.5,-4.1 11,-6.4 13.4,-6.7 31.8,-15.9 36.7,-42.7 1.4,-7.5 1.6,-16 0.7,-25.3 -3.4,3.2 -8.1,6 -13.2,9.3 -13.8,8.6 -30.9,19.3 -35.1,42.1 -1.3,6.9 -1.3,14.6 -0.1,23 z"
       class="g0_2"
       id="path35"
       inkscape:connector-curvature="0"
       style="fill:#1f191a" />
    <path
       d="m 935.4,681.8 v 0 c -7.4,40.3 -33.3,47.9 -50.5,52.9 -6,1.8 -11.3,3.3 -13.6,5.8 l -3.4,3.5 v -4.9 c 0,-5.9 0.5,-11.4 1.4,-16.5 5.9,-32.3 30,-41.8 47.5,-48.8 7.2,-2.8 13.4,-5.3 17.1,-8.6 l 3.6,-3.2 -0.3,4.7 c -0.3,5.4 -0.9,10.4 -1.8,15.1 m -63.5,53.4 c 3.1,-1.7 7.1,-2.9 11.9,-4.3 17.2,-5 40.8,-11.9 47.8,-49.8 0.6,-3.2 1,-6.7 1.4,-10.4 -4,2.5 -9.1,4.5 -14.7,6.8 -17.7,7 -39.6,15.7 -45.2,45.8 -0.6,3.7 -1.1,7.7 -1.2,11.9 z"
       class="g0_2"
       id="path37"
       inkscape:connector-curvature="0"
       style="fill:#1f191a" />
    <path
       d="m 928.5,723.5 -1.7,4.5 c -18.6,50.3 -49.4,49.9 -69.8,49.7 -6.3,-0.1 -11.7,-0.2 -14.7,1.5 l -4.3,2.4 1.4,-4.7 c 13.3,-43.9 43.7,-46.3 65.9,-48.1 7.7,-0.6 14.3,-1.2 18.8,-3.3 z m -84.1,50.9 c 3.4,-0.8 7.7,-0.7 12.6,-0.7 18.8,0.3 46.8,0.6 64.6,-43.2 -4.5,1.3 -9.9,1.7 -16,2.2 -21.5,1.7 -48.2,3.9 -61.2,41.7 z"
       class="g0_2"
       id="path39"
       inkscape:connector-curvature="0"
       style="fill:#1f191a" />
    <path
       d="m 868.3,599.5 c 5.4,19.7 48.6,45.6 15.8,96.3 -2.9,-15.2 -50.2,-35.1 -15.8,-96.3 z"
       class="g4_2"
       id="path41"
       inkscape:connector-curvature="0"
       style="fill:#ffffff" />
    <path
       d="m 897.3,669.5 c -1.6,8.8 -5.5,18 -11.5,27.4 l -2.7,4.1 -0.9,-4.8 c -0.7,-3.4 -4.2,-7.5 -8.4,-12.2 -9.5,-11 -24,-27.6 -18.9,-55.1 1.7,-9.4 5.7,-19.6 11.7,-30.3 l 2.3,-4.2 1.3,4.6 c 1.3,4.9 5.2,10.3 9.7,16.5 9.7,13.6 21.8,30.4 17.4,54 m -12.8,21.9 c 4.6,-7.7 7.6,-15.3 9,-22.6 4,-22 -7.5,-38.1 -16.8,-51 -3.5,-4.9 -6.7,-9.4 -8.7,-13.6 -4.7,9 -7.8,17.5 -9.2,25.4 -4.8,25.6 8.4,40.7 18,51.8 3.2,3.8 6.1,7 7.7,10 z"
       class="g0_2"
       id="path43"
       inkscape:connector-curvature="0"
       style="fill:#1f191a" />
    <path
       d="m 870.1,644.5 c 1.7,20.3 39.5,53.6 -1.8,97.6 -0.2,-15.5 -43.1,-43.7 1.8,-97.6 z"
       class="g4_2"
       id="path45"
       inkscape:connector-curvature="0"
       style="fill:#ffffff" />
    <path
       d="m 888.7,709.2 c -2.2,11.7 -8.4,22.9 -19,34.2 l -3.3,3.6 -0.1,-4.9 c 0,-3.4 -2.8,-8.1 -6,-13.6 -6.5,-11 -15.5,-26.2 -11.7,-46.7 2.2,-12.4 9,-25.3 20,-38.5 l 3.1,-3.7 0.4,4.7 c 0.4,5 3.2,11.1 6.5,18 6,12.7 13.4,28.5 10.1,46.9 m -19.2,28.6 c 8.4,-9.7 13.5,-19.3 15.3,-29.3 3.2,-17.2 -4,-32.3 -9.7,-44.5 -2.6,-5.5 -4.9,-10.4 -6.1,-15 -9.1,11.6 -14.6,22.8 -16.6,33.5 -3.5,19 4.7,32.9 11.3,44 2.5,4.3 4.7,8 5.8,11.3 z"
       class="g0_2"
       id="path47"
       inkscape:connector-curvature="0"
       style="fill:#1f191a" />
    <path
       d="m 869.2,687.1 c -4.3,20 22.1,62.8 -30.3,92.8 4.4,-14.9 -28.4,-54.3 30.3,-92.8 z"
       class="g4_2"
       id="path49"
       inkscape:connector-curvature="0"
       style="fill:#ffffff" />
    <path
       d="m 873,739.6 c -3.1,17.3 -14,31 -33.1,42 l -4.2,2.4 1.3,-4.7 c 0.1,-0.2 0.2,-0.5 0.2,-0.7 0.6,-3.3 -0.6,-8.3 -1.9,-14 -2.3,-9.2 -5.1,-20.6 -2.7,-33.4 3.2,-17.2 14.8,-32.2 35.5,-45.8 l 4,-2.6 -1.1,5.2 c -0.9,4.8 0,11.2 1.1,18.6 1.4,10 3.1,21.3 0.9,33 m -31.7,36.6 c 16,-10 25.1,-22.2 27.9,-37.3 2,-11.1 0.4,-22 -1,-31.7 -0.9,-6 -1.6,-11.4 -1.5,-16.1 -17.5,12.3 -27.5,25.7 -30.2,40.8 -2.2,11.9 0.4,22.9 2.6,31.8 1.1,4.7 2.1,8.9 2.2,12.5 z"
       class="g0_2"
       id="path51"
       inkscape:connector-curvature="0"
       style="fill:#1f191a" />
    <path
       d="m 919.5,552.1 c -6.9,19.3 -52,41.6 -23.4,94.8 4.1,-14.9 52.9,-31.1 23.4,-94.8 z"
       class="g4_2"
       id="path53"
       inkscape:connector-curvature="0"
       style="fill:#ffffff" />
    <path
       d="m 930,599.3 v 0 c -3.3,17.5 -14.5,28.5 -22.7,36.6 -4.5,4.4 -8.4,8.2 -9.3,11.5 l -1.3,4.7 -2.3,-4.3 c -8.4,-15.6 -11.3,-29.7 -8.8,-43.2 2.9,-15.9 13,-27.8 21.1,-37.4 4.9,-5.9 9.2,-11 10.9,-15.7 l 1.7,-4.5 2,4.3 c 8.4,18.2 11.2,33.9 8.7,48 m -34,43.2 c 2,-3 5,-5.9 8.5,-9.4 8.3,-8.1 18.6,-18.3 21.6,-34.5 2.2,-12.3 0.1,-26 -6.7,-41.8 -2.3,4.1 -5.8,8.3 -9.8,12.9 -8.1,9.7 -17.5,20.7 -20.2,35.6 -2.1,11.6 0.1,23.8 6.6,37.2 z"
       class="g0_2"
       id="path55"
       inkscape:connector-curvature="0"
       style="fill:#1f191a" />
    <path
       d="m 836.8,762.7 c 4.2,8.3 31.2,-17 34.9,-42.7 0.4,17.8 -3.9,46.4 -30.4,57.5 -2.3,-5 -4.5,-14.8 -4.5,-14.8 z"
       class="g0_2"
       id="path57"
       inkscape:connector-curvature="0"
       style="fill:#1f191a" />
    <path
       d="m 869.3,704 c 0,0 0.1,0.4 0.4,1.1 1.3,3.2 5.8,12.3 10.2,5.9 5.1,-7.8 1.1,-38.6 1.1,-38.6 0,0 12.4,22.3 1.2,50.1 -11.2,27.7 -10.3,14.9 -10.3,14.9 z"
       class="g0_2"
       id="path59"
       inkscape:connector-curvature="0"
       style="fill:#1f191a" />
    <path
       d="m 875.7,660.8 c 0,0 12.9,17.4 14.7,10.3 1.9,-7.2 3.5,-28.7 -3.8,-39.9 12.9,22.1 10.9,32.2 2.1,56 -5.1,-8.7 -13,-26.4 -13,-26.4 z"
       class="g0_2"
       id="path61"
       inkscape:connector-curvature="0"
       style="fill:#1f191a" />
    <path
       d="m 873.4,609.7 c 7.3,5.1 14,-21.4 1.4,-33.7 14.5,15.1 16.4,18.1 16.4,18.1 0,0 -6.6,16.4 -0.8,34.6 -5.6,-2.7 -17,-19 -17,-19 z"
       class="g0_2"
       id="path63"
       inkscape:connector-curvature="0"
       style="fill:#1f191a" />
    <path
       d="m 885.2,531.4 c 0,0 18.6,29.4 11.8,39.3 -6.8,10 -13.5,12.5 -19.1,7.9 8.5,12.8 12.7,14.4 12.7,14.4 0,0 10.9,-16.6 15.6,-22.3 -1.9,-8.9 -6.9,-30.9 -21,-39.3 z"
       class="g0_2"
       id="path65"
       inkscape:connector-curvature="0"
       style="fill:#1f191a" />
    <path
       d="m 863.8,759 c -6.7,7.6 8.4,14 21.2,8.1 12.8,-5.8 31,-18.8 31,-18.8 0,0 -12.7,21.6 -36.9,25.9 -24.1,4.3 -32.3,0.7 -32.3,0.7 z"
       class="g0_2"
       id="path67"
       inkscape:connector-curvature="0"
       style="fill:#1f191a" />
    <path
       d="m 887.8,708.4 c -6.2,15.4 28.4,10.8 42.8,-15.5 -11.3,23 -19.7,30.8 -38,37.3 -18.9,6.2 -20.9,6.5 -20.9,6.5 z"
       class="g0_2"
       id="path69"
       inkscape:connector-curvature="0"
       style="fill:#1f191a" />
    <path
       d="m 896.2,661.4 c -0.9,16 24.8,12.3 39.6,-20.3 -13,25.9 -11.3,27 -30.3,37.2 -15.7,10.1 -18,8.7 -18,8.7 z"
       class="g0_2"
       id="path71"
       inkscape:connector-curvature="0"
       style="fill:#1f191a" />
    <path
       d="m 888.6,628.4 c 6.7,11 38,-23.8 38,-56.4 2.3,32.2 5.8,30.2 -18.2,60 -10.9,11.8 -13,13.6 -13,13.6 z"
       class="g0_2"
       id="path73"
       inkscape:connector-curvature="0"
       style="fill:#1f191a" />
    <path
       d="m 843.5,756.9 c 0,0 17.7,-11.4 24.1,-33.1 -4.4,27 -24.1,33.1 -24.1,33.1 z"
       class="g0_2"
       id="path75"
       inkscape:connector-curvature="0"
       style="fill:#1f191a" />
    <path
       d="m 906.9,666 c 0,0 18.2,-10.5 25.6,-31.9 -5.7,26.8 -25.6,31.9 -25.6,31.9 z"
       class="g0_2"
       id="path77"
       inkscape:connector-curvature="0"
       style="fill:#1f191a" />
    <path
       d="m 895.8,622.2 c 0,0 17.3,-12 22.7,-34 -3.3,27.2 -22.7,34 -22.7,34 z"
       class="g0_2"
       id="path79"
       inkscape:connector-curvature="0"
       style="fill:#1f191a" />
    <path
       d="m 891.3,575.2 c 0,0 3.6,-20.7 -8.3,-40 17.1,21.4 8.3,40 8.3,40 z"
       class="g0_2"
       id="path81"
       inkscape:connector-curvature="0"
       style="fill:#1f191a" />
    <path
       d="m 885.9,669.4 c 0,0 5.8,-20.2 -3.9,-40.7 14.6,23.2 3.9,40.7 3.9,40.7 z"
       class="g0_2"
       id="path83"
       inkscape:connector-curvature="0"
       style="fill:#1f191a" />
    <path
       d="m 869.9,765.1 c 0,0 21,-2 36.4,-18.5 -16.2,22.1 -36.4,18.5 -36.4,18.5 z"
       class="g0_2"
       id="path85"
       inkscape:connector-curvature="0"
       style="fill:#1f191a" />
    <path
       d="m 892.9,712 c 0,0 18.2,-1.7 31.5,-16 -14,19.1 -31.5,16 -31.5,16 z"
       class="g0_2"
       id="path87"
       inkscape:connector-curvature="0"
       style="fill:#1f191a" />
    <path
       d="m 847.1,745.8 c 0,0 9.6,-5.1 13.6,-17.3 -1.4,15.9 -13.6,17.3 -13.6,17.3 z"
       class="g0_2"
       id="path89"
       inkscape:connector-curvature="0"
       style="fill:#1f191a" />
    <path
       d="m 910,658.2 c 0,0 9.5,-5.1 13.6,-17.3 -1.4,15.9 -13.6,17.3 -13.6,17.3 z"
       class="g0_2"
       id="path91"
       inkscape:connector-curvature="0"
       style="fill:#1f191a" />
    <path
       d="m 897.8,707.2 c 0,0 10.8,0.4 20.4,-8.2 -9.2,13.1 -20.4,8.2 -20.4,8.2 z"
       class="g0_2"
       id="path93"
       inkscape:connector-curvature="0"
       style="fill:#1f191a" />
    <path
       d="m 876.9,758.4 c 0,0 10.8,0.3 20.4,-8.3 -9.1,13.2 -20.4,8.3 -20.4,8.3 z"
       class="g0_2"
       id="path95"
       inkscape:connector-curvature="0"
       style="fill:#1f191a" />
    <path
       d="m 898.7,611.4 c 0,0 9.5,-5.1 13.6,-17.2 -1.4,15.9 -13.6,17.2 -13.6,17.2 z"
       class="g0_2"
       id="path97"
       inkscape:connector-curvature="0"
       style="fill:#1f191a" />
    <path
       d="m 875.1,605.8 c 0,0 5,-9.6 1.5,-21.9 7.8,13.9 -1.5,21.9 -1.5,21.9 z"
       class="g0_2"
       id="path99"
       inkscape:connector-curvature="0"
       style="fill:#1f191a" />
    <path
       d="m 875.3,708.3 c 0,0 5.1,-9.4 1.8,-21.9 7.6,14.1 -1.8,21.9 -1.8,21.9 z"
       class="g0_2"
       id="path101"
       inkscape:connector-curvature="0"
       style="fill:#1f191a" />
    <path
       d="m 1019.6,667.9 c -14,21.1 -74.8,34.5 -56.3,106.8 9.4,-16.6 72.7,-21.6 56.3,-106.8 z"
       class="g4_2"
       id="path103"
       inkscape:connector-curvature="0"
       style="fill:#ffffff" />
    <path
       d="m 962.5,781.2 -1.5,-5.9 c -14.1,-54.9 16.4,-77 38.7,-93.1 7.7,-5.6 14.4,-10.4 17.8,-15.6 l 3.3,-4.9 1.1,5.8 c 12.6,65.1 -20.2,84.5 -41.9,97.3 -6.7,4 -12.5,7.4 -14.6,11.1 z m 55.6,-107.6 c -4,4.2 -9.5,8.1 -15.6,12.5 -21.6,15.7 -48.4,35.1 -37.9,83.3 3.1,-2.9 7.7,-5.6 13,-8.7 19.9,-11.8 49.8,-29.5 40.5,-87.1 z"
       class="g0_2"
       id="path105"
       inkscape:connector-curvature="0"
       style="fill:#1f191a" />
    <path
       d="m 971.9,683.2 c -7.5,24.1 20.6,79.8 -47.2,111.1 6.9,-17.8 -29.2,-70 47.2,-111.1 z"
       class="g4_2"
       id="path107"
       inkscape:connector-curvature="0"
       style="fill:#ffffff" />
    <path
       d="m 988.2,807.3 c -25.3,1 -71.7,-40.5 -119.5,16.9 19,-2.1 60.1,46.3 119.5,-16.9 z"
       class="g4_2"
       id="path109"
       inkscape:connector-curvature="0"
       style="fill:#ffffff" />
    <path
       d="m 933,851.4 c -25,-3.7 -63.3,-52.8 -120.6,-5 19.1,1.3 50.7,56.4 120.6,5 z"
       class="g4_2"
       id="path111"
       inkscape:connector-curvature="0"
       style="fill:#ffffff" />
    <path
       d="m 867.2,889.5 c -22.9,-10.8 -45.1,-68.9 -113.9,-39.9 17.8,6.8 32,68.7 113.9,39.9 z"
       class="g4_2"
       id="path113"
       inkscape:connector-curvature="0"
       style="fill:#ffffff" />
    <path
       d="m 934.3,792.1 c -2.7,1.5 -5.6,3 -8.6,4.4 l -5.5,2.5 2.2,-5.6 c 1.5,-3.9 0.5,-10.6 -0.6,-18.3 -3.7,-24.5 -9.3,-61.4 46.3,-92.6 0.8,-0.5 1.7,-0.9 2.6,-1.4 l 5.2,-2.8 -1.7,5.6 c -1.8,5.9 -1.4,14.2 -0.8,23.7 1.5,25.6 3.5,60.6 -39.1,84.5 M 928,790 c 43.9,-22.4 42.1,-55.6 40.5,-82.1 -0.4,-7.5 -0.8,-14.3 0,-20 -50.6,29.3 -45.4,63.6 -41.9,86.4 0.9,6.1 1.7,11.3 1.4,15.7 z"
       class="g0_2"
       id="path115"
       inkscape:connector-curvature="0"
       style="fill:#1f191a" />
    <path
       d="m 960.5,832.9 v 0 c -31.5,17.6 -57.1,6.5 -74,-0.9 -7.2,-3.2 -13.3,-5.8 -17.5,-5.4 l -6,0.7 3.8,-4.6 c 8.4,-10.1 17.3,-17.8 26.5,-22.9 26.8,-15.1 51.7,-6.9 71.7,-0.2 9.1,2.9 16.9,5.5 23.1,5.3 l 5.9,-0.2 -4,4.3 c -9.8,10.4 -19.7,18.4 -29.5,23.9 m -86.8,-10.8 c 4.3,0.9 9.1,3 14.7,5.4 17,7.5 40.3,17.6 69.7,1.2 8.2,-4.6 16.4,-11.1 24.7,-19.3 -5.8,-0.8 -12.2,-2.9 -19.3,-5.3 -19.1,-6.2 -42.9,-14.1 -67.8,-0.1 -7.6,4.2 -15,10.3 -22,18.1 z"
       class="g0_2"
       id="path117"
       inkscape:connector-curvature="0"
       style="fill:#1f191a" />
    <path
       d="m 918.7,863.6 v 0 c -44.2,24.7 -71.9,6 -90.2,-6.4 -6.5,-4.3 -12.1,-8.1 -16.3,-8.4 l -6,-0.4 4.6,-3.9 c 5.6,-4.6 11.3,-8.6 16.8,-11.7 35.4,-19.8 63.5,-4.5 84,6.8 8.4,4.5 15.6,8.5 21.7,9.4 l 5.9,0.8 -4.8,3.5 c -5.3,3.9 -10.6,7.4 -15.7,10.3 m -101,-18.4 c 4,1.6 8.4,4.6 13.5,8 18.4,12.4 43.5,29.4 85.1,6.1 3.6,-2 7.3,-4.3 10.9,-6.8 -5.4,-1.8 -11.4,-5.1 -18,-8.7 -20.5,-11.3 -46.1,-25.3 -79.2,-6.8 -4.1,2.3 -8.2,5.1 -12.3,8.2 z"
       class="g0_2"
       id="path119"
       inkscape:connector-curvature="0"
       style="fill:#1f191a" />
    <path
       d="m 873.5,889.8 -5.5,2 c -62.6,22 -86.6,-7.6 -102.5,-27.2 -4.9,-6 -9.1,-11.3 -13.1,-12.8 l -5.6,-2.1 5.6,-2.4 c 52.2,-22 78.5,5 97.8,24.6 6.6,6.9 12.4,12.8 18,15.4 z M 758.7,850 c 3.4,2.7 6.7,6.8 10.6,11.5 14.6,18.1 36.4,45 92.1,27.4 -4.8,-3.4 -9.4,-8.2 -14.7,-13.6 -18.7,-19.1 -41.8,-42.8 -88,-25.3 z"
       class="g0_2"
       id="path121"
       inkscape:connector-curvature="0"
       style="fill:#1f191a" />
    <path
       d="m 944,734.7 c -14.5,20.6 -5,82.2 -79.2,91.1 12.1,-14.8 -6.2,-75.6 79.2,-91.1 z"
       class="g4_2"
       id="path123"
       inkscape:connector-curvature="0"
       style="fill:#ffffff" />
    <path
       d="m 900.3,817.6 c -9.6,5.4 -21.5,8.9 -35.2,10.6 l -6,0.7 3.9,-4.7 c 2.6,-3.2 3.7,-9.9 5,-17.6 2.9,-17.8 7.3,-44.6 37.5,-61.5 10.3,-5.8 23.1,-10.1 38,-12.8 l 5.8,-1.1 -3.3,4.8 c -3.6,5.1 -5.7,13.1 -8.1,22.3 -5.2,20 -11.7,44.7 -37.6,59.3 m -31,5.1 c 11.1,-1.8 20.7,-4.9 28.6,-9.4 24.1,-13.5 30.3,-37.2 35.3,-56.2 1.9,-7.3 3.6,-13.8 6.1,-19 -12.2,2.6 -22.8,6.4 -31.5,11.2 -28.1,15.8 -32.1,40.2 -35,58.1 -1,6.1 -1.9,11.3 -3.5,15.3 z"
       class="g0_2"
       id="path125"
       inkscape:connector-curvature="0"
       style="fill:#1f191a" />
    <path
       d="m 902.6,771.9 c -18,17.7 -19.8,80 -94.3,75.3 14.6,-12.4 7.6,-75.4 94.3,-75.3 z"
       class="g4_2"
       id="path127"
       inkscape:connector-curvature="0"
       style="fill:#ffffff" />
    <path
       d="m 855.7,840.6 c -12.9,7.3 -28.5,10.2 -47.5,9 l -6.1,-0.4 4.6,-3.8 c 3.3,-2.8 5.5,-9.1 8.2,-16.5 5.3,-14.9 12.7,-35.4 35.2,-48.1 13.5,-7.5 31.2,-11.3 52.5,-11.3 h 5.9 l -4.2,4.1 c -4.4,4.4 -7.9,11.9 -12,20.5 -7.3,15.7 -16.4,35.3 -36.6,46.5 m -42.4,4.4 c 15.9,0.4 29,-2.4 40.1,-8.6 18.7,-10.5 27.5,-29.3 34.6,-44.4 3.2,-6.8 6,-12.9 9.4,-17.6 -18.2,0.6 -33.2,4.1 -44.9,10.7 -20.9,11.7 -27.7,30.4 -33.1,45.5 -2,5.8 -3.8,10.7 -6.1,14.4 z"
       class="g0_2"
       id="path129"
       inkscape:connector-curvature="0"
       style="fill:#1f191a" />
    <path
       d="m 861.3,804.6 c -22.4,11.7 -42.2,70.7 -112.1,44.5 17.5,-7.5 29.2,-69.9 112.1,-44.5 z"
       class="g4_2"
       id="path131"
       inkscape:connector-curvature="0"
       style="fill:#ffffff" />
    <path
       d="m 814.4,849.8 c -19,10.6 -40.6,11.2 -66.1,1.6 l -5.6,-2.1 5.5,-2.4 c 0.3,-0.1 0.5,-0.2 0.8,-0.4 3.7,-2 7.4,-7.1 11.8,-12.9 7,-9.4 15.7,-21.1 29.7,-28.9 18.9,-10.6 42.3,-11.4 71.5,-2.4 l 5.7,1.8 -5.8,3 c -5.3,2.9 -10.7,8.9 -16.9,15.8 -8.3,9.2 -17.8,19.7 -30.6,26.9 m -59.9,-1.3 c 22.1,7.3 41,6.4 57.5,-2.9 12.2,-6.8 21.3,-17 29.4,-26 5.1,-5.6 9.6,-10.6 14.2,-14.1 -25.6,-7 -46.2,-5.9 -62.8,3.4 -13.1,7.3 -21.4,18.6 -28.2,27.6 -3.5,4.8 -6.7,9.1 -10.1,12 z"
       class="g0_2"
       id="path133"
       inkscape:connector-curvature="0"
       style="fill:#1f191a" />
    <path
       d="m 1029.5,746 c -23.8,8.6 -80.7,-16.7 -108.6,52.5 17.4,-7.8 71.3,25.8 108.6,-52.5 z"
       class="g4_2"
       id="path135"
       inkscape:connector-curvature="0"
       style="fill:#ffffff" />
    <path
       d="m 992.9,793.1 v 0 c -19.2,10.8 -38.6,8.8 -52.7,7.4 -7.8,-0.8 -14.5,-1.5 -18.3,0.2 l -5.5,2.5 2.2,-5.6 c 8.2,-20.3 19.4,-34.2 34.2,-42.5 17.5,-9.8 36.8,-9.6 52.3,-9.5 9.5,0.1 17.7,0.2 23.6,-1.9 l 5.5,-2 -2.5,5.3 c -10.7,22.4 -23.4,37.5 -38.8,46.1 M 925,795 c 4.3,-0.5 9.6,0 15.7,0.7 14.2,1.4 32,3.2 49.8,-6.8 13.5,-7.5 24.8,-20.4 34.5,-39.3 -5.7,1 -12.5,0.9 -20,0.9 -15.7,-0.2 -33.5,-0.3 -49.9,8.8 -12.6,7.2 -22.5,18.8 -30.1,35.7 z"
       class="g0_2"
       id="path137"
       inkscape:connector-curvature="0"
       style="fill:#1f191a" />
    <path
       d="m 763.8,833.6 c -4.6,10.5 40.8,16.3 68.3,-0.5 -16.7,14.4 -47.4,32.9 -78.8,16.5 2.9,-6.3 10.5,-16 10.5,-16 z"
       class="g0_2"
       id="path139"
       inkscape:connector-curvature="0"
       style="fill:#1f191a" />
    <path
       d="m 845.3,818.1 c 0,0 -0.3,0.5 -0.7,1.2 -1.9,3.9 -7.1,15.4 2.5,14.4 11.4,-1.2 37.6,-29.4 37.6,-29.4 0,0 -11.5,29.4 -46.7,40.7 -35.3,11.3 -22.4,2.1 -22.4,2.1 z"
       class="g0_2"
       id="path141"
       inkscape:connector-curvature="0"
       style="fill:#1f191a" />
    <path
       d="m 891.6,790.1 c 0,0 -6.5,26 1.8,22.2 8.2,-3.9 30,-19.4 34.9,-35.2 -10.9,29.7 -22.1,35.8 -51.6,46.2 4.2,-11.7 14.9,-33.2 14.9,-33.2 z"
       class="g0_2"
       id="path143"
       inkscape:connector-curvature="0"
       style="fill:#1f191a" />
    <path
       d="m 938.3,747.5 c 0.9,11 31.4,-3.5 33.3,-25.2 -3,25.8 -4.3,29.8 -4.3,29.8 0,0 -20.9,6.8 -33.7,26.6 -1.8,-7.4 4.7,-31.2 4.7,-31.2 z"
       class="g0_2"
       id="path145"
       inkscape:connector-curvature="0"
       style="fill:#1f191a" />
    <path
       d="m 1022.2,697 c 0,0 -13.3,40.9 -28.2,42.2 -14.8,1.4 -22.5,-2.9 -22.5,-11.9 -5.5,18.3 -3.7,23.4 -3.7,23.4 0,0 24.4,-2.7 33.6,-2.7 6.9,-8.8 23.9,-31 20.8,-51 z"
       class="g0_2"
       id="path147"
       inkscape:connector-curvature="0"
       style="fill:#1f191a" />
    <path
       d="m 788.6,856.3 c -12.5,-0.4 -6.6,19.1 9,26.6 15.7,7.5 42.4,14.7 42.4,14.7 0,0 -30.5,4.9 -53.7,-14.7 -23.2,-19.5 -26.1,-30.2 -26.1,-30.2 z"
       class="g0_2"
       id="path149"
       inkscape:connector-curvature="0"
       style="fill:#1f191a" />
    <path
       d="m 855.8,839.2 c -19.6,6.3 12.2,35.6 48.5,28.5 -30.9,7.4 -44.8,5.6 -65.5,-6.6 -20.9,-13.2 -22.7,-14.8 -22.7,-14.8 z"
       class="g0_2"
       id="path151"
       inkscape:connector-curvature="0"
       style="fill:#1f191a" />
    <path
       d="m 907.2,810.1 c -16.1,11.8 7.8,33.3 50.5,21.6 -34.9,8.2 -34.6,10.6 -59.3,0.6 -22.1,-7 -22.5,-10.3 -22.5,-10.3 z"
       class="g0_2"
       id="path153"
       inkscape:connector-curvature="0"
       style="fill:#1f191a" />
    <path
       d="m 932.6,776.8 c -5.2,15 52.6,17.4 83.7,-8.4 -29,27.7 -24.3,29.4 -71.6,30.1 -19.8,-1 -23.1,-1.7 -23.1,-1.7 z"
       class="g0_2"
       id="path155"
       inkscape:connector-curvature="0"
       style="fill:#1f191a" />
    <path
       d="m 774.6,835.3 c 0,0 24.9,8 50.5,-3.2 -29.2,17.2 -50.5,3.2 -50.5,3.2 z"
       class="g0_2"
       id="path157"
       inkscape:connector-curvature="0"
       style="fill:#1f191a" />
    <path
       d="m 911.2,823.8 c 0,0 24.4,9.2 50.6,-0.7 -30.1,15.7 -50.6,0.7 -50.6,0.7 z"
       class="g0_2"
       id="path159"
       inkscape:connector-curvature="0"
       style="fill:#1f191a" />
    <path
       d="m 944.1,778.8 c 0,0 25.1,6.9 50.3,-5.3 -28.5,18.4 -50.3,5.3 -50.3,5.3 z"
       class="g0_2"
       id="path161"
       inkscape:connector-curvature="0"
       style="fill:#1f191a" />
    <path
       d="m 985.3,737.4 c 0,0 22.5,-13 31.5,-39.5 -6.9,33.2 -31.5,39.5 -31.5,39.5 z"
       class="g0_2"
       id="path163"
       inkscape:connector-curvature="0"
       style="fill:#1f191a" />
    <path
       d="m 891.4,806.7 c 0,0 23.8,-10.5 35.6,-35.9 -10.5,32.2 -35.6,35.9 -35.6,35.9 z"
       class="g0_2"
       id="path165"
       inkscape:connector-curvature="0"
       style="fill:#1f191a" />
    <path
       d="m 787.6,867 c 0,0 18.5,18.3 46.5,20 -33.9,2 -46.5,-20 -46.5,-20 z"
       class="g0_2"
       id="path167"
       inkscape:connector-curvature="0"
       style="fill:#1f191a" />
    <path
       d="m 856.4,847 c 0,0 16,15.8 40.1,17.3 -29.2,1.8 -40.1,-17.3 -40.1,-17.3 z"
       class="g0_2"
       id="path169"
       inkscape:connector-curvature="0"
       style="fill:#1f191a" />
    <path
       d="m 788.1,830 c 0,0 12.3,5.1 27.2,-0.7 -16.3,11.3 -27.2,0.7 -27.2,0.7 z"
       class="g0_2"
       id="path171"
       inkscape:connector-curvature="0"
       style="fill:#1f191a" />
    <path
       d="m 921.1,820.7 c 0,0 12.4,5 27.2,-0.7 -16.3,11.2 -27.2,0.7 -27.2,0.7 z"
       class="g0_2"
       id="path173"
       inkscape:connector-curvature="0"
       style="fill:#1f191a" />
    <path
       d="m 864.8,847.8 c 0,0 8.2,10.5 23.9,12.9 -19.7,1.7 -23.9,-12.9 -23.9,-12.9 z"
       class="g0_2"
       id="path175"
       inkscape:connector-curvature="0"
       style="fill:#1f191a" />
    <path
       d="m 799.6,868.3 c 0,0 8.2,10.5 23.9,12.9 -19.7,1.7 -23.9,-12.9 -23.9,-12.9 z"
       class="g0_2"
       id="path177"
       inkscape:connector-curvature="0"
       style="fill:#1f191a" />
    <path
       d="m 956.7,773 c 0,0 12.3,5 27.1,-0.7 -16.2,11.2 -27.1,0.7 -27.1,0.7 z"
       class="g0_2"
       id="path179"
       inkscape:connector-curvature="0"
       style="fill:#1f191a" />
    <path
       d="m 943.4,746.1 c 0,0 13,-2.8 22,-15.9 -7.1,18.4 -22,15.9 -22,15.9 z"
       class="g0_2"
       id="path181"
       inkscape:connector-curvature="0"
       style="fill:#1f191a" />
    <path
       d="m 845.9,827.3 c 0,0 13.1,-2.6 22.4,-15.6 -7.5,18.4 -22.4,15.6 -22.4,15.6 z"
       class="g0_2"
       id="path183"
       inkscape:connector-curvature="0"
       style="fill:#1f191a" />
    <path
       d="m 587.5,849.4 c -2.3,-1.6 -87.2,-57.6 -98.7,-79.4 l -4.9,1.4 c 0,0 77.7,70.8 99.3,83.5 -4.4,-5.9 4.3,-5.5 4.3,-5.5 z"
       class="g0_2"
       id="path185"
       inkscape:connector-curvature="0"
       style="fill:#1f191a" />
    <path
       d="m 469.4,518 c -5.8,19.6 17.2,64.4 -37.4,90.2 5.5,-14.5 -24.1,-56.4 37.4,-90.2 z"
       class="g4_2"
       id="path187"
       inkscape:connector-curvature="0"
       style="fill:#ffffff" />
    <path
       d="m 430.2,607.5 c 1.2,-3.2 0.3,-8.6 -0.6,-14.8 -3.3,-20.2 -8.1,-50.6 38.9,-76.4 l 4.2,-2.3 -1.4,4.6 c -1.4,4.8 -1,11.5 -0.5,19.2 1.5,22.2 3.5,52.6 -37.9,72.1 l -4.5,2.1 z m 3.2,-15.5 c 0.8,5 1.5,9.2 1.3,12.7 35.4,-18.4 33.6,-45.1 32.2,-66.7 -0.4,-6 -0.8,-11.5 -0.2,-16.1 -40.7,24 -36.2,51.7 -33.3,70.1 z"
       class="g0_2"
       id="path189"
       inkscape:connector-curvature="0"
       style="fill:#1f191a" />
    <path
       d="m 484.6,555.6 c -11.2,17.1 -60.3,28.4 -44.8,86.7 7.5,-13.5 58.7,-17.9 44.8,-86.7 z"
       class="g4_2"
       id="path191"
       inkscape:connector-curvature="0"
       style="fill:#ffffff" />
    <path
       d="m 398.9,609.5 c 12.5,16.2 62.2,23.8 51.2,83.1 -8.5,-12.9 -59.8,-13.4 -51.2,-83.1 z"
       class="g4_2"
       id="path193"
       inkscape:connector-curvature="0"
       style="fill:#ffffff" />
    <path
       d="m 400,666.6 c 15.2,13.7 65.5,12.1 65.4,72.5 -10.7,-11.2 -61.3,-2.4 -65.4,-72.5 z"
       class="g4_2"
       id="path195"
       inkscape:connector-curvature="0"
       style="fill:#ffffff" />
    <path
       d="m 410.3,727.3 c 18.5,8.6 66.1,-7.6 83.6,50.2 -13.4,-7.6 -59.3,15.5 -83.6,-50.2 z"
       class="g4_2"
       id="path197"
       inkscape:connector-curvature="0"
       style="fill:#ffffff" />
    <path
       d="m 468.6,567.2 c 6.2,-4.5 11.6,-8.5 14.3,-12.7 l 2.6,-4 1,4.7 c 0.2,0.8 0.3,1.6 0.5,2.4 9.3,50.7 -16.6,66.3 -33.7,76.6 -5.4,3.3 -10.1,6.1 -11.8,9.1 l -2.3,4.2 -1.3,-4.7 c -0.7,-2.6 -1.2,-5.1 -1.7,-7.6 -7.1,-38.8 15.7,-55.7 32.4,-68 m -17.3,63.6 c 15.9,-9.6 40,-24.1 32.1,-70.7 -3.2,3.5 -7.6,6.7 -12.5,10.3 -17.2,12.7 -38.9,28.8 -30.1,67.6 2.5,-2.4 6.2,-4.6 10.5,-7.2 z"
       class="g0_2"
       id="path199"
       inkscape:connector-curvature="0"
       style="fill:#1f191a" />
    <path
       d="m 397,609.3 0.6,-4.8 2.9,3.8 c 3,4 8.7,7.6 15.2,11.6 14.4,9.1 32.4,20.3 36.9,44.8 1.6,8.4 1.3,17.9 -0.6,28.3 l -0.9,4.7 -2.6,-4 c -1.9,-2.9 -6.8,-5.3 -12.4,-8.2 -13.4,-6.7 -33.5,-16.8 -38.8,-45.5 -1.6,-9 -1.8,-19.3 -0.3,-30.7 m 51.8,56.1 c -4.2,-22.8 -21.4,-33.5 -35.2,-42.1 -5.1,-3.3 -9.7,-6.1 -13.2,-9.3 -0.9,9.3 -0.6,17.8 0.8,25.3 4.9,26.8 23.2,36 36.6,42.7 4.5,2.3 8.3,4.2 11,6.4 1.2,-8.4 1.2,-16.1 0,-23 z"
       class="g0_2"
       id="path201"
       inkscape:connector-curvature="0"
       style="fill:#1f191a" />
    <path
       d="m 398.1,666.7 -0.3,-4.7 3.5,3.2 c 3.7,3.3 9.9,5.8 17.1,8.6 17.6,7 41.6,16.5 47.6,48.8 0.9,5.1 1.4,10.6 1.3,16.5 v 4.9 l -3.3,-3.5 c -2.4,-2.5 -7.6,-4 -13.7,-5.8 -17.1,-5 -43.1,-12.6 -50.5,-52.9 -0.8,-4.7 -1.4,-9.7 -1.7,-15.1 m 64,56.6 c -5.6,-30.1 -27.5,-38.8 -45.1,-45.8 -5.7,-2.3 -10.8,-4.3 -14.7,-6.8 0.3,3.7 0.8,7.2 1.4,10.4 6.9,37.9 30.5,44.8 47.7,49.8 4.8,1.4 8.9,2.6 12,4.3 -0.2,-4.2 -0.6,-8.2 -1.3,-11.9 z"
       class="g0_2"
       id="path203"
       inkscape:connector-curvature="0"
       style="fill:#1f191a" />
    <path
       d="m 411.1,725.5 c 4.5,2.1 11.2,2.7 18.9,3.3 22.1,1.8 52.5,4.2 65.8,48.1 l 1.4,4.7 -4.2,-2.4 c -3,-1.7 -8.5,-1.6 -14.8,-1.5 -20.3,0.2 -51.1,0.6 -69.8,-49.7 l -1.6,-4.5 z m 18.5,7.2 c -6,-0.5 -11.4,-0.9 -16,-2.2 17.8,43.8 45.8,43.5 64.6,43.2 5,0 9.2,-0.1 12.7,0.7 -13.1,-37.8 -39.7,-40 -61.3,-41.7 z"
       class="g0_2"
       id="path205"
       inkscape:connector-curvature="0"
       style="fill:#1f191a" />
    <path
       d="m 467,599.5 c -5.4,19.7 -48.6,45.6 -15.9,96.3 3,-15.2 50.3,-35.1 15.9,-96.3 z"
       class="g4_2"
       id="path207"
       inkscape:connector-curvature="0"
       style="fill:#ffffff" />
    <path
       d="m 455.4,615.5 c 4.5,-6.2 8.4,-11.6 9.7,-16.5 l 1.2,-4.6 2.4,4.2 c 6,10.7 9.9,20.9 11.6,30.3 5.1,27.5 -9.3,44.1 -18.9,55.1 -4.1,4.7 -7.7,8.8 -8.4,12.2 l -0.9,4.8 -2.6,-4.1 c -6.1,-9.4 -10,-18.6 -11.6,-27.4 -4.3,-23.6 7.8,-40.4 17.5,-54 m 3.1,65.9 c 9.6,-11.1 22.7,-26.2 18,-51.8 -1.5,-7.9 -4.6,-16.4 -9.2,-25.4 -2,4.2 -5.2,8.7 -8.8,13.6 -9.2,12.9 -20.8,29 -16.7,51 1.3,7.2 4.3,14.8 8.9,22.6 1.7,-3 4.5,-6.3 7.8,-10 z"
       class="g0_2"
       id="path209"
       inkscape:connector-curvature="0"
       style="fill:#1f191a" />
    <path
       d="m 465.1,644.5 c -1.7,20.3 -39.5,53.6 1.9,97.6 0.1,-15.5 43,-43.7 -1.9,-97.6 z"
       class="g4_2"
       id="path211"
       inkscape:connector-curvature="0"
       style="fill:#ffffff" />
    <path
       d="m 456.6,662.3 c 3.3,-6.9 6.2,-13 6.6,-18 l 0.4,-4.7 3,3.6 c 11.1,13.3 17.8,26.2 20.1,38.6 3.7,20.5 -5.2,35.7 -11.8,46.7 -3.2,5.5 -5.9,10.2 -6,13.6 v 4.9 l -3.4,-3.6 c -10.6,-11.3 -16.7,-22.5 -18.9,-34.2 -3.4,-18.4 4.1,-34.2 10,-46.9 m 15,64.2 c 6.5,-11.1 14.7,-25 11.2,-44 -1.9,-10.7 -7.5,-21.9 -16.5,-33.5 -1.2,4.6 -3.5,9.5 -6.1,15 -5.8,12.2 -12.9,27.3 -9.8,44.5 1.9,10 6.9,19.6 15.4,29.3 1.1,-3.3 3.2,-7 5.8,-11.3 z"
       class="g0_2"
       id="path213"
       inkscape:connector-curvature="0"
       style="fill:#1f191a" />
    <path
       d="m 466.1,687.1 c 4.3,20 -22.2,62.8 30.2,92.8 -4.3,-14.9 28.5,-54.3 -30.2,-92.8 z"
       class="g4_2"
       id="path215"
       inkscape:connector-curvature="0"
       style="fill:#ffffff" />
    <path
       d="m 463.2,706.6 c 1,-7.4 2,-13.8 1.1,-18.6 l -1.1,-5.2 4,2.6 c 20.7,13.6 32.3,28.6 35.4,45.8 2.4,12.8 -0.4,24.2 -2.6,33.4 -1.4,5.7 -2.6,10.7 -2,14 0.1,0.2 0.1,0.5 0.2,0.7 l 1.4,4.7 -4.3,-2.4 c -19.1,-11 -29.9,-24.7 -33.1,-42 -2.1,-11.7 -0.5,-23 1,-33 m 33,57.1 c 2.1,-8.9 4.8,-19.9 2.6,-31.8 -2.8,-15.1 -12.7,-28.5 -30.3,-40.8 0.2,4.7 -0.6,10.1 -1.5,16.1 -1.4,9.7 -3,20.6 -0.9,31.7 2.7,15.1 11.9,27.3 27.9,37.3 0,-3.6 1.1,-7.8 2.2,-12.5 z"
       class="g0_2"
       id="path217"
       inkscape:connector-curvature="0"
       style="fill:#1f191a" />
    <path
       d="m 415.8,552.1 c 6.9,19.3 52,41.6 23.3,94.8 C 435,632 386.3,615.8 415.8,552.1 Z"
       class="g4_2"
       id="path219"
       inkscape:connector-curvature="0"
       style="fill:#ffffff" />
    <path
       d="m 414,551.3 2,-4.3 1.6,4.5 c 1.7,4.7 6,9.8 11,15.7 8.1,9.6 18.1,21.5 21.1,37.4 2.4,13.5 -0.4,27.6 -8.8,43.2 l -2.3,4.3 -1.3,-4.7 c -1,-3.3 -4.8,-7.1 -9.4,-11.5 -8.2,-8.1 -19.4,-19.1 -22.6,-36.6 -2.6,-14.1 0.3,-29.8 8.7,-48 m 31.8,54 c -2.7,-14.9 -12,-25.9 -20.2,-35.6 -3.9,-4.6 -7.5,-8.8 -9.8,-12.9 -6.7,15.8 -8.9,29.5 -6.7,41.8 3,16.2 13.3,26.4 21.6,34.5 3.6,3.5 6.6,6.4 8.5,9.4 6.6,-13.4 8.7,-25.6 6.6,-37.2 z"
       class="g0_2"
       id="path221"
       inkscape:connector-curvature="0"
       style="fill:#1f191a" />
    <path
       d="m 498.4,762.7 c -4.1,8.3 -31.2,-17 -34.9,-42.7 -0.4,17.8 4,46.4 30.4,57.5 2.4,-5 4.5,-14.8 4.5,-14.8 z"
       class="g0_2"
       id="path223"
       inkscape:connector-curvature="0"
       style="fill:#1f191a" />
    <path
       d="m 466,704 c 0,0 -0.2,0.4 -0.4,1.1 -1.4,3.2 -5.9,12.3 -10.2,5.9 -5.2,-7.8 -1.2,-38.6 -1.2,-38.6 0,0 -12.3,22.3 -1.2,50.1 11.2,27.7 10.3,14.9 10.3,14.9 z"
       class="g0_2"
       id="path225"
       inkscape:connector-curvature="0"
       style="fill:#1f191a" />
    <path
       d="m 459.5,660.8 c 0,0 -12.9,17.4 -14.7,10.3 -1.8,-7.2 -3.4,-28.7 3.8,-39.9 -12.8,22.1 -10.9,32.2 -2.1,56 5.2,-8.7 13,-26.4 13,-26.4 z"
       class="g0_2"
       id="path227"
       inkscape:connector-curvature="0"
       style="fill:#1f191a" />
    <path
       d="m 461.8,609.7 c -7.2,5.1 -14,-21.4 -1.4,-33.7 -14.5,15.1 -16.3,18.1 -16.3,18.1 0,0 6.5,16.4 0.8,34.6 5.6,-2.7 16.9,-19 16.9,-19 z"
       class="g0_2"
       id="path229"
       inkscape:connector-curvature="0"
       style="fill:#1f191a" />
    <path
       d="m 450,531.4 c 0,0 -18.5,29.4 -11.7,39.3 6.8,10 13.4,12.5 19,7.9 -8.5,12.8 -12.6,14.4 -12.6,14.4 0,0 -10.9,-16.6 -15.7,-22.3 1.9,-8.9 6.9,-30.9 21,-39.3 z"
       class="g0_2"
       id="path231"
       inkscape:connector-curvature="0"
       style="fill:#1f191a" />
    <path
       d="m 471.4,759 c 6.8,7.6 -8.4,14 -21.1,8.1 -12.8,-5.8 -31.1,-18.8 -31.1,-18.8 0,0 12.8,21.6 36.9,25.9 24.1,4.3 32.3,0.7 32.3,0.7 z"
       class="g0_2"
       id="path233"
       inkscape:connector-curvature="0"
       style="fill:#1f191a" />
    <path
       d="m 447.4,708.4 c 6.2,15.4 -28.4,10.8 -42.8,-15.5 11.3,23 19.7,30.8 38,37.3 18.9,6.2 20.9,6.5 20.9,6.5 z"
       class="g0_2"
       id="path235"
       inkscape:connector-curvature="0"
       style="fill:#1f191a" />
    <path
       d="m 439,661.4 c 1,16 -24.7,12.3 -39.5,-20.3 12.9,25.9 11.2,27 30.2,37.2 15.8,10.1 18,8.7 18,8.7 z"
       class="g0_2"
       id="path237"
       inkscape:connector-curvature="0"
       style="fill:#1f191a" />
    <path
       d="m 446.6,628.4 c -6.7,11 -38,-23.8 -38,-56.4 -2.2,32.2 -5.7,30.2 18.2,60 10.9,11.8 13,13.6 13,13.6 z"
       class="g0_2"
       id="path239"
       inkscape:connector-curvature="0"
       style="fill:#1f191a" />
    <path
       d="m 491.7,756.9 c 0,0 -17.7,-11.4 -24,-33.1 4.4,27 24,33.1 24,33.1 z"
       class="g0_2"
       id="path241"
       inkscape:connector-curvature="0"
       style="fill:#1f191a" />
    <path
       d="m 428.4,666 c 0,0 -18.3,-10.5 -25.7,-31.9 5.8,26.8 25.7,31.9 25.7,31.9 z"
       class="g0_2"
       id="path243"
       inkscape:connector-curvature="0"
       style="fill:#1f191a" />
    <path
       d="m 439.4,622.2 c 0,0 -17.2,-12 -22.7,-34 3.4,27.2 22.7,34 22.7,34 z"
       class="g0_2"
       id="path245"
       inkscape:connector-curvature="0"
       style="fill:#1f191a" />
    <path
       d="m 443.9,575.2 c 0,0 -3.5,-20.7 8.3,-40 -17,21.4 -8.3,40 -8.3,40 z"
       class="g0_2"
       id="path247"
       inkscape:connector-curvature="0"
       style="fill:#1f191a" />
    <path
       d="m 449.3,669.4 c 0,0 -5.7,-20.2 3.9,-40.7 -14.6,23.2 -3.9,40.7 -3.9,40.7 z"
       class="g0_2"
       id="path249"
       inkscape:connector-curvature="0"
       style="fill:#1f191a" />
    <path
       d="m 465.3,765.1 c 0,0 -20.9,-2 -36.4,-18.5 16.2,22.1 36.4,18.5 36.4,18.5 z"
       class="g0_2"
       id="path251"
       inkscape:connector-curvature="0"
       style="fill:#1f191a" />
    <path
       d="m 442.3,712 c 0,0 -18.1,-1.7 -31.5,-16 14,19.1 31.5,16 31.5,16 z"
       class="g0_2"
       id="path253"
       inkscape:connector-curvature="0"
       style="fill:#1f191a" />
    <path
       d="m 488.1,745.8 c 0,0 -9.5,-5.1 -13.6,-17.3 1.4,15.9 13.6,17.3 13.6,17.3 z"
       class="g0_2"
       id="path255"
       inkscape:connector-curvature="0"
       style="fill:#1f191a" />
    <path
       d="m 425.2,658.2 c 0,0 -9.5,-5.1 -13.6,-17.3 1.4,15.9 13.6,17.3 13.6,17.3 z"
       class="g0_2"
       id="path257"
       inkscape:connector-curvature="0"
       style="fill:#1f191a" />
    <path
       d="m 437.4,707.2 c 0,0 -10.7,0.4 -20.3,-8.2 9.1,13.1 20.3,8.2 20.3,8.2 z"
       class="g0_2"
       id="path259"
       inkscape:connector-curvature="0"
       style="fill:#1f191a" />
    <path
       d="m 458.3,758.4 c 0,0 -10.8,0.3 -20.4,-8.3 9.2,13.2 20.4,8.3 20.4,8.3 z"
       class="g0_2"
       id="path261"
       inkscape:connector-curvature="0"
       style="fill:#1f191a" />
    <path
       d="m 436.5,611.4 c 0,0 -9.5,-5.1 -13.5,-17.2 1.4,15.9 13.5,17.2 13.5,17.2 z"
       class="g0_2"
       id="path263"
       inkscape:connector-curvature="0"
       style="fill:#1f191a" />
    <path
       d="m 460.1,605.8 c 0,0 -4.9,-9.6 -1.4,-21.9 -7.9,13.9 1.4,21.9 1.4,21.9 z"
       class="g0_2"
       id="path265"
       inkscape:connector-curvature="0"
       style="fill:#1f191a" />
    <path
       d="m 460,708.3 c 0,0 -5.2,-9.4 -1.9,-21.9 -7.6,14.1 1.9,21.9 1.9,21.9 z"
       class="g0_2"
       id="path267"
       inkscape:connector-curvature="0"
       style="fill:#1f191a" />
    <path
       d="m 315.7,667.9 c 14,21.1 74.8,34.5 56.2,106.8 -9.4,-16.6 -72.7,-21.6 -56.2,-106.8 z"
       class="g4_2"
       id="path269"
       inkscape:connector-curvature="0"
       style="fill:#ffffff" />
    <path
       d="m 369.8,775.9 c -2.1,-3.7 -7.9,-7.1 -14.6,-11.1 -21.7,-12.8 -54.5,-32.2 -41.9,-97.3 l 1.1,-5.8 3.3,4.9 c 3.4,5.2 10.1,10 17.8,15.6 22.3,16.1 52.9,38.2 38.8,93.1 l -1.5,5.9 z m -12.1,-15.2 c 5.3,3.1 9.8,5.8 13,8.7 10.4,-48.2 -16.4,-67.6 -38,-83.3 -6.1,-4.4 -11.6,-8.3 -15.6,-12.5 -9.2,57.6 20.6,75.3 40.6,87.1 z"
       class="g0_2"
       id="path271"
       inkscape:connector-curvature="0"
       style="fill:#1f191a" />
    <path
       d="m 363.4,683.2 c 7.4,24.1 -20.6,79.8 47.2,111.1 -7,-17.8 29.2,-70 -47.2,-111.1 z"
       class="g4_2"
       id="path273"
       inkscape:connector-curvature="0"
       style="fill:#ffffff" />
    <path
       d="m 347.1,807.3 c 25.2,1 71.7,-40.5 119.5,16.9 -19,-2.1 -60.1,46.3 -119.5,-16.9 z"
       class="g4_2"
       id="path275"
       inkscape:connector-curvature="0"
       style="fill:#ffffff" />
    <path
       d="m 402.3,851.4 c 25,-3.7 63.2,-52.8 120.6,-5 -19.1,1.3 -50.7,56.4 -120.6,5 z"
       class="g4_2"
       id="path277"
       inkscape:connector-curvature="0"
       style="fill:#ffffff" />
    <path
       d="m 468.1,889.5 c 22.8,-10.8 45.1,-68.9 113.9,-39.9 -17.9,6.8 -32.1,68.7 -113.9,39.9 z"
       class="g4_2"
       id="path279"
       inkscape:connector-curvature="0"
       style="fill:#ffffff" />
    <path
       d="m 361.9,707.6 c 0.5,-9.5 1,-17.8 -0.8,-23.7 l -1.8,-5.6 5.2,2.8 c 0.9,0.5 1.8,0.9 2.7,1.4 55.6,31.2 50,68.1 46.3,92.6 -1.2,7.7 -2.2,14.4 -0.7,18.3 l 2.2,5.6 -5.4,-2.5 c -3,-1.4 -5.9,-2.9 -8.6,-4.4 -42.7,-23.9 -40.6,-58.9 -39.1,-84.5 m 46.8,66.7 c 3.4,-22.8 8.6,-57.1 -41.9,-86.4 0.7,5.7 0.3,12.5 -0.1,20 -1.6,26.5 -3.4,59.7 40.5,82.1 -0.2,-4.4 0.5,-9.6 1.5,-15.7 z"
       class="g0_2"
       id="path281"
       inkscape:connector-curvature="0"
       style="fill:#1f191a" />
    <path
       d="m 345.3,809 -4.1,-4.3 5.9,0.2 c 6.2,0.2 14.1,-2.4 23.1,-5.3 20,-6.7 44.9,-14.9 71.8,0.2 9.2,5.1 18.1,12.8 26.4,22.9 l 3.9,4.6 -6,-0.7 c -4.2,-0.4 -10.4,2.2 -17.5,5.4 -17,7.4 -42.5,18.5 -74,0.9 C 365,827.4 355,819.4 345.3,809 m 94.3,-5 c -25,-14 -48.8,-6.1 -67.9,0.1 -7.1,2.4 -13.5,4.5 -19.2,5.3 8.2,8.2 16.5,14.7 24.6,19.3 29.4,16.4 52.7,6.3 69.7,-1.2 5.7,-2.4 10.5,-4.5 14.7,-5.4 -7,-7.8 -14.4,-13.9 -21.9,-18.1 z"
       class="g0_2"
       id="path283"
       inkscape:connector-curvature="0"
       style="fill:#1f191a" />
    <path
       d="m 400.8,853.3 -4.7,-3.5 5.8,-0.8 c 6.2,-0.9 13.4,-4.9 21.8,-9.4 20.5,-11.3 48.5,-26.6 83.9,-6.8 5.6,3.1 11.2,7.1 16.8,11.7 l 4.6,3.9 -6,0.4 c -4.2,0.3 -9.8,4.1 -16.2,8.4 -18.4,12.4 -46.1,31.1 -90.2,6.4 -5.2,-2.9 -10.4,-6.4 -15.8,-10.3 M 505.3,837 c -33.1,-18.5 -58.7,-4.5 -79.3,6.8 -6.6,3.6 -12.5,6.9 -18,8.7 3.7,2.5 7.4,4.8 10.9,6.8 41.6,23.3 66.8,6.3 85.2,-6.1 5,-3.4 9.4,-6.4 13.5,-8 -4.2,-3.1 -8.3,-5.9 -12.3,-8.2 z"
       class="g0_2"
       id="path285"
       inkscape:connector-curvature="0"
       style="fill:#1f191a" />
    <path
       d="m 467.1,887.3 c 5.6,-2.6 11.3,-8.5 18,-15.4 19.2,-19.6 45.5,-46.6 97.8,-24.6 l 5.5,2.4 -5.6,2.1 c -3.9,1.5 -8.2,6.8 -13.1,12.8 -15.9,19.6 -39.8,49.2 -102.4,27.2 l -5.6,-2 z m 21.4,-12 c -5.2,5.4 -9.9,10.2 -14.6,13.6 55.6,17.6 77.5,-9.3 92.1,-27.4 3.8,-4.7 7.1,-8.8 10.6,-11.5 -46.3,-17.5 -69.4,6.2 -88.1,25.3 z"
       class="g0_2"
       id="path287"
       inkscape:connector-curvature="0"
       style="fill:#1f191a" />
    <path
       d="m 391.3,734.7 c 14.5,20.6 5,82.2 79.1,91.1 -12.1,-14.8 6.2,-75.6 -79.1,-91.1 z"
       class="g4_2"
       id="path289"
       inkscape:connector-curvature="0"
       style="fill:#ffffff" />
    <path
       d="m 397.4,758.3 c -2.5,-9.2 -4.5,-17.2 -8.1,-22.3 l -3.4,-4.8 5.8,1.1 c 14.9,2.7 27.7,7 38,12.8 30.2,16.9 34.6,43.7 37.6,61.5 1.2,7.7 2.3,14.4 5,17.6 l 3.8,4.7 -6,-0.7 C 456.4,826.5 444.6,823 434.9,817.6 409,803 402.5,778.3 397.4,758.3 m 65.1,49.1 c -3,-17.9 -7,-42.3 -35.1,-58.1 -8.7,-4.8 -19.2,-8.6 -31.4,-11.2 2.4,5.2 4.1,11.7 6.1,19 4.9,19 11.1,42.7 35.2,56.2 7.9,4.5 17.6,7.6 28.6,9.4 -1.6,-4 -2.4,-9.2 -3.4,-15.3 z"
       class="g0_2"
       id="path291"
       inkscape:connector-curvature="0"
       style="fill:#1f191a" />
    <path
       d="m 432.6,771.9 c 18.1,17.7 19.8,80 94.3,75.3 -14.6,-12.4 -7.5,-75.4 -94.3,-75.3 z"
       class="g4_2"
       id="path293"
       inkscape:connector-curvature="0"
       style="fill:#ffffff" />
    <path
       d="m 442.9,794.1 c -4,-8.6 -7.5,-16.1 -12,-20.5 l -4.2,-4.1 h 5.9 c 21.3,0 39,3.8 52.5,11.3 22.5,12.7 29.9,33.2 35.3,48.1 2.6,7.4 4.9,13.7 8.1,16.5 l 4.6,3.8 -6,0.4 c -19.1,1.2 -34.6,-1.7 -47.6,-9 -20.1,-11.2 -29.3,-30.8 -36.6,-46.5 m 72.9,36.5 c -5.4,-15.1 -12.1,-33.8 -33.1,-45.5 -11.6,-6.6 -26.7,-10.1 -44.8,-10.7 3.3,4.7 6.2,10.8 9.4,17.6 7,15.1 15.8,33.9 34.6,44.4 11,6.2 24.1,9 40.1,8.6 -2.3,-3.7 -4.1,-8.6 -6.2,-14.4 z"
       class="g0_2"
       id="path295"
       inkscape:connector-curvature="0"
       style="fill:#1f191a" />
    <path
       d="m 473.9,804.6 c 22.4,11.7 42.3,70.7 112.2,44.5 -17.6,-7.5 -29.2,-69.9 -112.2,-44.5 z"
       class="g4_2"
       id="path297"
       inkscape:connector-curvature="0"
       style="fill:#ffffff" />
    <path
       d="M 490.2,822.9 C 484,816 478.6,810 473.3,807.1 l -5.7,-3 5.6,-1.8 c 29.3,-9 52.7,-8.2 71.6,2.4 14,7.8 22.7,19.5 29.7,28.9 4.3,5.8 8.1,10.9 11.7,12.9 0.3,0.2 0.6,0.3 0.9,0.4 l 5.5,2.4 -5.7,2.1 c -25.5,9.6 -47.1,9 -66,-1.6 -12.9,-7.2 -22.3,-17.7 -30.7,-26.9 m 80.4,13.6 c -6.7,-9 -15.1,-20.3 -28.2,-27.6 -16.6,-9.3 -37.2,-10.4 -62.7,-3.4 4.6,3.5 9.1,8.5 14.1,14.1 8.1,9 17.3,19.2 29.4,26 16.5,9.3 35.4,10.2 57.5,2.9 -3.3,-2.9 -6.5,-7.2 -10.1,-12 z"
       class="g0_2"
       id="path299"
       inkscape:connector-curvature="0"
       style="fill:#1f191a" />
    <path
       d="m 305.7,746 c 23.8,8.6 80.7,-16.7 108.7,52.5 -17.5,-7.8 -71.3,25.8 -108.7,-52.5 z"
       class="g4_2"
       id="path301"
       inkscape:connector-curvature="0"
       style="fill:#ffffff" />
    <path
       d="m 303.6,747 -2.6,-5.3 5.6,2 c 5.8,2.1 14,2 23.6,1.9 15.5,-0.1 34.8,-0.3 52.3,9.5 14.7,8.3 25.9,22.2 34.1,42.5 l 2.3,5.6 -5.5,-2.5 c -3.9,-1.7 -10.6,-1 -18.4,-0.2 -14.1,1.4 -33.5,3.4 -52.7,-7.4 -15.4,-8.6 -28.1,-23.7 -38.7,-46.1 m 76.5,12.3 c -16.4,-9.1 -34.2,-9 -49.9,-8.8 -7.5,0 -14.2,0.1 -19.9,-0.9 9.7,18.9 21,31.8 34.4,39.3 17.9,10 35.6,8.2 49.9,6.8 6.1,-0.7 11.3,-1.2 15.6,-0.7 -7.5,-16.9 -17.4,-28.5 -30.1,-35.7 z"
       class="g0_2"
       id="path303"
       inkscape:connector-curvature="0"
       style="fill:#1f191a" />
    <path
       d="m 571.5,833.6 c 4.5,10.5 -40.9,16.3 -68.3,-0.5 16.6,14.4 47.3,32.9 78.8,16.5 -3,-6.3 -10.5,-16 -10.5,-16 z"
       class="g0_2"
       id="path305"
       inkscape:connector-curvature="0"
       style="fill:#1f191a" />
    <path
       d="m 489.9,818.1 c 0,0 0.3,0.5 0.7,1.2 2,3.9 7.1,15.4 -2.4,14.4 -11.5,-1.2 -37.7,-29.4 -37.7,-29.4 0,0 11.6,29.4 46.8,40.7 35.2,11.3 22.4,2.1 22.4,2.1 z"
       class="g0_2"
       id="path307"
       inkscape:connector-curvature="0"
       style="fill:#1f191a" />
    <path
       d="m 443.7,790.1 c 0,0 6.4,26 -1.8,22.2 -8.3,-3.9 -30,-19.4 -35,-35.2 10.9,29.7 22.1,35.8 51.7,46.2 -4.3,-11.7 -14.9,-33.2 -14.9,-33.2 z"
       class="g0_2"
       id="path309"
       inkscape:connector-curvature="0"
       style="fill:#1f191a" />
    <path
       d="m 396.9,747.5 c -0.9,11 -31.4,-3.5 -33.2,-25.2 3,25.8 4.3,29.8 4.3,29.8 0,0 20.8,6.8 33.6,26.6 1.9,-7.4 -4.7,-31.2 -4.7,-31.2 z"
       class="g0_2"
       id="path311"
       inkscape:connector-curvature="0"
       style="fill:#1f191a" />
    <path
       d="m 313,697 c 0,0 13.4,40.9 28.2,42.2 14.9,1.4 22.5,-2.9 22.5,-11.9 5.5,18.3 3.8,23.4 3.8,23.4 0,0 -24.5,-2.7 -33.6,-2.7 -7,-8.8 -24,-31 -20.9,-51 z"
       class="g0_2"
       id="path313"
       inkscape:connector-curvature="0"
       style="fill:#1f191a" />
    <path
       d="m 546.6,856.3 c 12.5,-0.4 6.7,19.1 -9,26.6 -15.7,7.5 -42.4,14.7 -42.4,14.7 0,0 30.5,4.9 53.8,-14.7 23.1,-19.5 26.1,-30.2 26.1,-30.2 z"
       class="g0_2"
       id="path315"
       inkscape:connector-curvature="0"
       style="fill:#1f191a" />
    <path
       d="m 479.5,839.2 c 19.5,6.3 -12.2,35.6 -48.6,28.5 30.9,7.4 44.9,5.6 65.6,-6.6 20.8,-13.2 22.6,-14.8 22.6,-14.8 z"
       class="g0_2"
       id="path317"
       inkscape:connector-curvature="0"
       style="fill:#1f191a" />
    <path
       d="m 428.1,810.1 c 16,11.8 -7.8,33.3 -50.6,21.6 34.9,8.2 34.7,10.6 59.4,0.6 22,-7 22.4,-10.3 22.4,-10.3 z"
       class="g0_2"
       id="path319"
       inkscape:connector-curvature="0"
       style="fill:#1f191a" />
    <path
       d="m 402.7,776.8 c 5.2,15 -52.7,17.4 -83.7,-8.4 28.9,27.7 24.3,29.4 71.5,30.1 19.8,-1 23.2,-1.7 23.2,-1.7 z"
       class="g0_2"
       id="path321"
       inkscape:connector-curvature="0"
       style="fill:#1f191a" />
    <path
       d="m 560.6,835.3 c 0,0 -24.8,8 -50.5,-3.2 29.2,17.2 50.5,3.2 50.5,3.2 z"
       class="g0_2"
       id="path323"
       inkscape:connector-curvature="0"
       style="fill:#1f191a" />
    <path
       d="m 424,823.8 c 0,0 -24.3,9.2 -50.5,-0.7 30,15.7 50.5,0.7 50.5,0.7 z"
       class="g0_2"
       id="path325"
       inkscape:connector-curvature="0"
       style="fill:#1f191a" />
    <path
       d="m 391.2,778.8 c 0,0 -25.1,6.9 -50.3,-5.3 28.5,18.4 50.3,5.3 50.3,5.3 z"
       class="g0_2"
       id="path327"
       inkscape:connector-curvature="0"
       style="fill:#1f191a" />
    <path
       d="m 350,737.4 c 0,0 -22.6,-13 -31.6,-39.5 6.9,33.2 31.6,39.5 31.6,39.5 z"
       class="g0_2"
       id="path329"
       inkscape:connector-curvature="0"
       style="fill:#1f191a" />
    <path
       d="m 443.9,806.7 c 0,0 -23.8,-10.5 -35.6,-35.9 10.5,32.2 35.6,35.9 35.6,35.9 z"
       class="g0_2"
       id="path331"
       inkscape:connector-curvature="0"
       style="fill:#1f191a" />
    <path
       d="m 547.6,867 c 0,0 -18.5,18.3 -46.4,20 33.8,2 46.4,-20 46.4,-20 z"
       class="g0_2"
       id="path333"
       inkscape:connector-curvature="0"
       style="fill:#1f191a" />
    <path
       d="m 478.9,847 c 0,0 -16,15.8 -40.2,17.3 29.3,1.8 40.2,-17.3 40.2,-17.3 z"
       class="g0_2"
       id="path335"
       inkscape:connector-curvature="0"
       style="fill:#1f191a" />
    <path
       d="m 547.1,830 c 0,0 -12.3,5.1 -27.1,-0.7 16.2,11.3 27.1,0.7 27.1,0.7 z"
       class="g0_2"
       id="path337"
       inkscape:connector-curvature="0"
       style="fill:#1f191a" />
    <path
       d="m 414.1,820.7 c 0,0 -12.3,5 -27.2,-0.7 16.3,11.2 27.2,0.7 27.2,0.7 z"
       class="g0_2"
       id="path339"
       inkscape:connector-curvature="0"
       style="fill:#1f191a" />
    <path
       d="m 470.5,847.8 c 0,0 -8.2,10.5 -23.9,12.9 19.7,1.7 23.9,-12.9 23.9,-12.9 z"
       class="g0_2"
       id="path341"
       inkscape:connector-curvature="0"
       style="fill:#1f191a" />
    <path
       d="m 535.6,868.3 c 0,0 -8.2,10.5 -23.9,12.9 19.7,1.7 23.9,-12.9 23.9,-12.9 z"
       class="g0_2"
       id="path343"
       inkscape:connector-curvature="0"
       style="fill:#1f191a" />
    <path
       d="m 378.6,773 c 0,0 -12.4,5 -27.2,-0.7 16.3,11.2 27.2,0.7 27.2,0.7 z"
       class="g0_2"
       id="path345"
       inkscape:connector-curvature="0"
       style="fill:#1f191a" />
    <path
       d="m 391.9,746.1 c 0,0 -13.1,-2.8 -22.1,-15.9 7.1,18.4 22.1,15.9 22.1,15.9 z"
       class="g0_2"
       id="path347"
       inkscape:connector-curvature="0"
       style="fill:#1f191a" />
    <path
       d="m 489.3,827.3 c 0,0 -13.1,-2.6 -22.3,-15.6 7.4,18.4 22.3,15.6 22.3,15.6 z"
       class="g0_2"
       id="path349"
       inkscape:connector-curvature="0"
       style="fill:#1f191a" />
    <path
       d="M 787.2,498.2 C 771.7,482.7 756,477 740.8,481.5 c -48.9,14.3 -75.1,130.1 -76.2,135 l -1.2,5.6 5.6,-1.3 c 4.9,-1 120.7,-27.2 135,-76.2 4.4,-15.2 -1.2,-30.8 -16.8,-46.4 m -44.3,-9.6 c 10.4,-3.1 21.2,-0.1 32.4,8.8 -16.5,2.6 -51.9,17.7 -95.6,91.5 10.9,-35.4 32.7,-91.5 63.2,-100.3 m 38.3,15.7 c -0.2,10.6 -7.8,51.5 -104.1,104.1 52.6,-96.3 93.5,-103.9 104.1,-104.1 m 15.7,38.3 c -8.8,30.4 -64.9,52.2 -100.3,63.1 73.7,-43.7 88.8,-79 91.5,-95.6 8.9,11.2 11.9,22.1 8.8,32.5 z"
       class="g4_2"
       id="path351"
       inkscape:connector-curvature="0"
       style="fill:#ffffff" />
    <path
       d="m 551.7,751.9 c -5,5 -13.1,5 -18.1,0 -5.1,-5 -5.1,-13.2 0,-18.2 L 658,609.3 c 5,-5 13.1,-5 18.1,0 5,5 5,13.2 0,18.2 z"
       class="g4_2"
       id="path353"
       inkscape:connector-curvature="0"
       style="fill:#ffffff" />
    <path
       d="M 787.2,498.2 C 771.7,482.7 756,477 740.8,481.5 c -48.9,14.3 -75.1,130.1 -76.2,135 l -1.2,5.6 5.6,-1.3 c 4.9,-1 120.7,-27.2 135,-76.2 4.4,-15.2 -1.2,-30.8 -16.8,-46.4 z m -44.3,-9.6 c 10.4,-3.1 21.2,-0.1 32.4,8.8 -16.5,2.6 -51.9,17.7 -95.6,91.5 10.9,-35.4 32.7,-91.5 63.2,-100.3 z m 38.3,15.7 c -0.2,10.6 -7.8,51.5 -104.1,104.1 52.6,-96.3 93.5,-103.9 104.1,-104.1 z m 15.7,38.3 c -8.8,30.4 -64.9,52.2 -100.3,63.1 73.7,-43.7 88.8,-79 91.5,-95.6 8.9,11.2 11.9,22.1 8.8,32.5 z"
       class="g5_2"
       id="path355"
       inkscape:connector-curvature="0"
       style="fill:none;stroke:#38312d;stroke-width:0.30500001;stroke-linecap:round;stroke-linejoin:round" />
    <path
       d="m 551.7,751.9 c -5,5 -13.1,5 -18.1,0 -5.1,-5 -5.1,-13.2 0,-18.2 L 658,609.3 c 5,-5 13.1,-5 18.1,0 5,5 5,13.2 0,18.2 z"
       class="g6_2"
       id="path357"
       inkscape:connector-curvature="0"
       style="fill:none;stroke:#38312d;stroke-width:1.52699995;stroke-linecap:butt;stroke-linejoin:miter" />
    <path
       d="m 551.5,734 c 0,0 -9.5,11.9 -18.2,2.4 1.4,10.2 14.1,8 18.2,-2.4 z"
       class="g0_2"
       id="path359"
       inkscape:connector-curvature="0"
       style="fill:#1f191a" />
    <path
       d="m 552.9,738 85.9,-85.8 -16.6,13.4 z"
       class="g0_2"
       id="path361"
       inkscape:connector-curvature="0"
       style="fill:#1f191a" />
    <path
       d="m 529.8,743.5 c 8.1,11.2 28.7,-5 51.5,-28 22.7,-23 73,-66.2 66.4,-73.8 -6.5,-7.6 -9.8,-12.3 -9.8,-12.3 l 7.3,-7.3 17,19.3 L 553.6,750 c 0,0 -8.8,11.5 -20,1.9 -2.9,-4.3 -3.8,-8.4 -3.8,-8.4 z"
       class="g0_2"
       id="path363"
       inkscape:connector-curvature="0"
       style="fill:#1f191a" />
    <path
       d="m 681.6,560.7 -1.9,28.2 20.1,-18.1 -22.7,37.6 34.4,-20.7 -14.9,18 38.7,-6 c 0,0 -45.7,17.7 -71.9,22.4 5.5,-22.4 18.2,-61.4 18.2,-61.4 z"
       class="g0_2"
       id="path365"
       inkscape:connector-curvature="0"
       style="fill:#1f191a" />
    <path
       d="m 704.9,593.6 c 0,0 62.3,-34.3 70.9,-69.9 -11.6,22.1 -44.7,54.9 -70.9,69.9 z"
       class="g0_2"
       id="path367"
       inkscape:connector-curvature="0"
       style="fill:#1f191a" />
    <path
       d="m 704.9,604.4 c 0,0 102.4,-26.9 93.2,-70.5 0.2,9.5 -3.9,24.9 -42.4,47.5 -36.3,21.4 -50.8,23 -50.8,23 z"
       class="g0_2"
       id="path369"
       inkscape:connector-curvature="0"
       style="fill:#1f191a" />
    <path
       d="m 690.9,580.9 c 0,0 35,-66.4 77.5,-74 -25.2,11.2 -26.5,13.3 -42.5,30.8 -7.4,8.1 -35,43.2 -35,43.2 z"
       class="g0_2"
       id="path371"
       inkscape:connector-curvature="0"
       style="fill:#1f191a" />
    <path
       d="m 679.9,579.6 c 0,0 16.9,-78.9 64,-91.3 -29.7,7.5 -56,75 -64,98 -2.5,2.4 0,-6.7 0,-6.7 z"
       class="g0_2"
       id="path373"
       inkscape:connector-curvature="0"
       style="fill:#1f191a" />
    <path
       d="m 538.1,511.3 c 3,3 6.7,4.7 10.4,5.3 26.8,10.6 39,36 39,36 l 7.5,-7.4 7.4,-7.5 c 0,0 -25.4,-12.2 -36,-39 -0.6,-3.7 -2.4,-7.4 -5.4,-10.4 -7,-7 -17.8,-7.6 -24.2,-1.3 -6.3,6.4 -5.8,17.2 1.3,24.3 z"
       class="g4_2"
       id="path375"
       inkscape:connector-curvature="0"
       style="fill:#ffffff" />
    <path
       d="m 538.1,511.3 c 3,3 6.7,4.7 10.4,5.3 26.8,10.6 39,36 39,36 l 7.5,-7.4 7.4,-7.5 c 0,0 -25.4,-12.2 -36,-39 -0.6,-3.7 -2.4,-7.4 -5.4,-10.4 -7,-7 -17.8,-7.6 -24.2,-1.3 -6.3,6.4 -5.8,17.2 1.3,24.3 z"
       class="g6_2"
       id="path377"
       inkscape:connector-curvature="0"
       style="fill:none;stroke:#38312d;stroke-width:1.52699995;stroke-linecap:butt;stroke-linejoin:miter" />
    <path
       d="m 536.2,500.4 c 0,0 11.8,15 22.9,3 -1.9,12.9 -17.8,10.1 -22.9,-3 z"
       class="g0_2"
       id="path379"
       inkscape:connector-curvature="0"
       style="fill:#1f191a" />
    <path
       d="m 548.5,516.6 c 13.7,2.7 24.8,-4.8 24.8,-4.8 l 7.8,11.3 -13.1,5.3 z"
       class="g0_2"
       id="path381"
       inkscape:connector-curvature="0"
       style="fill:#1f191a" />
    <path
       d="m 797.2,724.4 c -3,-3 -6.7,-4.7 -10.5,-5.4 -26.7,-10.5 -39,-36 -39,-36 l -7.4,7.5 -7.5,7.5 c 0,0 25.4,12.1 36,38.9 0.6,3.8 2.4,7.5 5.4,10.5 7,7 17.9,7.6 24.2,1.2 6.4,-6.3 5.8,-17.1 -1.2,-24.2 z"
       class="g4_2"
       id="path383"
       inkscape:connector-curvature="0"
       style="fill:#ffffff" />
    <path
       d="m 797.2,724.4 c -3,-3 -6.7,-4.7 -10.5,-5.4 -26.7,-10.5 -39,-36 -39,-36 l -7.4,7.5 -7.5,7.5 c 0,0 25.4,12.1 36,38.9 0.6,3.8 2.4,7.5 5.4,10.5 7,7 17.9,7.6 24.2,1.2 6.4,-6.3 5.8,-17.1 -1.2,-24.2 z"
       class="g6_2"
       id="path385"
       inkscape:connector-curvature="0"
       style="fill:none;stroke:#38312d;stroke-width:1.52699995;stroke-linecap:butt;stroke-linejoin:miter" />
    <path
       d="m 759.5,709.7 c -9.4,9.3 -24.6,9.3 -34,0 L 572.3,556.5 c -9.4,-9.4 -9.4,-24.6 0,-34 9.4,-9.3 24.6,-9.3 33.9,0 l 153.3,153.3 c 9.3,9.3 9.3,24.5 0,33.9 z"
       class="g4_2"
       id="path387"
       inkscape:connector-curvature="0"
       style="fill:#ffffff" />
    <path
       d="m 759.5,709.7 c -9.4,9.3 -24.6,9.3 -34,0 L 572.3,556.5 c -9.4,-9.4 -9.4,-24.6 0,-34 9.4,-9.3 24.6,-9.3 33.9,0 l 153.3,153.3 c 9.3,9.3 9.3,24.5 0,33.9 z"
       class="g6_2"
       id="path389"
       inkscape:connector-curvature="0"
       style="fill:none;stroke:#38312d;stroke-width:1.52699995;stroke-linecap:butt;stroke-linejoin:miter" />
    <path
       d="m 579,547.8 c 0,0 107.7,107.6 127.1,127.1 19.4,19.4 40.1,38 54.1,15.4 -13.8,19.2 -39,-6.9 -57.5,-25.4 C 684.2,646.4 579,547.8 579,547.8 Z"
       class="g0_2"
       id="path391"
       inkscape:connector-curvature="0"
       style="fill:#1f191a" />
    <path
       d="m 686.2,646.1 c 0,0 50.9,56.2 66.1,46.7 -16.8,-1.1 -37.2,-16.1 -66.1,-46.7 z"
       class="g0_2"
       id="path393"
       inkscape:connector-curvature="0"
       style="fill:#1f191a" />
    <path
       d="m 773.6,737.8 c 0,0 11.8,15 22.9,3 -2,12.9 -17.8,10.1 -22.9,-3 z"
       class="g0_2"
       id="path395"
       inkscape:connector-curvature="0"
       style="fill:#1f191a" />
    <path
       d="m 732.8,702.8 c -12,-6.5 -132,-117.8 -132,-117.9 l 124.7,124.8 c 9.4,9.3 24.6,9.3 34,0 7.8,-7.9 9.1,-19.9 3.7,-29.1 2.3,22.6 -18.3,28.6 -30.4,22.2 z"
       class="g0_2"
       id="path397"
       inkscape:connector-curvature="0"
       style="fill:#1f191a" />
    <path
       d="m 770.6,709.9 c 0,0 -9.1,8.9 -2.8,23.2 -8.8,-13.2 -15.5,-20.8 -15.5,-20.8 l 12.1,-9.9 z"
       class="g0_2"
       id="path399"
       inkscape:connector-curvature="0"
       style="fill:#1f191a" />
    <path
       d="m 565.3,494.7 c 0,0 0.9,10.3 -6.2,15.4 8,-4.3 8.3,-9 8.3,-9 z"
       class="g0_2"
       id="path401"
       inkscape:connector-curvature="0"
       style="fill:#1f191a" />
    <path
       d="m 791.3,720.4 c 0,0 -10.9,0.4 -14.7,8 3.6,-12.4 10.1,-9.4 10.1,-9.4 z"
       class="g0_2"
       id="path403"
       inkscape:connector-curvature="0"
       style="fill:#1f191a" />
    <path
       d="m 280.7,544.8 c -1.1,4.4 -5.7,7 -10.3,5.9 -4.5,-1.2 -7.3,-5.7 -6.2,-10.1 1.1,-4.4 5.7,-7.1 10.3,-6 4.5,1.2 7.3,5.7 6.2,10.2 z"
       class="g4_2"
       id="path405"
       inkscape:connector-curvature="0"
       style="fill:#ffffff" />
    <path
       d="m 309.2,499.2 -24.3,1.2 21,7.8 -3.7,9.9 -39.5,-14.7 3.7,-9.9 17.6,6.6 -14.5,-14.9 4.3,-11.4 14.5,15.9 25,-1.5 z"
       class="g4_2"
       id="path407"
       inkscape:connector-curvature="0"
       style="fill:#ffffff" />
    <path
       d="m 298.2,447.4 c -2.5,4.9 -0.4,10.7 4.8,13.4 5.2,2.7 11.2,1.1 13.7,-3.8 2.6,-5 0.4,-10.8 -4.8,-13.5 -5.1,-2.6 -11.1,-1.1 -13.7,3.9 m 30.5,0.6 c 1.4,4.7 0.9,9.8 -1.5,14.4 -2.4,4.6 -6.2,7.9 -10.9,9.6 -6,2.1 -12.6,1.6 -18.3,-1.4 -5.8,-3 -10,-7.9 -11.7,-14.1 -1.4,-4.7 -0.9,-9.8 1.5,-14.4 2.4,-4.6 6.2,-8 10.8,-9.6 6.1,-2.2 12.6,-1.7 18.4,1.3 5.7,2.9 9.9,8 11.7,14.2 z"
       class="g4_2"
       id="path409"
       inkscape:connector-curvature="0"
       style="fill:#ffffff" />
    <path
       d="m 357.3,410.8 -12.6,18.6 -11.7,-7.9 -0.1,2.8 -8.1,-5.5 v -2.9 l -14.9,-10.1 5.9,-8.8 11.1,7.5 0.1,-7.4 8.2,5.5 v 7.5 l 5.9,4 8.5,-12.6 z"
       class="g4_2"
       id="path411"
       inkscape:connector-curvature="0"
       style="fill:#ffffff" />
    <path
       d="m 355.3,362.9 c -3.6,4.2 -2.9,10.3 1.5,14.2 4.5,3.8 10.6,3.6 14.3,-0.6 3.7,-4.2 2.8,-10.4 -1.5,-14.1 -4.4,-3.8 -10.6,-3.7 -14.3,0.5 m 29.5,7.7 c 0.2,4.9 -1.4,9.7 -4.9,13.7 -3.4,3.9 -7.9,6.2 -12.7,6.7 -6.4,0.7 -12.7,-1.4 -17.6,-5.6 -4.9,-4.2 -7.7,-10.1 -8,-16.5 -0.2,-4.9 1.4,-9.7 4.8,-13.6 3.4,-4 8,-6.4 12.8,-6.8 6.5,-0.7 12.7,1.3 17.6,5.5 4.9,4.3 7.8,10.2 8,16.6 z"
       class="g4_2"
       id="path413"
       inkscape:connector-curvature="0"
       style="fill:#ffffff" />
    <path
       d="m 440.3,327.5 c -11,8.4 -22.6,6.6 -30.4,-3.6 -8,-10.5 -6.2,-23.4 3.5,-30.8 3.7,-2.9 8.2,-4.6 12.8,-4.8 l 2.6,10.6 c -3.6,0.5 -6.4,1.4 -8.8,3.2 -4.9,3.8 -5.5,10.1 -1.7,15.2 3.6,4.7 9.4,5.5 14,2 1.1,-0.9 2,-1.9 2.8,-3.1 l -6.4,-8.3 8.4,-6.4 12.2,15.9 c -1.7,3.2 -4.8,6.8 -9,10.1 z"
       class="g4_2"
       id="path415"
       inkscape:connector-curvature="0"
       style="fill:#ffffff" />
    <path
       d="m 464.5,272.9 c -4.8,2.7 -6.2,8.8 -3.3,13.9 2.9,5.1 8.8,6.9 13.6,4.2 4.9,-2.8 6.2,-8.9 3.3,-13.9 -2.9,-5 -8.8,-7 -13.6,-4.2 m 25.2,17 c -1.4,4.7 -4.6,8.7 -9.1,11.3 -4.5,2.6 -9.5,3.3 -14.3,2.2 -6.2,-1.5 -11.4,-5.5 -14.7,-11.2 -3.2,-5.6 -4,-12 -2.1,-18.2 1.4,-4.7 4.6,-8.6 9.1,-11.2 4.5,-2.6 9.6,-3.4 14.3,-2.2 6.3,1.5 11.5,5.4 14.7,11 3.2,5.6 4,12.2 2.1,18.3 z"
       class="g4_2"
       id="path417"
       inkscape:connector-curvature="0"
       style="fill:#ffffff" />
    <path
       d="m 516.7,282.5 c -1.8,0.7 -3.5,1.3 -5.2,1.6 l -4.8,-10.5 c 1.7,0 3.2,-0.3 4.4,-0.8 2.3,-1 3.1,-2.9 2.4,-4.6 -1,-2.2 -3.5,-2.6 -6.8,-3.9 -3.7,-1.6 -6.2,-4 -7.7,-7.4 -2.8,-6.6 -0.1,-14 7.7,-17.3 2.2,-1 4.4,-1.6 6.7,-1.7 l 4.1,9.6 c -2,-0.2 -3.6,0 -4.7,0.5 -2.5,1.1 -3.3,2.8 -2.5,4.6 0.9,2.2 3.3,2.3 6.6,3.4 4.1,1.4 7.1,4.2 8.7,8 3.2,7.5 0.3,14.6 -8.9,18.5 z"
       class="g4_2"
       id="path419"
       inkscape:connector-curvature="0"
       style="fill:#ffffff" />
    <path
       d="m 546.7,236.5 -1.1,0.3 2.9,9.8 1.3,-0.4 c 3.3,-1.1 4.6,-3.5 3.7,-6.4 -0.9,-3.2 -3.3,-4.4 -6.8,-3.3 m 6.5,19.7 -1.6,0.4 3.3,10.8 -10.1,3.1 -12.3,-40.2 10.2,-3.1 c 11,-3.4 17.9,-0.5 20.9,9.4 2.9,9.3 -0.8,16.6 -10.4,19.6 z"
       class="g4_2"
       id="path421"
       inkscape:connector-curvature="0"
       style="fill:#ffffff" />
    <path
       d="m 600.3,224.3 c -5.4,0.9 -8.9,6.1 -7.9,11.9 1,5.8 5.8,9.5 11.3,8.6 5.6,-0.9 8.9,-6.2 7.9,-11.9 -0.9,-5.6 -5.8,-9.6 -11.3,-8.6 m 17.8,24.7 c -3,3.9 -7.3,6.6 -12.5,7.4 -5.1,0.9 -10.1,-0.2 -14.1,-2.9 -5.4,-3.6 -8.9,-9.1 -10,-15.5 -1,-6.4 0.5,-12.7 4.4,-17.9 2.9,-3.9 7.2,-6.5 12.4,-7.4 5.1,-0.8 10.2,0.2 14.2,3 5.4,3.5 8.9,9 10,15.4 1,6.4 -0.5,12.8 -4.4,17.9 z"
       class="g4_2"
       id="path423"
       inkscape:connector-curvature="0"
       style="fill:#ffffff" />
    <path
       d="m 650.6,219.3 0.6,19.9 c 5.6,-0.7 8.9,-4.8 8.8,-10.2 -0.2,-5.7 -4,-9.8 -9.4,-9.7 m 11.4,27.4 c -4,2.7 -8.8,3.7 -14.8,3.9 l -6.2,0.2 -1.4,-42 6.2,-0.2 c 6.1,-0.2 11.1,0.1 15.7,2.7 5.9,3.5 9.3,9.6 9.5,17.7 0.3,7.3 -3,13.7 -9,17.7 z"
       class="g4_2"
       id="path425"
       inkscape:connector-curvature="0"
       style="fill:#ffffff" />
    <path
       d="m 704.1,233.3 -1.4,18.4 -10.6,-0.9 1.5,-18.8 -9.3,-24 11.7,0.9 3.9,13 6.1,-12.2 11.8,0.9 z"
       class="g4_2"
       id="path427"
       inkscape:connector-curvature="0"
       style="fill:#ffffff" />
    <path
       d="m 753.1,213.5 -7,-1.4 6,-8.3 9,1.8 z m -0.8,45.9 -11.3,-20.8 -3.5,17.8 -10.4,-2 8.2,-41.3 4.5,0.9 11.4,21 3.6,-18 10.4,2 -8.2,41.3 z"
       class="g4_2"
       id="path429"
       inkscape:connector-curvature="0"
       style="fill:#ffffff" />
    <path
       d="m 831.1,286.6 -7.7,-3.3 0.5,-20.3 -14.1,14.5 -7.4,-3.1 11.3,-41 9.8,4.2 -5.8,18.8 15.5,-15 -0.3,21.5 10,-17 9.6,4.1 z"
       class="g4_2"
       id="path431"
       inkscape:connector-curvature="0"
       style="fill:#ffffff" />
    <path
       d="m 849.1,296.1 20.6,-36.7 9.3,5.2 -20.7,36.7 z"
       class="g4_2"
       id="path433"
       inkscape:connector-curvature="0"
       style="fill:#ffffff" />
    <path
       d="m 892.5,323.5 -18.7,-12.9 23.8,-34.7 18.7,12.9 -4.9,10.2 -11.4,-7.8 -2.4,3.5 7.6,5.2 -6.3,9.2 -7.6,-5.2 -2.2,3.2 12.3,8.5 z"
       class="g4_2"
       id="path435"
       inkscape:connector-curvature="0"
       style="fill:#ffffff" />
    <path
       d="m 908.6,336.3 c -1.3,-1.1 -2.4,-2.2 -3.5,-3.2 l 7.3,-8.7 c 0.6,0.6 0.9,0.9 1.1,1 3.7,3.1 5.4,1.6 8.6,-2.3 l 15.1,-17.9 8.1,6.8 -18.5,22.2 c -6.4,7.6 -10.7,8.3 -18.2,2.1 z"
       class="g4_2"
       id="path437"
       inkscape:connector-curvature="0"
       style="fill:#ffffff" />
    <path
       d="m 934.1,359.7 c -1.4,-1.3 -2.6,-2.7 -3.5,-4.2 l 7.9,-8.4 c 0.7,1.6 1.4,2.9 2.4,3.8 1.8,1.8 3.9,1.7 5.1,0.5 1.7,-1.7 1.2,-4.2 1.2,-7.7 0.1,-4.1 1.3,-7.3 3.9,-10 5.1,-5.1 13,-5.3 19,0.7 1.7,1.7 3,3.5 4.1,5.6 l -7.4,7.3 c -0.6,-1.8 -1.4,-3.3 -2.2,-4.1 -2,-1.9 -3.9,-2.1 -5.3,-0.6 -1.7,1.6 -0.8,3.9 -0.7,7.4 0.3,4.3 -1.2,8.1 -4.1,11 -5.8,5.8 -13.4,5.8 -20.4,-1.3 z"
       class="g4_2"
       id="path439"
       inkscape:connector-curvature="0"
       style="fill:#ffffff" />
    <path
       d="m 968.6,397.1 11.3,-21.6 -17.3,14.2 -6.7,-8.2 32.5,-26.7 6.8,8.2 -14.5,11.9 20.1,-5 7.7,9.5 -21.1,4.4 -11.3,22.4 z"
       class="g4_2"
       id="path441"
       inkscape:connector-curvature="0"
       style="fill:#ffffff" />
    <path
       d="m 983.6,417.3 34.9,-23.5 5.9,8.8 -34.9,23.5 z"
       class="g4_2"
       id="path443"
       inkscape:connector-curvature="0"
       style="fill:#ffffff" />
    <path
       d="m 1011.3,463.4 c -1.3,-1.3 -2.3,-2.8 -3.2,-4.5 -6.4,-11.4 -2.7,-23.2 8.3,-29.3 11.1,-6.1 23.7,-2.6 29.9,8.7 0.8,1.4 1.4,3 1.9,4.6 l -10.7,6.5 c -0.2,-2.2 -0.7,-4 -1.5,-5.5 -3.2,-5.8 -9.1,-7.5 -14,-4.8 -4.8,2.7 -6.6,8.7 -3.7,14.1 1.1,1.9 2.6,3.5 4.6,4.7 z"
       class="g4_2"
       id="path445"
       inkscape:connector-curvature="0"
       style="fill:#ffffff" />
    <path
       d="m 1026.2,496.7 15.1,-6.2 -3.4,-8.3 -15.1,6.2 -4,-9.8 38.9,-16 4,9.8 -13.6,5.6 3.4,8.3 13.6,-5.6 4.1,9.8 -38.9,16 z"
       class="g4_2"
       id="path447"
       inkscape:connector-curvature="0"
       style="fill:#ffffff" />
    <path
       d="m 1052.3,532.1 c -1.2,-4.5 1.5,-9 6,-10.3 4.5,-1.3 9.2,1.2 10.4,5.7 1.2,4.3 -1.4,8.9 -5.9,10.2 -4.5,1.3 -9.2,-1.2 -10.5,-5.6 z"
       class="g4_2"
       id="path449"
       inkscape:connector-curvature="0"
       style="fill:#ffffff" />
    <path
       d="m 483.4,929 4.8,-7.9 8.3,5.2 -4.8,7.8 z m -11.6,32.4 11.2,7 -7.4,9 -24.2,-15 27.8,-19.1 -12.1,-7.5 7.5,-8.5 24.7,15.2 z"
       class="g7_2"
       id="path451"
       inkscape:connector-curvature="0"
       style="fill:#f9f5e6" />
    <path
       d="m 517.5,994.9 c -2.9,1.2 -7,1.1 -11,-0.8 -4.1,-1.8 -6.8,-4.7 -7.8,-7.7 -1.5,-4.5 -0.1,-8.6 2.4,-14.2 l 10.6,-23.2 9.8,4.5 -10.6,23.2 c -1.7,3.9 -2,6 0.3,7.1 2.3,1 3.8,-0.6 5.5,-4.5 l 10.6,-23.1 9.8,4.4 -10.6,23.2 c -2.5,5.6 -4.7,9.4 -9,11.1 z"
       class="g7_2"
       id="path453"
       inkscape:connector-curvature="0"
       style="fill:#f9f5e6" />
    <path
       d="m 559.8,1012.8 -2.7,-24.3 -6.6,21.4 -10.3,-3.2 12.4,-40.2 10.3,3.2 -5.5,17.9 14.1,-15.2 11.8,3.6 -15.2,15.4 3,24.9 z"
       class="g7_2"
       id="path455"
       inkscape:connector-curvature="0"
       style="fill:#f9f5e6" />
    <path
       d="m 610.1,991.8 c -5.5,-0.9 -10.5,2.9 -11.4,8.7 -1,5.8 2.5,11 8.1,11.9 5.6,0.9 10.4,-3 11.4,-8.7 0.9,-5.7 -2.5,-11 -8.1,-11.9 m 9.1,29.2 c -4.1,2.8 -9.2,3.9 -14.4,3 -5.2,-0.8 -9.6,-3.5 -12.6,-7.4 -4,-5.1 -5.6,-11.5 -4.5,-17.9 1,-6.4 4.5,-11.9 9.9,-15.5 4.1,-2.7 9.1,-3.8 14.3,-2.9 5.2,0.8 9.7,3.5 12.7,7.3 4,5.2 5.6,11.5 4.6,17.9 -1.1,6.4 -4.6,11.9 -10,15.5 z"
       class="g7_2"
       id="path457"
       inkscape:connector-curvature="0"
       style="fill:#f9f5e6" />
    <path
       d="m 681.2,1028.2 -8.5,-0.1 -7.2,-19.1 -7.7,18.8 -8.2,-0.1 -5,-42.2 10.8,0.2 1.7,19.6 8.8,-19.8 8,20.1 2.8,-19.6 10.6,0.2 z"
       class="g7_2"
       id="path459"
       inkscape:connector-curvature="0"
       style="fill:#f9f5e6" />
    <path
       d="m 706.2,1026.1 -4.7,-41.8 10.7,-1.2 4.7,41.8 z"
       class="g7_2"
       id="path461"
       inkscape:connector-curvature="0"
       style="fill:#f9f5e6" />
    <path
       d="m 748.4,989.4 -0.9,14.7 8.3,-1.9 z m 15.3,26.6 -2.5,-4.2 -14.3,3.3 -0.5,4.9 -10.9,2.5 4.7,-44.2 11.8,-2.8 22.8,38 z"
       class="g7_2"
       id="path463"
       inkscape:connector-curvature="0"
       style="fill:#f9f5e6" />
    <path
       d="m 817.1,998.2 -20.8,-11.5 6.6,17 -10,3.9 -15.2,-39.3 4.4,-1.7 21,11.6 -6.6,-17.2 10,-3.8 15.2,39.2 z"
       class="g7_2"
       id="path465"
       inkscape:connector-curvature="0"
       style="fill:#f9f5e6" />
    <path
       d="m 859.8,977.1 -19.3,-15 10.8,19.6 -9.4,5.2 -20.3,-36.9 9.4,-5.2 9,16.4 -1.1,-20.7 10.9,-5.9 0.4,21.6 20,15.1 z"
       class="g7_2"
       id="path467"
       inkscape:connector-curvature="0"
       style="fill:#f9f5e6" />
    <path
       d="m 884.5,961.7 -24,-34.6 8.8,-6.1 24,34.5 z"
       class="g7_2"
       id="path469"
       inkscape:connector-curvature="0"
       style="fill:#f9f5e6" />
  </g>
</svg>
