<?xml version="1.0" encoding="UTF-8" standalone="no"?>
<svg
   xmlns:dc="http://purl.org/dc/elements/1.1/"
   xmlns:cc="http://creativecommons.org/ns#"
   xmlns:rdf="http://www.w3.org/1999/02/22-rdf-syntax-ns#"
   xmlns:svg="http://www.w3.org/2000/svg"
   xmlns="http://www.w3.org/2000/svg"
   xmlns:sodipodi="http://sodipodi.sourceforge.net/DTD/sodipodi-0.dtd"
   xmlns:inkscape="http://www.inkscape.org/namespaces/inkscape"
   version="1.0"
   width="213.43082"
   height="88.749115"
   viewBox="0 0 2134.3082 887.49115"
   preserveAspectRatio="xMidYMid meet"
   id="svg100"
   sodipodi:docname="planner.svg"
   inkscape:version="0.92.4 (5da689c313, 2019-01-14)">
  <metadata
     id="metadata106">
    <rdf:RDF>
      <cc:Work
         rdf:about="">
        <dc:format>image/svg+xml</dc:format>
        <dc:type
           rdf:resource="http://purl.org/dc/dcmitype/StillImage" />
      </cc:Work>
    </rdf:RDF>
  </metadata>
  <defs
     id="defs104" />
  <sodipodi:namedview
     pagecolor="#ffffff"
     bordercolor="#666666"
     borderopacity="1"
     objecttolerance="10"
     gridtolerance="10"
     guidetolerance="10"
     inkscape:pageopacity="0"
     inkscape:pageshadow="2"
     inkscape:window-width="1920"
     inkscape:window-height="1017"
     id="namedview102"
     showgrid="false"
     inkscape:zoom="3.2666667"
     inkscape:cx="89.813618"
     inkscape:cy="24.385478"
     inkscape:window-x="-8"
     inkscape:window-y="-8"
     inkscape:window-maximized="1"
     inkscape:current-layer="svg100" />
  <rect
     style="fill:#42ab88;fill-opacity:1;stroke-width:10"
     id="rect108"
     width="2134.3081"
     height="887.49115"
     x="0"
     y="-2.8421709e-14" />
  <g
     id="layer101"
     transform="translate(17.154053,238.74558)"
     style="fill:#213e34;stroke:none">
    <path
       d="M 0,205 V 0 H 1050 2100 V 205 410 H 1050 0 Z"
       id="path2"
       inkscape:connector-curvature="0" />
  </g>
  <g
     id="layer102"
     transform="translate(17.154053,238.74558)"
     style="fill:#103751;stroke:none">
    <path
       d="M 0,205 V 0 H 1050 2100 V 205 410 H 1050 0 Z m 77,169 c -3,-3 -12,-4 -19,-1 -8,3 -5,6 6,6 11,1 17,-2 13,-5 z m 421,-1 c -27,-2 -69,-2 -95,0 -27,2 -5,3 47,3 52,0 74,-1 48,-3 z m 109,0 c -4,-3 -10,-3 -14,0 -3,4 0,7 7,7 7,0 10,-3 7,-7 z m 250,0 c -4,-3 -10,-3 -14,0 -3,4 0,7 7,7 7,0 10,-3 7,-7 z m 90,1 c -3,-3 -12,-4 -19,-1 -8,3 -5,6 6,6 11,1 17,-2 13,-5 z m 150,-1 c -4,-3 -10,-3 -14,0 -3,4 0,7 7,7 7,0 10,-3 7,-7 z m 120,0 c -4,-3 -10,-3 -14,0 -3,4 0,7 7,7 7,0 10,-3 7,-7 z m 220,1 c -3,-3 -12,-4 -19,-1 -8,3 -5,6 6,6 11,1 17,-2 13,-5 z m 251,-1 c -26,-2 -71,-2 -100,0 -29,2 -8,3 47,3 55,0 79,-1 53,-3 z m 139,0 c -4,-3 -10,-3 -14,0 -3,4 0,7 7,7 7,0 10,-3 7,-7 z m 200,0 c -4,-3 -10,-3 -14,0 -3,4 0,7 7,7 7,0 10,-3 7,-7 z M 990,160 c 8,-5 11,-10 5,-10 -5,0 -17,5 -25,10 -8,5 -10,10 -5,10 6,0 17,-5 25,-10 z"
       id="path5"
       inkscape:connector-curvature="0" />
  </g>
  <g
     id="layer103"
     transform="translate(17.154053,238.74558)"
     style="fill:#1f4340;stroke:none">
    <path
       d="M 0,205 V 0 H 1050 2100 V 205 410 H 1050 0 Z m 77,169 c -3,-3 -12,-4 -19,-1 -8,3 -5,6 6,6 11,1 17,-2 13,-5 z m 421,-1 c -27,-2 -69,-2 -95,0 -27,2 -5,3 47,3 52,0 74,-1 48,-3 z m 109,0 c -4,-3 -10,-3 -14,0 -3,4 0,7 7,7 7,0 10,-3 7,-7 z m 250,0 c -4,-3 -10,-3 -14,0 -3,4 0,7 7,7 7,0 10,-3 7,-7 z m 95,-93 c 2,-55 0,-100 -4,-100 -5,0 -8,42 -8,94 0,66 -4,96 -12,99 -8,3 -7,6 4,6 14,1 17,-13 20,-99 z m 145,93 c -4,-3 -10,-3 -14,0 -3,4 0,7 7,7 7,0 10,-3 7,-7 z m 120,0 c -4,-3 -10,-3 -14,0 -3,4 0,7 7,7 7,0 10,-3 7,-7 z m 220,1 c -3,-3 -12,-4 -19,-1 -8,3 -5,6 6,6 11,1 17,-2 13,-5 z m 251,-1 c -26,-2 -71,-2 -100,0 -29,2 -8,3 47,3 55,0 79,-1 53,-3 z m 139,0 c -4,-3 -10,-3 -14,0 -3,4 0,7 7,7 7,0 10,-3 7,-7 z m 200,0 c -4,-3 -10,-3 -14,0 -3,4 0,7 7,7 7,0 10,-3 7,-7 z M 1097,163 c -4,-3 -7,0 -7,7 0,7 3,10 7,7 3,-4 3,-10 0,-14 z m -97,-8 c 16,-9 19,-14 9,-15 -8,0 -24,7 -35,15 -24,18 -7,19 26,0 z m -53,-27 c -3,-8 -6,-5 -6,6 -1,11 2,17 5,13 3,-3 4,-12 1,-19 z"
       id="path8"
       inkscape:connector-curvature="0" />
  </g>
  <g
     id="layer104"
     transform="translate(17.154053,238.74558)"
     style="fill:#06386a;stroke:none">
    <path
       d="M 0,205 V 0 H 1050 2100 V 205 410 H 1050 0 Z m 77,169 c -3,-3 -12,-4 -19,-1 -8,3 -5,6 6,6 11,1 17,-2 13,-5 z m 421,-1 c -27,-2 -69,-2 -95,0 -27,2 -5,3 47,3 52,0 74,-1 48,-3 z m 109,0 c -4,-3 -10,-3 -14,0 -3,4 0,7 7,7 7,0 10,-3 7,-7 z m 250,0 c -4,-3 -10,-3 -14,0 -3,4 0,7 7,7 7,0 10,-3 7,-7 z m 93,-85 c 0,-51 4,-98 8,-104 4,-6 21,-18 37,-27 18,-10 23,-16 14,-17 -9,0 -28,9 -43,21 -25,19 -26,25 -26,114 0,65 -4,95 -12,98 -8,3 -6,6 5,6 15,1 17,-10 17,-91 z m 158,-4 c 1,-50 -1,-100 -5,-112 -5,-13 -7,23 -5,84 3,82 1,109 -9,116 -11,8 -11,9 1,5 12,-3 16,-24 18,-93 z m 109,89 c -4,-3 -10,-3 -14,0 -3,4 0,7 7,7 7,0 10,-3 7,-7 z m 220,1 c -3,-3 -12,-4 -19,-1 -8,3 -5,6 6,6 11,1 17,-2 13,-5 z m 251,-1 c -26,-2 -71,-2 -100,0 -29,2 -8,3 47,3 55,0 79,-1 53,-3 z m 139,0 c -4,-3 -10,-3 -14,0 -3,4 0,7 7,7 7,0 10,-3 7,-7 z m 200,0 c -4,-3 -10,-3 -14,0 -3,4 0,7 7,7 7,0 10,-3 7,-7 z M 1047,153 c -4,-3 -10,-3 -14,0 -3,4 0,7 7,7 7,0 10,-3 7,-7 z M 947,128 c -3,-8 -6,-5 -6,6 -1,11 2,17 5,13 3,-3 4,-12 1,-19 z"
       id="path11"
       inkscape:connector-curvature="0" />
  </g>
  <g
     id="layer105"
     transform="translate(17.154053,238.74558)"
     style="fill:#24483c;stroke:none">
    <path
       d="M 0,205 V 0 H 1050 2100 V 205 410 H 1050 0 Z m 77,169 c -3,-3 -12,-4 -19,-1 -8,3 -5,6 6,6 11,1 17,-2 13,-5 z m 421,-1 c -27,-2 -69,-2 -95,0 -27,2 -5,3 47,3 52,0 74,-1 48,-3 z m 109,0 c -4,-3 -10,-3 -14,0 -3,4 0,7 7,7 7,0 10,-3 7,-7 z m 250,0 c -4,-3 -10,-3 -14,0 -3,4 0,7 7,7 7,0 10,-3 7,-7 z m 93,-87 c 0,-71 4,-98 15,-110 22,-22 52,-28 75,-16 18,10 20,20 20,109 0,83 3,100 17,105 29,12 35,-10 31,-114 -3,-97 -4,-103 -31,-126 -32,-27 -60,-30 -99,-10 -23,12 -27,12 -32,0 -3,-8 -12,-14 -21,-14 -13,0 -15,20 -15,128 0,130 2,142 27,142 10,0 13,-22 13,-94 z m 267,87 c -4,-3 -10,-3 -14,0 -3,4 0,7 7,7 7,0 10,-3 7,-7 z m 220,1 c -3,-3 -12,-4 -19,-1 -8,3 -5,6 6,6 11,1 17,-2 13,-5 z m 251,-1 c -26,-2 -71,-2 -100,0 -29,2 -8,3 47,3 55,0 79,-1 53,-3 z m 139,0 c -4,-3 -10,-3 -14,0 -3,4 0,7 7,7 7,0 10,-3 7,-7 z m 200,0 c -4,-3 -10,-3 -14,0 -3,4 0,7 7,7 7,0 10,-3 7,-7 z"
       id="path14"
       inkscape:connector-curvature="0" />
  </g>
  <g
     id="layer106"
     transform="translate(17.154053,238.74558)"
     style="fill:#2a5b4b;stroke:none">
    <path
       d="M 0,205 V 0 H 1050 2100 V 205 410 H 1050 0 Z m 77,169 c -3,-3 -12,-4 -19,-1 -8,3 -5,6 6,6 11,1 17,-2 13,-5 z m 426,-1 c -29,-2 -77,-2 -105,0 -29,2 -6,3 52,3 58,0 81,-1 53,-3 z m 110,0 c -7,-2 -19,-2 -25,0 -7,3 -2,5 12,5 14,0 19,-2 13,-5 z m 250,0 c -7,-2 -19,-2 -25,0 -7,3 -2,5 12,5 14,0 19,-2 13,-5 z m 87,-86 c 0,-77 3,-97 18,-109 26,-23 51,-29 72,-18 17,9 20,24 22,113 3,98 4,102 26,105 l 24,4 -4,-112 c -3,-108 -4,-113 -31,-136 -32,-27 -60,-30 -99,-10 -23,12 -27,12 -32,0 -3,-8 -12,-14 -21,-14 -13,0 -15,20 -15,128 0,130 2,142 27,142 10,0 13,-22 13,-93 z m 267,87 c -3,-3 -12,-4 -19,-1 -8,3 -5,6 6,6 11,1 17,-2 13,-5 z m 216,-1 c -7,-2 -19,-2 -25,0 -7,3 -2,5 12,5 14,0 19,-2 13,-5 z m 260,0 c -29,-2 -78,-2 -110,0 -32,2 -8,3 52,3 61,0 87,-1 58,-3 z m 144,1 c -3,-3 -12,-4 -19,-1 -8,3 -5,6 6,6 11,1 17,-2 13,-5 z m 196,-1 c -7,-2 -19,-2 -25,0 -7,3 -2,5 12,5 14,0 19,-2 13,-5 z M 747,283 c -20,-2 -52,-2 -70,0 -17,2 0,4 38,4 39,0 53,-2 32,-4 z M 227,233 c -4,-3 -10,-3 -14,0 -3,4 0,7 7,7 7,0 10,-3 7,-7 z m 34,-20 c 13,-16 12,-17 -3,-4 -10,7 -18,15 -18,17 0,8 8,3 21,-13 z m 1744,-3 c 3,-5 4,-10 1,-10 -3,0 -8,5 -11,10 -3,6 -4,10 -1,10 3,0 8,-4 11,-10 z M 163,73 c -13,-2 -35,-2 -50,0 -16,2 -5,4 22,4 28,0 40,-2 28,-4 z m 1530,0 c -24,-2 -62,-2 -85,0 -24,2 -5,4 42,4 47,0 66,-2 43,-4 z m 220,0 c -13,-2 -35,-2 -50,0 -16,2 -5,4 22,4 28,0 40,-2 28,-4 z"
       id="path17"
       inkscape:connector-curvature="0" />
  </g>
  <g
     id="layer107"
     transform="translate(17.154053,238.74558)"
     style="fill:#2e6955;stroke:none">
    <path
       d="M 0,205 V 0 H 1050 2100 V 205 410 H 1050 0 Z m 83,168 c -7,-2 -19,-2 -25,0 -7,3 -2,5 12,5 14,0 19,-2 13,-5 z m 420,0 c -29,-2 -77,-2 -105,0 -29,2 -6,3 52,3 58,0 81,-1 53,-3 z m 110,0 c -7,-2 -19,-2 -25,0 -7,3 -2,5 12,5 14,0 19,-2 13,-5 z m 250,0 c -7,-2 -19,-2 -25,0 -7,3 -2,5 12,5 14,0 19,-2 13,-5 z m 95,-93 c 1,-51 8,-100 14,-107 7,-9 26,-13 47,-11 l 36,3 5,105 c 5,100 6,105 28,108 22,3 22,2 22,-103 0,-104 -1,-107 -29,-136 -32,-32 -62,-36 -103,-15 -23,12 -27,12 -32,0 -3,-8 -12,-14 -21,-14 -13,0 -15,20 -15,128 0,71 3,132 7,136 4,4 14,5 23,4 12,-3 16,-22 18,-98 z m 265,93 c -7,-2 -19,-2 -25,0 -7,3 -2,5 12,5 14,0 19,-2 13,-5 z m 222,-161 1,-162 -3,159 c -3,156 -4,160 -26,164 -19,5 -19,5 3,4 l 25,-2 z m 248,161 c -29,-2 -78,-2 -110,0 -32,2 -8,3 52,3 61,0 87,-1 58,-3 z m 140,0 c -7,-2 -19,-2 -25,0 -7,3 -2,5 12,5 14,0 19,-2 13,-5 z m 200,0 c -7,-2 -19,-2 -25,0 -7,3 -2,5 12,5 14,0 19,-2 13,-5 z M 747,283 c -20,-2 -52,-2 -70,0 -17,2 0,4 38,4 39,0 53,-2 32,-4 z M 158,243 c -16,-2 -40,-2 -55,0 -16,2 -3,4 27,4 30,0 43,-2 28,-4 z m 1699,0 c -4,-3 -10,-3 -14,0 -3,4 0,7 7,7 7,0 10,-3 7,-7 z M 227,233 c -4,-3 -10,-3 -14,0 -3,4 0,7 7,7 7,0 10,-3 7,-7 z m 38,-23 c 10,-11 16,-20 13,-20 -3,0 -13,9 -23,20 -10,11 -16,20 -13,20 3,0 13,-9 23,-20 z m 1332,14 c -3,-3 -12,-4 -19,-1 -8,3 -5,6 6,6 11,1 17,-2 13,-5 z m 409,-16 19,-23 -25,20 c -14,11 -27,21 -29,22 -2,2 0,3 6,3 5,0 18,-10 29,-22 z m 21,-45 c -4,-3 -7,0 -7,7 0,7 3,10 7,7 3,-4 3,-10 0,-14 z M 287,153 c -4,-3 -7,0 -7,7 0,7 3,10 7,7 3,-4 3,-10 0,-14 z m 430,-50 c -4,-3 -7,0 -7,7 0,7 3,10 7,7 3,-4 3,-10 0,-14 z M 163,73 c -13,-2 -35,-2 -50,0 -16,2 -5,4 22,4 28,0 40,-2 28,-4 z m 1540,0 c -23,-2 -64,-2 -90,0 -26,2 -7,3 42,3 50,0 71,-1 48,-3 z m 210,0 c -13,-2 -35,-2 -50,0 -16,2 -5,4 22,4 28,0 40,-2 28,-4 z"
       id="path20"
       inkscape:connector-curvature="0" />
  </g>
  <g
     id="layer108"
     transform="translate(17.154053,238.74558)"
     style="fill:#3c9779;stroke:none">
    <path
       d="M 0,205 V 0 H 1050 2100 V 205 410 H 1050 0 Z m 83,168 c -7,-2 -21,-2 -30,0 -10,3 -4,5 12,5 17,0 24,-2 18,-5 z m 420,0 c -29,-2 -78,-2 -110,0 -32,2 -8,3 52,3 61,0 87,-1 58,-3 z m 137,-40 14,-42 66,-4 65,-4 -69,1 -69,1 -14,42 c -10,29 -21,43 -36,47 -18,3 -18,4 3,3 20,-2 28,-11 40,-44 z m 223,40 c -7,-2 -19,-2 -25,0 -7,3 -2,5 12,5 14,0 19,-2 13,-5 z m 97,-85 c 0,-103 12,-128 61,-128 34,0 38,11 41,130 3,80 4,85 26,88 22,3 22,2 22,-107 0,-97 -2,-113 -20,-131 -26,-26 -67,-35 -101,-23 -15,6 -33,7 -40,2 -8,-5 -22,-9 -31,-9 -16,0 -18,13 -18,128 0,71 3,132 7,135 3,4 17,7 30,7 22,0 23,-2 23,-92 z m 263,85 c -7,-2 -21,-2 -30,0 -10,3 -4,5 12,5 17,0 24,-2 18,-5 z m 225,-165 -2,-173 -3,167 c -3,163 -4,167 -26,171 -19,4 -18,4 6,6 l 27,1 z m 302,155 c 0,-13 -3,-14 -8,-6 -5,8 -44,13 -112,16 l -105,3 113,2 c 101,2 112,0 112,-15 z m 100,-47 v -65 l 33,-4 c 31,-4 31,-4 -5,-5 l -38,-2 v 64 c 0,59 -2,65 -22,69 -20,4 -19,4 5,6 27,1 27,1 27,-63 z m 188,57 c -10,-2 -26,-2 -35,0 -10,3 -2,5 17,5 19,0 27,-2 18,-5 z M 173,243 c -18,-2 -48,-2 -65,0 -18,2 -4,4 32,4 36,0 50,-2 33,-4 z m 1482,-16 70,-3 -77,-2 c -68,-2 -78,0 -78,16 0,11 3,13 8,5 4,-7 38,-14 77,-16 z m -1404,0 c 19,-14 39,-51 39,-69 -1,-7 -7,1 -15,19 -7,17 -26,38 -42,47 -15,8 -21,15 -13,15 8,0 22,-5 31,-12 z m 448,-58 c 13,-33 21,-62 19,-64 -2,-2 -15,27 -30,65 -14,39 -22,68 -18,65 4,-2 17,-32 29,-66 z m 1318,31 c 7,-8 12,-22 12,-30 0,-8 -4,-5 -9,7 -5,12 -18,28 -30,35 -11,7 -20,17 -20,22 0,9 28,-11 47,-34 z m -124,-123 42,-4 -47,-1 -48,-2 2,68 2,67 3,-62 4,-62 z m -316,51 c -3,-8 -6,-5 -6,6 -1,11 2,17 5,13 3,-3 4,-12 1,-19 z m 86,-51 82,-3 -87,-2 c -85,-2 -88,-1 -87,21 1,16 3,17 6,5 4,-14 19,-18 86,-21 z M 168,73 c -16,-2 -40,-2 -55,0 -16,2 -3,4 27,4 30,0 43,-2 28,-4 z"
       id="path23"
       inkscape:connector-curvature="0" />
  </g>
  <g
     id="layer109"
     transform="translate(17.154053,238.74558)"
     style="fill:#3fa180;stroke:none">
    <path
       d="M 0,205 V 0 H 1050 2100 V 205 410 H 1050 0 Z m 98,109 3,-62 70,-4 c 52,-3 74,-9 89,-24 24,-24 43,-81 29,-89 -5,-4 -9,1 -9,9 0,58 -57,96 -144,96 H 80 v 64 c 0,59 -2,65 -22,69 -16,4 -13,5 7,4 30,-2 30,-3 33,-63 z m 462,44 c -1,-21 -2,-22 -14,-6 -10,14 -33,18 -112,21 l -99,3 113,2 c 110,2 112,2 112,-20 z m 82,-20 15,-43 64,-6 64,-6 -71,-1 -71,-2 -13,44 c -10,37 -17,46 -39,49 -23,4 -23,4 6,6 28,1 33,-3 45,-41 z m 238,34 c 0,-5 -13,-7 -30,-4 -16,2 -30,6 -30,8 0,2 14,4 30,4 17,0 30,-4 30,-8 z m 80,-87 c 0,-89 1,-95 25,-111 13,-8 32,-14 42,-12 16,3 19,17 23,108 l 5,105 33,3 34,3 -4,-111 c -3,-108 -4,-113 -30,-135 -25,-21 -37,-24 -108,-23 l -80,1 v 127 c 0,70 3,130 7,133 3,4 17,7 30,7 22,0 23,-2 23,-95 z m 280,-24 c 0,-69 -4,-122 -10,-126 -6,-4 -10,36 -10,114 0,116 -1,120 -22,124 -17,3 -14,5 10,6 l 32,1 z m 208,-53 -2,-173 -3,167 -3,167 -28,4 c -25,4 -24,4 6,6 l 32,1 z m 301,150 c -1,-17 -3,-18 -6,-6 -4,15 -21,18 -116,21 l -112,3 118,2 c 116,2 117,2 116,-20 z m 101,-42 v -65 l 33,-4 c 31,-4 31,-4 -5,-5 l -38,-2 v 64 c 0,63 -1,65 -27,69 -26,4 -26,4 5,6 l 32,1 z m 200,56 c 0,-5 -13,-7 -30,-4 -16,2 -30,6 -30,8 0,2 14,4 30,4 17,0 30,-4 30,-8 z M 400,185 c 0,-90 -4,-145 -10,-145 -6,0 -10,55 -10,145 0,90 4,145 10,145 6,0 10,-55 10,-145 z m 1256,45 c 70,0 74,-1 74,-22 -1,-21 -2,-22 -14,-5 -10,13 -28,17 -80,17 h -66 l 2,58 2,57 3,-52 4,-53 z m -809,53 c -4,-3 -7,0 -7,7 0,7 3,10 7,7 3,-4 3,-10 0,-14 z m -20,-50 c -4,-3 -7,0 -7,7 0,7 3,10 7,7 3,-4 3,-10 0,-14 z M 699,184 c 19,-51 28,-94 16,-83 -11,12 -54,139 -46,139 4,0 18,-25 30,-56 z m 1328,5 c 15,-29 17,-83 3,-74 -5,3 -10,19 -10,35 0,17 -10,37 -25,51 -13,13 -25,28 -25,33 0,15 44,-20 57,-45 z M 100,139 V 78 l 49,4 c 27,1 47,0 44,-4 -2,-5 -29,-8 -59,-8 H 80 v 65 c 0,37 4,65 10,65 6,0 10,-27 10,-61 z M 1902,85 c 25,0 44,-3 41,-7 -2,-5 -26,-8 -54,-8 h -49 l 2,68 1,67 6,-60 6,-60 z m -236,-5 c 81,0 84,-1 84,-22 -1,-21 -2,-22 -14,-5 -11,13 -29,17 -90,17 h -76 l 2,58 2,57 3,-52 4,-53 z m -869,73 c -4,-3 -7,0 -7,7 0,7 3,10 7,7 3,-4 3,-10 0,-14 z M 287,103 c -4,-3 -7,0 -7,7 0,7 3,10 7,7 3,-4 3,-10 0,-14 z m 490,0 c -4,-3 -7,0 -7,7 0,7 3,10 7,7 3,-4 3,-10 0,-14 z M 757,53 c -4,-3 -7,0 -7,7 0,7 3,10 7,7 3,-4 3,-10 0,-14 z"
       id="path26"
       inkscape:connector-curvature="0" />
  </g>
  <g
     id="layer110"
     transform="translate(17.154053,238.74558)"
     style="fill:#40a483;stroke:none">
    <path
       d="M 0,205 V 0 H 1050 2100 V 205 410 H 1050 0 Z m 98,120 c 2,-33 8,-62 14,-66 5,-4 33,-7 61,-8 86,-2 137,-57 121,-129 l -8,-37 -3,35 c -9,87 -49,120 -147,120 H 80 v 65 c 0,59 -2,65 -21,65 -12,0 -17,4 -14,11 4,5 17,9 28,7 19,-3 22,-10 25,-63 z m 460,35 c 2,-23 1,-24 -11,-7 -12,14 -31,17 -111,17 -64,0 -95,3 -91,10 4,7 46,10 108,8 101,-3 102,-3 105,-28 z m 73,10 c 5,-8 13,-27 19,-42 9,-26 13,-28 69,-28 33,0 63,-4 66,-10 4,-6 -21,-10 -68,-10 h -74 l -13,45 c -11,38 -17,45 -37,45 -14,0 -22,4 -18,11 9,14 46,7 56,-11 z m 246,4 c 2,-7 -8,-9 -27,-6 -16,2 -27,8 -24,14 8,12 46,6 51,-8 z m 81,-69 c 3,-104 7,-120 34,-131 50,-22 57,-11 60,98 3,106 14,129 52,115 13,-5 16,-23 16,-111 0,-97 -2,-106 -26,-135 -25,-30 -27,-30 -110,-29 l -84,1 v 127 c 0,129 7,154 40,148 12,-3 16,-21 18,-83 z m 280,-39 c 2,-73 -1,-123 -8,-130 -7,-7 -10,28 -10,112 0,116 -1,122 -21,122 -12,0 -17,4 -14,11 4,5 17,9 28,7 21,-3 22,-9 25,-122 z m 207,-56 1,-175 -3,168 -3,167 h -26 c -15,0 -23,4 -19,11 4,5 17,9 28,7 22,-3 22,-7 22,-178 z m 302,150 c 1,-14 0,-18 -3,-7 -5,15 -19,17 -115,17 -73,0 -108,3 -104,10 4,7 48,10 113,8 106,-3 107,-3 109,-28 z m 103,-40 5,-65 h 32 c 17,0 29,-3 26,-7 -2,-5 -20,-8 -39,-8 h -34 v 65 c 0,63 -1,65 -26,65 -15,0 -23,4 -19,11 4,5 17,9 28,7 19,-3 23,-11 27,-68 z m 197,54 c 2,-7 -8,-9 -27,-6 -16,2 -27,8 -24,14 8,12 46,6 51,-8 z M 859,311 c -6,-18 -13,-30 -15,-28 -2,2 1,18 7,36 6,18 13,30 15,28 2,-2 -1,-18 -7,-36 z M 400,185 c 0,-90 -4,-145 -10,-145 -6,0 -10,55 -10,145 0,90 4,145 10,145 6,0 10,-55 10,-145 z m 1258,47 c 67,-3 72,-4 72,-25 -1,-20 -2,-21 -14,-4 -10,13 -28,17 -80,17 h -66 l 2,58 1,57 6,-50 6,-50 z m 362,78 c -6,-11 -13,-20 -16,-20 -2,0 0,9 6,20 6,11 13,20 16,20 2,0 0,-9 -6,-20 z M 831,243 c -12,-20 -14,-14 -5,12 4,9 9,14 11,11 3,-2 0,-13 -6,-23 z m 1156,11 c -4,-4 7,-22 23,-41 21,-24 30,-44 30,-69 0,-21 -4,-33 -10,-29 -5,3 -10,19 -10,34 0,17 -10,39 -26,54 -23,24 -28,57 -8,57 4,0 4,-3 1,-6 z M 701,185 c 17,-46 26,-95 14,-84 -13,13 -54,140 -44,137 6,-2 20,-26 30,-53 z m 108,-4 c -6,-18 -13,-30 -15,-28 -2,2 1,18 7,36 6,18 13,30 15,28 2,-2 -1,-18 -7,-36 z M 100,145 V 90 h 51 c 31,0 48,-4 44,-10 -3,-5 -31,-10 -61,-10 H 80 v 65 c 0,37 4,65 10,65 6,0 10,-25 10,-55 z M 1905,92 c 42,2 51,0 43,-9 -6,-7 -32,-13 -59,-13 h -49 l 2,68 2,67 3,-58 4,-59 z m -242,-4 c 79,-3 82,-4 85,-28 2,-23 1,-24 -11,-7 -11,13 -30,17 -91,17 h -76 l 2,58 c 2,56 2,56 5,10 l 4,-47 z m -343,68 c 0,-3 -5,-8 -12,-12 -7,-4 -8,-3 -4,4 7,12 16,16 16,8 z M 771,84 C 760,57 751,39 751,45 c -1,14 31,96 36,92 2,-3 -5,-26 -16,-53 z m 529,42 c 0,-3 -5,-8 -12,-12 -7,-4 -8,-3 -4,4 7,12 16,16 16,8 z m -20,-30 c 0,-3 -5,-8 -12,-12 -7,-4 -8,-3 -4,4 7,12 16,16 16,8 z m 747,-13 c -4,-3 -7,0 -7,7 0,7 3,10 7,7 3,-4 3,-10 0,-14 z"
       id="path29"
       inkscape:connector-curvature="0" />
  </g>
  <g
     id="layer111"
     transform="translate(17.154053,238.74558)"
     style="fill:#42ab88;stroke:none">
    <path
       d="M 0,205 V 0 H 1050 2100 V 205 410 H 1050 0 Z m 98,118 3,-63 h 50 c 60,0 111,-20 133,-51 24,-35 21,-103 -7,-131 -12,-13 -16,-17 -9,-8 15,21 16,81 1,114 -16,35 -67,56 -133,56 H 80 v 65 c 0,63 -1,65 -26,65 -15,0 -23,4 -19,11 4,5 19,9 33,7 26,-3 27,-6 30,-65 z m 550,20 14,-43 h 58 c 32,0 62,-4 65,-10 4,-6 -21,-10 -68,-10 h -74 l -13,45 c -11,40 -16,45 -41,45 -23,0 -29,-5 -30,-22 v -23 l -11,23 c -10,21 -17,22 -115,22 -69,0 -102,3 -98,10 4,7 59,10 153,8 l 145,-3 z m 234,42 C 887,379 779,84 760,51 c -36,-61 16,88 107,307 3,8 -5,12 -27,12 -18,0 -29,4 -25,10 6,10 58,14 67,5 z m 86,-94 c 1,-52 8,-101 14,-108 6,-7 23,-13 39,-13 h 29 v 94 c 0,115 4,126 41,126 h 29 V 275 c 0,-109 -1,-117 -24,-140 -22,-22 -32,-24 -110,-24 l -86,1 v 132 c 0,73 3,136 7,140 4,4 19,6 33,4 25,-3 25,-5 28,-97 z m 270,-25 c 2,-73 -1,-123 -8,-130 -7,-7 -10,28 -10,112 v 122 h -26 c -15,0 -23,4 -19,11 4,5 19,9 33,7 l 27,-3 z m 220,-50 c 1,-106 -1,-173 -8,-180 -7,-7 -10,45 -10,162 v 172 h -26 c -15,0 -23,4 -19,11 4,5 19,9 33,7 l 27,-3 z m 300,147 c 2,-13 -1,-23 -7,-23 -6,0 -11,7 -11,15 0,12 -19,15 -111,15 -73,0 -108,3 -104,10 4,7 49,10 118,8 108,-3 112,-4 115,-25 z m 100,-40 c 3,-62 3,-63 32,-63 17,0 30,-4 30,-10 0,-5 -18,-10 -40,-10 h -40 v 65 c 0,63 -1,65 -26,65 -15,0 -23,4 -19,11 4,5 19,9 33,7 26,-3 27,-6 30,-65 z m 196,58 c 3,-4 -1,-17 -9,-27 -13,-16 -14,-17 -9,-1 5,14 0,17 -27,17 -26,0 -30,3 -19,10 19,12 57,13 64,1 z M 400,179 c 0,-97 -4,-148 -10,-144 -6,4 -10,65 -10,151 0,89 4,144 10,144 6,0 10,-57 10,-151 z m 1253,59 c 68,-3 72,-4 75,-28 2,-23 1,-24 -11,-7 -11,13 -29,17 -81,17 h -66 l 2,58 c 2,56 2,56 5,10 l 4,-47 z m 355,49 -24,-43 28,-28 c 22,-21 28,-36 28,-69 0,-23 -5,-49 -10,-57 -7,-11 -10,0 -10,36 0,42 -5,56 -25,75 -13,13 -25,27 -25,30 0,10 51,99 57,99 2,0 -6,-19 -19,-43 z m -637,-50 c -10,-9 -11,-8 -5,6 3,10 9,15 12,12 3,-3 0,-11 -7,-18 z M 703,191 c 16,-45 23,-101 12,-90 -2,3 -16,35 -30,72 -17,47 -21,67 -12,67 7,0 20,-22 30,-49 z m 657,25 c 0,-3 -5,-8 -12,-12 -7,-4 -8,-3 -4,4 7,12 16,16 16,8 z M 100,144 V 88 l 55,4 c 54,3 71,-4 39,-16 -9,-3 -38,-6 -65,-6 H 80 v 65 c 0,37 4,65 10,65 6,0 10,-25 10,-56 z m 1760,0 V 88 l 49,4 c 39,2 47,0 39,-9 -6,-7 -32,-13 -59,-13 h -49 v 65 c 0,37 4,65 10,65 6,0 10,-25 10,-56 z m -520,42 c 0,-3 -5,-8 -12,-12 -7,-4 -8,-3 -4,4 7,12 16,16 16,8 z m 323,-98 c 79,-3 82,-4 85,-28 2,-23 1,-24 -11,-7 -11,13 -30,17 -91,17 h -76 l 2,58 c 2,56 2,56 5,10 l 4,-47 z m -343,68 c 0,-3 -5,-8 -12,-12 -7,-4 -8,-3 -4,4 7,12 16,16 16,8 z m -36,-54 c -9,-16 -25,-39 -36,-53 l -20,-24 16,28 c 28,48 48,77 53,77 2,0 -3,-13 -13,-28 z"
       id="path32"
       inkscape:connector-curvature="0" />
  </g>
  <g
     id="layer112"
     transform="translate(32.154053,243.74558)"
     style="fill:#bfdfc8;stroke:none">
    <path
       d="M 30,200 V 30 h 85 c 122,0 165,26 165,99 0,74 -48,111 -144,111 H 80 v 65 c 0,63 -1,65 -25,65 H 30 Z M 216,175 C 236,148 233,113 210,90 195,75 177,70 135,70 H 80 v 66 66 l 61,-4 c 45,-3 65,-10 75,-23 z"
       id="path35"
       inkscape:connector-curvature="0" />
    <path
       d="M 330,200 V 30 h 25 25 v 150 150 h 86 c 74,0 85,2 80,16 -3,9 -6,18 -6,20 0,2 -47,4 -105,4 H 330 Z"
       id="path37"
       inkscape:connector-curvature="0" />
    <path
       d="M 580,318 C 681,50 688,35 713,32 c 16,-2 27,3 32,15 3,10 24,63 45,118 21,55 48,124 59,153 l 21,52 h -29 c -25,0 -30,-5 -42,-45 l -13,-45 h -72 -71 l -13,45 c -11,40 -16,45 -41,45 H 560 Z M 742,170 c -15,-38 -27,-68 -29,-66 -1,1 -14,32 -28,69 l -25,67 h 54 54 z"
       id="path39"
       inkscape:connector-curvature="0" />
    <path
       d="M 1170,200 V 30 h 28 c 24,0 37,15 107,123 l 80,122 3,-122 3,-123 h 24 25 v 170 170 h -27 c -25,0 -38,-15 -108,-123 l -80,-122 -3,123 -3,122 h -24 -25 z"
       id="path41"
       inkscape:connector-curvature="0" />
    <path
       d="M 1510,200 V 30 h 114 c 109,0 114,1 109,20 -5,18 -14,20 -84,20 h -79 v 55 55 h 74 c 69,0 74,1 69,20 -5,18 -14,20 -74,20 h -69 v 55 55 h 85 c 78,0 85,2 85,20 0,19 -7,20 -115,20 h -115 z"
       id="path43"
       inkscape:connector-curvature="0" />
    <path
       d="m 1788,200 -3,-170 h 87 c 78,0 89,2 117,26 27,22 31,32 31,74 0,38 -5,52 -27,75 l -28,27 38,69 37,69 h -29 c -25,0 -33,-8 -62,-65 -33,-62 -35,-65 -71,-65 h -38 v 65 c 0,62 -1,65 -25,65 h -24 z m 167,-20 c 20,-17 19,-69 -2,-92 -11,-13 -30,-18 -65,-18 h -48 v 66 67 l 50,-5 c 27,-3 56,-11 65,-18 z"
       id="path45"
       inkscape:connector-curvature="0" />
  </g>
  <g
     id="layer113"
     transform="translate(38.062805,244.50591)"
     style="fill:#c0e2ca;stroke:none">
    <path
       d="M 30,199 V 28 l 94,4 c 82,3 98,6 119,26 32,30 40,74 23,117 -19,44 -42,55 -120,55 H 80 v 70 c 0,68 -1,70 -25,70 H 30 Z m 178,-15 c 15,-10 22,-25 22,-49 0,-50 -21,-65 -91,-65 H 80 v 65 65 h 53 c 31,0 61,-6 75,-16 z"
       id="path48"
       inkscape:connector-curvature="0" />
    <path
       d="M 338,200 335,30 h 23 c 22,0 22,1 22,153 v 152 l 80,-3 c 75,-3 80,-2 80,17 0,20 -5,21 -100,21 h -99 z"
       id="path50"
       inkscape:connector-curvature="0" />
    <path
       d="m 570,364 c 0,-4 28,-81 62,-170 56,-145 65,-164 85,-164 13,0 23,5 23,10 0,6 27,81 60,167 33,85 60,157 60,160 0,2 -10,3 -22,1 -15,-2 -25,-15 -36,-45 l -14,-43 h -73 -73 l -18,45 c -11,31 -22,45 -35,45 -11,0 -19,-3 -19,-6 z M 770,235 c 0,-7 -50,-138 -54,-143 -4,-3 -56,128 -56,141 0,4 25,7 55,7 30,0 55,-2 55,-5 z"
       id="path52"
       inkscape:connector-curvature="0" />
    <path
       d="m 1180,216 c 0,-85 -3,-161 -6,-170 -5,-12 0,-16 19,-16 20,0 38,21 108,127 l 84,126 3,-126 c 3,-124 3,-127 25,-127 22,0 22,0 19,170 -4,220 -7,221 -126,38 l -86,-133 v 133 c 0,125 -1,132 -20,132 -19,0 -20,-7 -20,-154 z"
       id="path54"
       inkscape:connector-curvature="0" />
    <path
       d="M 1520,200 V 30 h 105 c 98,0 105,1 105,20 0,18 -7,20 -85,20 h -85 v 55 55 h 75 c 59,0 75,3 75,15 0,11 -17,15 -72,17 l -73,3 -3,58 -3,57 h 86 c 78,0 85,2 85,20 0,19 -7,20 -105,20 h -105 z"
       id="path56"
       inkscape:connector-curvature="0" />
    <path
       d="M 1790,200 V 30 h 75 c 86,0 125,15 143,55 21,45 15,84 -18,117 l -31,30 36,63 c 41,74 42,77 14,73 -15,-2 -34,-24 -58,-68 -36,-63 -38,-65 -76,-65 h -40 l -3,68 c -3,59 -5,67 -22,67 -19,0 -20,-8 -20,-170 z m 165,-25 c 29,-28 31,-51 9,-83 -13,-19 -24,-22 -75,-22 h -59 v 65 65 h 50 c 41,0 56,-5 75,-25 z"
       id="path58"
       inkscape:connector-curvature="0" />
  </g>
  <g
     id="layer114"
     transform="translate(38.095414,244.74558)"
     style="fill:#d5e7d1;stroke:none">
    <path
       d="M 30,199 V 28 l 94,4 c 82,3 98,6 119,26 32,30 40,74 23,117 -19,44 -42,55 -120,55 H 80 v 70 c 0,68 -1,70 -25,70 H 30 Z m 182,-16 c 22,-20 24,-76 2,-97 C 204,75 180,70 139,70 H 80 v 65 65 h 57 c 38,0 62,-5 75,-17 z"
       id="path61"
       inkscape:connector-curvature="0" />
    <path
       d="m 340,200 c 0,-163 1,-170 20,-170 19,0 20,7 20,153 v 152 h 77 c 66,0 78,3 81,18 3,15 -7,17 -97,17 H 340 Z"
       id="path63"
       inkscape:connector-curvature="0" />
    <path
       d="m 572,358 c 3,-7 31,-84 64,-170 52,-140 62,-158 82,-158 12,0 22,5 22,10 0,6 27,81 60,167 33,85 60,157 60,159 0,2 -9,4 -19,4 -14,0 -24,-13 -37,-45 l -17,-45 h -73 -72 l -18,45 c -12,32 -22,45 -36,45 -12,0 -18,-5 -16,-12 z M 770,233 c 0,-11 -51,-143 -55,-143 -4,0 -55,132 -55,143 0,4 25,7 55,7 30,0 55,-3 55,-7 z"
       id="path65"
       inkscape:connector-curvature="0" />
    <path
       d="m 1180,200 c 0,-219 4,-220 121,-43 l 84,126 3,-126 c 3,-124 3,-127 25,-127 22,0 22,0 19,170 -4,219 -7,220 -126,38 l -86,-133 v 133 c 0,125 -1,132 -20,132 -19,0 -20,-7 -20,-170 z"
       id="path67"
       inkscape:connector-curvature="0" />
    <path
       d="M 1520,200 V 30 h 105 c 98,0 105,1 105,20 0,18 -7,20 -85,20 h -85 v 55 55 h 75 c 59,0 75,3 75,15 0,11 -17,15 -72,17 l -73,3 v 59 59 l 83,-2 c 77,-2 82,-1 82,18 0,20 -6,21 -105,21 h -105 z"
       id="path69"
       inkscape:connector-curvature="0" />
    <path
       d="M 1790,200 V 30 h 69 c 86,0 128,14 146,51 24,46 19,87 -15,121 l -31,30 36,63 c 41,74 41,75 16,75 -13,0 -31,-21 -58,-67 -38,-66 -40,-68 -78,-68 h -40 l -3,68 c -3,59 -5,67 -22,67 -19,0 -20,-8 -20,-170 z m 169,-26 c 25,-32 26,-52 5,-82 -13,-19 -24,-22 -75,-22 h -59 v 65 65 h 54 c 47,0 57,-4 75,-26 z"
       id="path71"
       inkscape:connector-curvature="0" />
  </g>
  <g
     id="layer115"
     transform="translate(32.154053,243.74558)"
     style="fill:#e6efdb;stroke:none">
    <path
       d="M 40,200 V 30 h 70 c 118,0 160,29 160,108 0,67 -24,86 -117,92 l -78,5 -3,68 C 70,354 66,370 55,370 42,370 40,342 40,200 Z M 215,186 C 241,167 241,103 215,84 204,76 171,70 133,70 H 70 v 65 65 h 63 c 38,0 71,-6 82,-14 z"
       id="path74"
       inkscape:connector-curvature="0" />
    <path
       d="m 340,200 c 0,-163 1,-170 20,-170 19,0 20,7 20,155 v 155 h 80 c 64,0 80,3 80,15 0,12 -18,15 -100,15 H 340 Z"
       id="path76"
       inkscape:connector-curvature="0" />
    <path
       d="m 570,367 c 0,-1 29,-77 64,-167 48,-125 67,-165 80,-165 17,0 35,40 126,283 19,51 19,52 1,52 -14,0 -23,-12 -33,-42 l -15,-43 h -78 -78 l -14,43 c -11,30 -20,42 -34,42 -10,0 -19,-1 -19,-3 z M 750,169 c -15,-38 -31,-70 -35,-70 -5,0 -21,31 -36,70 l -27,71 h 63 63 z"
       id="path78"
       inkscape:connector-curvature="0" />
    <path
       d="m 1180,200 c 0,-218 3,-219 120,-41 46,71 88,127 92,125 4,-3 8,-61 8,-130 0,-104 2,-124 15,-124 13,0 15,26 15,170 0,218 -3,219 -120,39 l -85,-131 -3,131 c -2,123 -4,131 -22,131 -19,0 -20,-8 -20,-170 z"
       id="path80"
       inkscape:connector-curvature="0" />
    <path
       d="M 1520,200 V 30 h 106 c 95,0 105,2 102,18 -3,14 -16,17 -86,20 l -82,3 v 54 55 h 75 c 60,0 75,3 75,15 0,12 -15,15 -75,15 h -75 v 65 65 h 85 c 69,0 85,3 85,15 0,12 -18,15 -105,15 h -105 z"
       id="path82"
       inkscape:connector-curvature="0" />
    <path
       d="M 1790,200 V 30 h 71 c 94,0 135,19 150,71 14,44 -1,93 -32,110 -26,13 -24,22 16,90 19,33 35,62 35,65 0,2 -9,4 -19,4 -14,0 -31,-21 -57,-70 -38,-70 -38,-70 -81,-70 h -43 v 70 c 0,63 -2,70 -20,70 -19,0 -20,-7 -20,-170 z m 170,-20 c 24,-24 26,-67 3,-92 -12,-13 -31,-18 -75,-18 h -58 v 65 65 h 55 c 42,0 60,-5 75,-20 z"
       id="path84"
       inkscape:connector-curvature="0" />
  </g>
  <g
     id="layer116"
     transform="translate(35.478894,245.24558)"
     style="fill:#edf5e1;stroke:none">
    <path
       d="M 40,199 V 27 l 83,5 c 87,5 119,18 136,55 20,43 13,82 -18,114 -27,27 -35,29 -100,29 H 70 v 70 c 0,56 -3,70 -15,70 C 42,370 40,344 40,199 Z M 220,180 C 246,154 246,108 219,84 203,70 183,65 137,65 H 75 l -3,68 -3,67 h 66 c 52,0 69,-4 85,-20 z"
       id="path87"
       inkscape:connector-curvature="0" />
    <path
       d="m 340,200 c 0,-144 2,-170 15,-170 13,0 15,24 15,155 v 155 h 80 c 64,0 80,3 80,15 0,12 -17,15 -95,15 h -95 z"
       id="path89"
       inkscape:connector-curvature="0" />
    <path
       d="m 617,253 c 24,-65 54,-142 65,-170 22,-59 41,-67 56,-26 5,16 35,92 65,171 47,120 52,142 38,142 -12,0 -22,-15 -32,-47 l -15,-48 h -79 -79 l -15,48 c -10,32 -20,47 -32,47 -15,0 -11,-17 28,-117 z m 134,-90 c -16,-43 -32,-77 -37,-76 -4,1 -20,36 -36,77 l -27,76 h 64 64 z"
       id="path91"
       inkscape:connector-curvature="0" />
    <path
       d="m 1180,200 c 0,-217 4,-219 118,-40 46,72 88,130 93,130 5,0 9,-58 9,-130 0,-109 2,-130 15,-130 13,0 15,26 15,170 0,145 -2,170 -15,170 -9,0 -54,-58 -101,-130 -47,-72 -90,-130 -95,-130 -5,0 -9,58 -9,130 0,109 -2,130 -15,130 -13,0 -15,-26 -15,-170 z"
       id="path93"
       inkscape:connector-curvature="0" />
    <path
       d="m 1528,200 -3,-170 h 102 c 87,0 102,2 97,15 -5,12 -24,15 -85,15 h -79 v 60 60 h 75 c 62,0 73,2 69,15 -5,11 -23,15 -75,15 h -69 v 65 65 h 85 c 69,0 85,3 85,15 0,12 -18,15 -100,15 h -99 z"
       id="path95"
       inkscape:connector-curvature="0" />
    <path
       d="M 1800,200 V 30 h 53 c 112,0 157,30 157,106 0,35 -5,47 -31,68 -22,19 -28,30 -22,39 6,6 24,38 42,70 29,50 30,57 14,57 -12,0 -31,-23 -56,-70 l -38,-70 h -45 -44 v 70 c 0,56 -3,70 -15,70 -13,0 -15,-26 -15,-170 z m 162,-17 c 18,-16 24,-68 10,-89 -14,-21 -51,-34 -96,-34 h -46 v 70 70 h 57 c 38,0 62,-5 75,-17 z"
       id="path97"
       inkscape:connector-curvature="0" />
  </g>
</svg>
