<?xml version="1.0" encoding="UTF-8" standalone="no"?>
<svg
   xmlns:dc="http://purl.org/dc/elements/1.1/"
   xmlns:cc="http://creativecommons.org/ns#"
   xmlns:rdf="http://www.w3.org/1999/02/22-rdf-syntax-ns#"
   xmlns:svg="http://www.w3.org/2000/svg"
   xmlns="http://www.w3.org/2000/svg"
   xmlns:sodipodi="http://sodipodi.sourceforge.net/DTD/sodipodi-0.dtd"
   xmlns:inkscape="http://www.inkscape.org/namespaces/inkscape"
   version="1.0"
   width="929.38782"
   height="468.26562"
   viewBox="0 0 9293.8782 4682.6562"
   preserveAspectRatio="xMidYMid meet"
   id="svg317"
   sodipodi:docname="RTS.svg"
   inkscape:version="0.92.4 (5da689c313, 2019-01-14)">
  <metadata
     id="metadata323">
    <rdf:RDF>
      <cc:Work
         rdf:about="">
        <dc:format>image/svg+xml</dc:format>
        <dc:type
           rdf:resource="http://purl.org/dc/dcmitype/StillImage" />
      </cc:Work>
    </rdf:RDF>
  </metadata>
  <defs
     id="defs321" />
  <sodipodi:namedview
     pagecolor="#ffffff"
     bordercolor="#666666"
     borderopacity="1"
     objecttolerance="10"
     gridtolerance="10"
     guidetolerance="10"
     inkscape:pageopacity="0"
     inkscape:pageshadow="2"
     inkscape:window-width="1920"
     inkscape:window-height="1017"
     id="namedview319"
     showgrid="false"
     inkscape:zoom="0.52497322"
     inkscape:cx="311.8197"
     inkscape:cy="213.84571"
     inkscape:window-x="-8"
     inkscape:window-y="-8"
     inkscape:window-maximized="1"
     inkscape:current-layer="svg317" />
  <rect
     style="fill:#201f18;fill-opacity:1;stroke-width:7.18238878"
     id="rect325"
     width="9293.8779"
     height="4682.6562"
     x="3.5527137e-15"
     y="0" />
  <g
     id="layer101"
     transform="translate(26.938965,1866.3281)"
     style="fill:#201f18;stroke:none">
    <path
       d="M 0,475 V 0 H 4620 9240 V 475 950 H 4620 0 Z"
       id="path2"
       inkscape:connector-curvature="0" />
  </g>
  <g
     id="layer102"
     transform="translate(26.938965,1866.8281)"
     style="fill:#332f1a;stroke:none">
    <path
       d="m 2,643 3,-307 25,-6 25,-6 -27,-7 C 3,310 0,305 0,266 c 0,-34 5,-47 24,-62 14,-10 23,-21 20,-26 -7,-12 30,-44 60,-52 15,-4 24,-11 21,-17 -7,-10 32,-48 50,-49 6,0 26,-14 45,-30 26,-23 44,-30 77,-30 33,0 43,4 43,16 0,14 2,15 17,3 13,-11 90,-15 380,-17 199,-2 363,0 363,5 0,4 12,8 28,9 489,11 629,17 652,29 18,9 53,12 120,8 52,-2 102,-5 110,-5 8,0 40,-4 70,-10 75,-15 109,-19 148,-19 17,1 32,-4 32,-9 0,-13 281,-6 325,8 17,5 74,8 127,6 53,-2 100,1 103,5 3,5 24,7 47,5 23,-2 44,0 47,4 3,5 44,5 91,0 52,-5 93,-5 105,1 11,5 41,12 68,14 37,4 47,1 47,-11 0,-11 8,-13 40,-8 27,4 40,3 40,-5 0,-8 11,-9 33,-4 17,4 54,9 81,11 27,3 56,9 65,13 31,16 142,13 162,-5 29,-26 178,-33 873,-39 319,-4 523,-2 529,4 6,6 20,5 38,-1 37,-13 59,-5 59,22 0,14 7,20 23,21 59,1 138,11 197,25 36,8 92,19 125,24 33,4 74,11 90,14 17,3 55,8 85,11 30,2 66,6 80,8 14,2 30,1 35,-2 19,-10 39,-10 51,0 8,7 14,6 19,-1 3,-5 19,-10 35,-10 16,0 32,-5 36,-11 5,-8 9,-8 14,1 5,8 14,5 32,-13 22,-22 34,-25 108,-26 45,-1 86,-3 90,-6 3,-2 35,-7 71,-10 35,-4 71,-9 79,-12 8,-3 35,-7 60,-8 141,-11 201,-18 206,-26 7,-12 832,-11 839,1 2,4 26,3 52,-2 33,-8 52,-7 65,1 21,13 65,15 72,3 3,-4 97,-9 210,-11 l 206,-2 v 34 35 l 91,1 c 51,1 109,6 130,13 29,8 42,8 53,-1 10,-9 16,-9 21,-1 5,8 11,8 19,1 7,-6 15,-9 18,-6 2,3 36,6 74,7 65,3 69,2 72,-19 4,-25 12,-29 28,-14 5,6 50,13 99,16 50,3 99,10 110,15 41,18 89,30 117,30 16,0 31,6 34,15 4,8 16,15 28,15 24,0 96,58 96,77 0,7 9,17 20,23 11,6 20,17 20,25 0,7 16,19 35,25 28,9 33,15 25,25 -8,9 -6,15 7,20 10,5 21,8 25,7 4,-1 5,4 2,12 -3,7 2,20 10,29 9,9 16,25 16,36 0,12 5,21 10,21 6,0 10,14 10,30 0,25 4,30 25,30 18,0 25,5 25,19 0,15 -8,21 -32,24 l -33,4 33,1 32,2 v 86 c 0,108 -8,124 -63,125 l -42,1 53,10 c 48,9 52,11 52,38 0,26 -4,29 -37,33 l -38,4 38,1 37,2 v 50 50 H 4620 0 Z m 9115,121 c -3,-3 -12,-4 -19,-1 -8,3 -5,6 6,6 11,1 17,-2 13,-5 z"
       id="path5"
       inkscape:connector-curvature="0" />
  </g>
  <g
     id="layer103"
     transform="translate(27.085052,1834.6256)"
     style="fill:#343224;stroke:none">
    <path
       d="M 0,696 C 0,557 3,428 6,411 c 7,-34 34,-43 34,-11 0,11 5,20 10,20 6,0 10,-9 10,-20 0,-13 7,-20 19,-20 11,0 23,-9 26,-20 8,-26 29,-26 22,0 -3,11 -1,20 4,20 5,0 9,-8 9,-19 0,-19 25,-31 69,-31 13,0 22,-3 19,-6 -10,-10 -95,-21 -175,-23 -51,-1 -71,-15 -35,-24 16,-4 16,-5 0,-6 -25,-1 -23,-31 2,-31 11,0 20,-7 20,-15 0,-8 7,-15 16,-15 10,0 14,6 10,15 -3,9 0,15 9,15 8,0 15,-7 15,-15 0,-9 9,-15 24,-15 14,0 28,-4 31,-10 3,-5 11,-10 16,-10 6,0 7,5 4,10 -3,6 -1,10 4,10 6,0 11,-4 11,-10 0,-5 10,-11 23,-11 17,-1 18,-2 4,-6 -21,-6 -12,-23 12,-23 10,0 24,-6 30,-14 7,-8 30,-16 51,-18 38,-3 40,-2 40,25 v 28 l 44,-30 c 24,-17 63,-37 87,-46 24,-9 53,-21 64,-25 33,-14 168,-23 160,-11 -3,6 0,11 7,12 32,1 94,10 106,14 6,2 12,-2 12,-10 0,-16 35,-21 44,-7 5,9 89,30 136,35 14,1 30,5 35,8 6,4 25,5 43,4 17,-2 32,0 32,4 0,4 93,9 208,10 114,1 232,4 262,6 30,2 86,5 124,8 51,2 71,8 78,20 6,11 17,15 31,12 22,-5 88,-14 137,-19 14,-1 41,-5 60,-9 19,-3 64,-9 100,-12 102,-8 144,-15 150,-24 6,-10 180,-9 196,1 10,7 196,21 247,20 9,0 17,2 17,6 0,4 39,7 88,7 173,-1 386,12 390,24 5,16 22,14 22,-3 0,-21 48,-28 105,-16 28,6 73,15 102,20 28,4 57,11 64,16 8,4 9,3 5,-5 -6,-9 13,-11 73,-10 52,1 86,-3 96,-11 10,-9 15,-9 15,-1 0,6 5,11 10,11 6,0 10,-10 10,-22 0,-17 3,-19 12,-10 7,7 32,12 57,12 42,0 43,-1 28,-18 -16,-18 -9,-18 196,-19 304,0 428,-4 392,-12 l -30,-7 38,-5 c 39,-5 71,4 46,13 -8,3 19,5 59,6 50,0 75,-4 78,-12 3,-7 15,-11 27,-10 12,1 40,3 62,5 l 40,2 -45,7 c -28,4 26,8 140,10 102,2 205,4 230,6 25,1 60,3 78,3 24,1 32,5 32,19 0,10 6,19 13,20 86,5 210,23 225,31 12,6 34,11 51,11 17,0 45,9 63,19 17,11 35,18 40,15 4,-3 8,-1 8,4 0,6 17,13 38,17 20,5 43,10 50,12 6,1 19,4 28,6 8,2 19,8 22,13 4,6 40,9 82,7 95,-4 100,-5 100,-13 0,-7 16,-10 68,-10 17,0 32,-4 32,-9 0,-12 116,-61 145,-61 13,0 41,-9 62,-19 33,-17 116,-33 163,-33 8,0 22,-2 30,-5 33,-13 94,-23 164,-27 38,-2 51,-7 56,-21 4,-10 15,-20 26,-22 42,-10 337,-13 348,-4 6,5 31,9 56,9 25,0 59,2 75,5 76,14 184,27 220,27 51,0 88,4 103,14 23,14 123,11 132,-4 7,-11 51,-15 217,-16 251,-3 263,-1 263,36 0,25 4,28 53,35 28,4 86,8 127,9 41,0 80,4 85,7 19,11 108,11 101,0 -7,-10 65,-7 102,5 6,2 12,-5 12,-15 0,-13 7,-18 28,-17 15,1 32,5 39,9 6,4 18,5 25,2 8,-3 28,1 44,10 16,8 37,15 46,15 18,0 122,63 133,80 3,5 42,10 86,10 71,0 79,2 79,19 0,20 18,31 51,31 18,0 20,5 13,45 l -6,45 h 50 c 47,0 50,1 56,30 5,28 8,30 51,30 38,0 45,3 45,20 0,16 -8,20 -57,23 l -58,3 58,2 57,2 v 86 c 0,108 -8,124 -63,125 l -42,1 53,10 c 48,9 52,11 52,38 0,26 -4,29 -37,33 l -38,4 38,1 37,2 v 50 50 H 4620 0 Z m 9117,68 c -3,-3 -12,-4 -19,-1 -8,3 -5,6 6,6 11,1 17,-2 13,-5 z M 77,274 c -3,-3 -12,-4 -19,-1 -8,3 -5,6 6,6 11,1 17,-2 13,-5 z M 3317,173 c -4,-3 -10,-3 -14,0 -3,4 0,7 7,7 7,0 10,-3 7,-7 z M 285,150 c 3,-5 4,-10 1,-10 -3,0 -8,5 -11,10 -3,6 -4,10 -1,10 3,0 8,-4 11,-10 z"
       id="path8"
       inkscape:connector-curvature="0" />
    <path
       d="m 9076,374 c -9,-23 -8,-24 14,-24 13,0 20,7 20,20 0,24 -25,27 -34,4 z"
       id="path10"
       inkscape:connector-curvature="0" />
    <path
       d="m 8820,270 c 0,-7 3,-10 7,-7 3,4 3,10 0,14 -4,3 -7,0 -7,-7 z"
       id="path12"
       inkscape:connector-curvature="0" />
    <path
       d="m 160,170 c 0,-5 5,-10 11,-10 5,0 7,5 4,10 -3,6 -8,10 -11,10 -2,0 -4,-4 -4,-10 z"
       id="path14"
       inkscape:connector-curvature="0" />
    <path
       d="m 3620,170 c 0,-7 3,-10 7,-7 3,4 3,10 0,14 -4,3 -7,0 -7,-7 z"
       id="path16"
       inkscape:connector-curvature="0" />
    <path
       d="m 3238,123 c 12,-2 32,-2 45,0 12,2 2,4 -23,4 -25,0 -35,-2 -22,-4 z"
       id="path18"
       inkscape:connector-curvature="0" />
    <path
       d="m 4863,103 c 9,-2 25,-2 35,0 9,3 1,5 -18,5 -19,0 -27,-2 -17,-5 z"
       id="path20"
       inkscape:connector-curvature="0" />
  </g>
  <g
     id="layer104"
     transform="translate(65.711278,1834.6256)"
     style="fill:#443e1a;stroke:none">
    <path
       d="m 980,935 c 0,-9 -9,-15 -22,-16 -13,0 -30,-2 -38,-4 -8,-2 -31,-6 -50,-10 -19,-3 -37,-10 -40,-14 -3,-5 -35,-12 -72,-15 -43,-5 -68,-12 -72,-22 -3,-8 -15,-14 -27,-14 -18,0 -19,2 -9,15 11,13 8,15 -14,15 -14,0 -26,-4 -26,-10 0,-5 -12,-12 -27,-15 -80,-18 -197,-60 -213,-78 -11,-11 -40,-25 -65,-32 -25,-6 -46,-15 -47,-21 0,-5 -9,-21 -20,-36 -11,-16 -16,-28 -13,-28 4,0 0,-11 -9,-25 -10,-15 -19,-57 -22,-107 -5,-67 -2,-94 14,-141 16,-49 17,-60 6,-72 -19,-18 -18,-25 4,-25 12,0 13,-3 4,-8 -9,-6 -4,-17 18,-42 16,-18 40,-48 52,-66 32,-46 48,-51 48,-13 v 30 l 44,-30 c 24,-17 63,-37 87,-46 24,-9 53,-21 64,-25 33,-14 168,-23 160,-11 -3,6 0,11 7,12 32,1 94,10 106,14 6,2 12,-2 12,-10 0,-16 35,-21 44,-7 5,9 89,30 136,35 14,1 30,5 35,8 6,4 25,5 43,4 17,-2 32,0 32,4 0,4 93,9 208,10 114,1 232,4 262,6 30,2 86,5 124,8 51,2 71,8 78,20 6,11 17,15 31,12 22,-5 88,-14 137,-19 14,-1 41,-5 60,-9 19,-3 64,-9 100,-12 102,-8 144,-15 150,-24 6,-10 180,-9 196,1 10,7 196,21 247,20 9,0 17,2 17,6 0,4 39,7 88,7 173,-1 386,12 390,24 5,16 22,14 22,-4 0,-17 65,-22 75,-5 3,6 21,10 39,10 19,0 39,7 46,15 7,9 15,13 18,10 3,-3 12,1 20,8 12,9 16,9 19,0 5,-14 48,-8 69,8 16,13 94,12 94,-1 0,-8 52,-6 67,3 6,4 13,2 15,-5 2,-6 15,-12 29,-14 13,-1 60,-11 104,-23 44,-12 96,-22 115,-22 19,-1 41,-7 49,-13 15,-11 13,-11 186,-21 130,-7 753,-8 850,0 33,2 75,4 93,5 24,0 32,4 32,18 0,10 6,19 13,20 86,5 210,23 225,31 12,6 34,11 51,11 17,0 45,9 63,19 17,11 35,18 40,15 4,-3 8,-1 8,4 0,6 17,13 38,17 20,5 43,10 50,12 6,1 19,4 28,6 8,2 19,8 22,13 4,6 40,9 82,7 95,-4 100,-5 100,-13 0,-7 16,-10 68,-10 17,0 32,-4 32,-9 0,-12 116,-61 145,-61 13,0 41,-9 62,-19 33,-17 116,-33 163,-33 8,0 22,-2 30,-5 33,-13 94,-23 164,-27 38,-2 51,-7 56,-21 4,-10 15,-20 26,-22 42,-10 337,-13 348,-4 6,5 31,9 56,9 25,0 59,2 75,5 76,14 184,27 220,27 52,0 88,4 103,14 23,14 250,12 263,-2 7,-6 18,-12 23,-12 6,0 4,5 -4,10 -9,6 -10,10 -3,10 6,0 15,-4 18,-10 7,-11 48,-7 87,8 18,7 38,8 62,1 54,-15 166,2 166,26 0,15 76,27 180,29 41,0 80,4 85,7 19,11 108,11 101,0 -7,-10 65,-7 102,5 6,2 12,-5 12,-15 0,-13 7,-18 28,-17 15,1 32,5 39,9 6,4 18,5 25,2 8,-3 28,1 44,10 16,8 37,15 46,15 10,0 43,17 74,38 31,20 69,44 84,52 29,16 70,61 70,78 0,5 9,12 21,15 12,3 18,10 14,17 -4,6 -1,17 5,25 6,8 9,19 5,26 -4,6 -2,15 4,19 18,11 14,150 -4,150 -5,0 -4,4 3,9 10,6 10,10 -3,21 -14,11 -13,14 2,26 16,12 15,13 -12,15 -29,1 -29,1 -5,8 21,7 16,9 -30,15 -30,4 -65,8 -77,9 -12,1 -19,5 -17,9 3,4 0,8 -7,8 -7,0 -10,3 -6,6 3,3 -6,17 -20,30 -14,13 -23,24 -20,24 3,0 -12,18 -33,41 -26,29 -59,49 -107,67 l -68,26 -2667,3 -2668,3 v -35 c 0,-26 -3,-33 -15,-29 -9,4 -15,19 -15,35 v 29 H 2085 C 1108,950 980,948 980,935 Z"
       id="path23"
       inkscape:connector-curvature="0" />
  </g>
  <g
     id="layer105"
     transform="translate(65.544526,1783.4307)"
     style="fill:#433f24;stroke:none">
    <path
       d="m 980,935 c 0,-9 -10,-15 -22,-16 -13,0 -30,-2 -38,-4 -8,-2 -31,-6 -50,-10 -19,-3 -37,-10 -40,-14 -3,-5 -35,-12 -72,-15 -43,-5 -68,-12 -72,-22 -3,-8 -15,-14 -27,-14 -18,0 -19,2 -9,15 11,13 8,15 -14,15 -14,0 -26,-4 -26,-10 0,-5 -12,-12 -27,-15 -80,-18 -197,-60 -213,-78 -11,-11 -40,-25 -65,-32 -25,-6 -46,-15 -47,-21 0,-5 -9,-21 -20,-36 -11,-16 -16,-28 -13,-28 4,0 0,-11 -8,-24 -33,-50 -33,-246 -1,-246 10,0 13,6 9,19 -3,12 0,21 10,25 8,3 15,17 15,31 0,14 4,25 9,25 5,0 11,10 13,23 2,14 11,23 27,25 16,3 21,0 16,-9 -10,-16 -7,-132 4,-139 5,-3 12,-20 16,-39 4,-20 14,-35 26,-38 16,-5 19,-15 19,-69 v -64 h 225 c 143,0 225,4 225,10 0,6 11,10 23,10 13,0 27,3 31,7 3,4 16,8 28,10 12,2 26,9 30,16 6,9 8,9 8,-2 0,-11 3,-11 17,0 12,11 64,15 212,16 108,2 234,5 281,8 47,2 126,6 175,8 50,2 102,5 118,6 17,0 27,7 27,16 0,11 13,15 53,15 30,0 57,-3 61,-7 4,-4 24,-8 44,-9 51,-2 167,-19 167,-25 0,-1 11,-3 25,-4 14,-1 32,-5 41,-9 10,-4 23,-7 30,-5 39,5 49,-2 49,-31 v -30 h 60 c 56,0 60,2 60,23 0,15 6,23 18,24 9,0 42,4 72,7 30,3 66,7 80,9 14,1 30,5 35,8 6,4 35,7 65,8 31,0 78,5 105,10 27,5 54,7 59,3 12,-7 114,-6 171,2 22,3 72,8 110,11 95,8 99,11 35,22 -30,6 -43,11 -29,12 14,0 47,7 72,15 40,12 47,12 47,0 0,-11 22,-14 105,-14 h 105 v 50 50 h 50 50 v 46 c 0,35 5,51 21,65 19,16 20,21 8,35 -11,14 -11,18 -1,21 16,6 16,24 0,21 -7,-2 -16,-19 -19,-38 -5,-26 -7,-18 -8,33 l -1,67 h 28 c 15,0 33,5 40,12 9,9 12,9 12,0 0,-7 5,-12 10,-12 6,0 10,8 10,17 0,13 3,14 12,5 18,-18 41,-15 34,4 -5,13 -3,14 7,6 8,-7 18,-7 27,-2 41,26 106,0 77,-29 -9,-9 -8,-14 3,-21 8,-5 12,-10 8,-11 -11,-2 -26,-6 -35,-9 -5,-1 -11,-2 -14,-2 -4,1 -9,-8 -12,-18 -3,-11 0,-20 6,-20 7,0 4,-6 -5,-13 -9,-8 -15,-22 -13,-33 2,-10 4,-23 4,-27 1,-5 5,-6 10,-3 4,3 6,-6 3,-19 -3,-20 0,-25 17,-25 12,0 21,-6 21,-15 0,-9 10,-15 28,-16 16,-1 20,-3 10,-6 -14,-4 -18,-15 -18,-59 0,-51 1,-54 25,-54 23,0 25,-4 25,-44 0,-49 10,-55 78,-47 23,2 32,8 32,22 0,12 7,19 20,19 11,0 20,-7 20,-15 0,-10 9,-15 28,-14 15,0 47,-2 71,-5 115,-15 699,-23 886,-12 22,1 68,3 103,4 59,2 62,3 62,27 0,14 3,25 8,26 4,0 16,2 27,4 11,1 38,6 59,9 22,3 42,10 46,15 8,13 90,31 90,20 0,-5 47,-9 105,-9 h 105 v 50 50 h 50 50 v 100 c 0,66 4,100 11,100 6,0 9,-7 5,-15 -3,-9 0,-15 9,-15 8,0 15,9 15,20 0,13 -7,20 -20,20 -24,0 -26,16 -5,36 8,9 15,20 15,25 0,5 -7,9 -15,9 -8,0 -15,5 -15,10 0,6 30,10 70,10 40,0 70,-4 70,-10 0,-5 -6,-10 -13,-10 -7,0 -13,-9 -13,-20 0,-11 4,-20 9,-20 4,0 5,-4 2,-10 -9,-15 4,-12 21,4 9,10 10,16 2,18 -8,3 -8,10 1,26 10,18 20,22 62,22 32,0 49,-4 47,-11 -2,-6 -7,-10 -12,-9 -5,1 -13,-4 -17,-12 -7,-10 -9,-10 -9,0 0,7 -13,12 -30,12 -16,0 -30,-5 -30,-11 0,-6 6,-9 14,-6 21,8 25,-35 4,-55 -10,-10 -20,-13 -23,-8 -9,15 -42,12 -49,-5 -4,-12 4,-15 42,-17 43,-1 67,-3 100,-7 6,0 12,-9 12,-18 0,-15 -2,-16 -10,-3 -6,10 -10,11 -10,3 0,-8 -14,-14 -32,-14 -33,-2 -33,-2 -4,-6 46,-7 57,-26 63,-108 l 6,-75 h 43 43 l 3,-47 3,-48 150,-1 c 109,-1 163,-6 197,-17 26,-9 75,-19 110,-22 72,-7 78,-10 78,-35 0,-16 10,-19 68,-22 91,-5 317,-1 372,7 25,3 59,8 75,9 17,2 56,7 87,11 32,4 61,6 64,5 4,-1 10,4 15,12 6,9 11,10 20,1 10,-10 50,-5 99,14 14,5 59,10 168,16 24,2 45,0 47,-3 6,-9 67,0 83,12 8,7 12,7 12,-1 0,-8 24,-11 81,-10 49,1 85,-3 92,-10 14,-14 117,-15 117,-1 0,6 9,10 20,10 16,0 20,7 20,30 v 30 l 300,-1 c 164,0 304,2 310,6 14,8 162,7 196,-1 18,-5 30,2 54,27 16,19 30,39 30,45 0,6 9,14 21,17 12,3 18,10 14,17 -4,6 -1,17 5,25 6,8 9,19 5,26 -4,6 -2,15 4,19 18,11 14,150 -4,150 -5,0 -4,4 3,9 10,6 10,10 -3,21 -14,11 -13,14 2,26 16,12 15,13 -12,15 -29,1 -29,1 -5,8 21,7 16,9 -30,15 -30,4 -65,8 -77,9 -12,1 -19,5 -17,9 3,4 0,8 -7,8 -7,0 -10,3 -6,6 3,3 -6,17 -20,30 -14,13 -23,24 -20,24 3,0 -12,18 -33,41 -26,29 -59,49 -107,67 l -68,26 -1865,3 c -1454,2 -1861,0 -1852,-9 24,-24 11,-28 -81,-27 -73,1 -94,5 -94,16 0,8 6,12 14,9 7,-3 13,-1 13,4 0,6 -268,10 -735,10 H 3220 V 850 750 h -50 c -27,0 -50,-4 -50,-10 0,-5 -13,-10 -30,-10 -20,0 -30,5 -30,15 0,14 -15,19 -50,16 -8,-1 -2,6 13,15 16,8 26,18 23,21 -3,3 -36,5 -73,4 -48,-1 -64,2 -53,9 13,9 13,10 0,11 -10,0 -8,3 5,8 11,5 46,6 78,3 35,-3 57,-1 57,5 0,6 21,14 48,17 80,12 82,13 82,57 v 39 h -221 c -144,0 -218,-3 -214,-10 3,-5 15,-10 26,-10 11,0 19,-6 17,-12 -5,-25 26,-58 53,-58 31,0 58,-25 37,-33 -10,-4 -10,-6 1,-6 11,-1 10,-5 -4,-21 -13,-14 -22,-17 -35,-10 -13,7 -25,4 -43,-10 -14,-11 -35,-20 -46,-20 -20,0 -21,5 -21,95 v 95 h -880 c -776,0 -880,-2 -880,-15 z m 4013,-12 c 18,-9 40,-16 50,-14 10,1 24,-2 30,-8 8,-6 18,-6 27,-1 27,17 40,11 40,-20 v -30 l -57,4 c -76,6 -114,21 -107,41 5,12 -3,15 -47,15 -56,0 -58,15 -4,23 17,2 31,5 33,6 2,0 17,-7 35,-16 z M 1689,871 c 24,-15 -6,-21 -62,-12 -5,0 -5,6 -2,11 8,12 45,13 64,1 z m -524,-21 c -3,-5 -12,-10 -18,-10 -7,0 -6,4 3,10 19,12 23,12 15,0 z m -158,-6 c -3,-3 -12,-4 -19,-1 -8,3 -5,6 6,6 11,1 17,-2 13,-5 z m 91,-1 c -16,-2 -28,-8 -28,-13 0,-5 -13,-8 -29,-8 -51,2 -23,23 32,24 28,1 40,0 25,-3 z m 6699,0 c -4,-3 -10,-3 -14,0 -3,4 0,7 7,7 7,0 10,-3 7,-7 z M 844,806 c -3,-8 4,-16 20,-20 14,-3 26,-11 26,-16 0,-11 -48,-25 -57,-16 -3,3 -11,2 -17,-3 -11,-9 -69,-14 -161,-12 l -50,1 29,15 c 35,18 63,19 69,3 4,-10 8,-10 16,1 7,12 17,13 43,4 36,-10 58,1 58,30 0,15 9,27 21,27 5,0 6,-6 3,-14 z m 111,5 c 3,-5 1,-12 -5,-16 -5,-3 -10,-1 -10,6 0,10 -3,10 -12,1 -10,-10 -10,-15 2,-22 11,-7 10,-9 -8,-7 -24,1 -29,16 -10,35 14,14 35,16 43,3 z m 7002,2 c -4,-3 -10,-3 -14,0 -3,4 0,7 7,7 7,0 10,-3 7,-7 z m 678,-53 c 17,-7 16,-9 -10,-9 -16,0 -37,4 -45,9 -12,8 -10,10 10,9 14,0 34,-4 45,-9 z M 857,733 c -4,-3 -10,-3 -14,0 -3,4 0,7 7,7 7,0 10,-3 7,-7 z m 7820,1 c -3,-3 -12,-4 -19,-1 -8,3 -5,6 6,6 11,1 17,-2 13,-5 z m 46,-1 c -7,-2 -19,-2 -25,0 -7,3 -2,5 12,5 14,0 19,-2 13,-5 z M 3847,716 c 3,-3 -27,-6 -68,-5 -41,1 -64,4 -51,7 28,8 110,7 119,-2 z m 40,-3 c -4,-3 -7,0 -7,7 0,7 3,10 7,7 3,-4 3,-10 0,-14 z m 1820,11 c -3,-3 -12,-4 -19,-1 -8,3 -5,6 6,6 11,1 17,-2 13,-5 z m 81,-1 c -10,-2 -28,-2 -40,0 -13,2 -5,4 17,4 22,1 32,-1 23,-4 z m 125,0 c -13,-2 -33,-2 -45,0 -13,2 -3,4 22,4 25,0 35,-2 23,-4 z M 3553,713 c -7,-2 -19,-2 -25,0 -7,3 -2,5 12,5 14,0 19,-2 13,-5 z m 90,0 c -7,-2 -19,-2 -25,0 -7,3 -2,5 12,5 14,0 19,-2 13,-5 z M 5877,613 c -4,-3 -10,-3 -14,0 -3,4 0,7 7,7 7,0 10,-3 7,-7 z m 50,1 c -3,-3 -12,-4 -19,-1 -8,3 -5,6 6,6 11,1 17,-2 13,-5 z m 140,-241 c -4,-3 -7,0 -7,7 0,7 3,10 7,7 3,-4 3,-10 0,-14 z M 3977,304 c -3,-3 -12,-4 -19,-1 -8,3 -5,6 6,6 11,1 17,-2 13,-5 z"
       id="path26"
       inkscape:connector-curvature="0" />
    <path
       d="m 5756,675 c 4,-8 7,-15 9,-15 2,0 5,7 9,15 3,9 0,15 -9,15 -9,0 -12,-6 -9,-15 z"
       id="path28"
       inkscape:connector-curvature="0" />
    <path
       d="m 5741,604 c 0,-11 3,-14 6,-6 3,7 2,16 -1,19 -3,4 -6,-2 -5,-13 z"
       id="path30"
       inkscape:connector-curvature="0" />
    <path
       d="m 3580,590 c 0,-5 5,-10 11,-10 5,0 7,5 4,10 -3,6 -8,10 -11,10 -2,0 -4,-4 -4,-10 z"
       id="path32"
       inkscape:connector-curvature="0" />
    <path
       d="m 3660,590 c 0,-7 3,-10 7,-7 3,4 3,10 0,14 -4,3 -7,0 -7,-7 z"
       id="path34"
       inkscape:connector-curvature="0" />
    <path
       d="m 3662,550 c 0,-14 2,-19 5,-12 2,6 2,18 0,25 -3,6 -5,1 -5,-13 z"
       id="path36"
       inkscape:connector-curvature="0" />
    <path
       d="m 3681,544 c 0,-11 3,-14 6,-6 3,7 2,16 -1,19 -3,4 -6,-2 -5,-13 z"
       id="path38"
       inkscape:connector-curvature="0" />
    <path
       d="m 3580,540 c 0,-7 3,-10 7,-7 3,4 3,10 0,14 -4,3 -7,0 -7,-7 z"
       id="path40"
       inkscape:connector-curvature="0" />
    <path
       d="m 5703,535 c 0,-8 4,-15 9,-15 4,0 8,7 8,15 0,8 -4,15 -8,15 -5,0 -9,-7 -9,-15 z"
       id="path42"
       inkscape:connector-curvature="0" />
    <path
       d="m 5793,543 c 4,-3 10,-3 14,0 3,4 0,7 -7,7 -7,0 -10,-3 -7,-7 z"
       id="path44"
       inkscape:connector-curvature="0" />
    <path
       d="m 200,290 c 0,-5 8,-10 18,-10 12,0 14,-2 4,-8 -9,-7 -7,-15 12,-35 28,-30 41,-35 33,-13 -3,8 -1,17 6,20 8,3 6,10 -7,20 -17,14 -18,16 -3,16 9,0 17,5 17,10 0,6 -18,10 -40,10 -22,0 -40,-4 -40,-10 z"
       id="path46"
       inkscape:connector-curvature="0" />
    <path
       d="m 315,290 c 3,-5 10,-10 16,-10 5,0 9,5 9,10 0,6 -7,10 -16,10 -8,0 -12,-4 -9,-10 z"
       id="path48"
       inkscape:connector-curvature="0" />
    <path
       d="m 3233,289 c -11,-5 2,-8 35,-8 28,-1 52,1 52,3 0,8 -69,12 -87,5 z"
       id="path50"
       inkscape:connector-curvature="0" />
    <path
       d="m 3488,283 c 6,-2 18,-2 25,0 6,3 1,5 -13,5 -14,0 -19,-2 -12,-5 z"
       id="path52"
       inkscape:connector-curvature="0" />
    <path
       d="m 3533,283 c 4,-3 10,-3 14,0 3,4 0,7 -7,7 -7,0 -10,-3 -7,-7 z"
       id="path54"
       inkscape:connector-curvature="0" />
    <path
       d="m 3573,283 c 9,-2 23,-2 30,0 6,3 -1,5 -18,5 -16,0 -22,-2 -12,-5 z"
       id="path56"
       inkscape:connector-curvature="0" />
    <path
       d="m 3633,283 c 9,-2 23,-2 30,0 6,3 -1,5 -18,5 -16,0 -22,-2 -12,-5 z"
       id="path58"
       inkscape:connector-curvature="0" />
    <path
       d="m 3753,283 c 4,-3 10,-3 14,0 3,4 0,7 -7,7 -7,0 -10,-3 -7,-7 z"
       id="path60"
       inkscape:connector-curvature="0" />
    <path
       d="m 3503,263 c 4,-3 10,-3 14,0 3,4 0,7 -7,7 -7,0 -10,-3 -7,-7 z"
       id="path62"
       inkscape:connector-curvature="0" />
    <path
       d="m 3598,263 c 7,-3 16,-2 19,1 4,3 -2,6 -13,5 -11,0 -14,-3 -6,-6 z"
       id="path64"
       inkscape:connector-curvature="0" />
    <path
       d="m 3643,263 c 9,-2 23,-2 30,0 6,3 -1,5 -18,5 -16,0 -22,-2 -12,-5 z"
       id="path66"
       inkscape:connector-curvature="0" />
    <path
       d="m 3833,183 c 4,-3 10,-3 14,0 3,4 0,7 -7,7 -7,0 -10,-3 -7,-7 z"
       id="path68"
       inkscape:connector-curvature="0" />
    <path
       d="m 7733,183 c 4,-3 10,-3 14,0 3,4 0,7 -7,7 -7,0 -10,-3 -7,-7 z"
       id="path70"
       inkscape:connector-curvature="0" />
  </g>
  <g
     id="layer106"
     transform="translate(47.092295,1783.4307)"
     style="fill:#534b1b;stroke:none">
    <path
       d="m 2020,941 c 0,-6 -17,-11 -39,-11 -21,0 -56,-7 -77,-16 -22,-9 -57,-17 -79,-18 -33,-1 -41,-5 -43,-23 -4,-26 -36,-32 -49,-9 -12,22 -26,20 -35,-3 -7,-21 -30,-24 -57,-7 -8,5 -16,3 -22,-5 -6,-9 -9,-10 -9,-2 0,6 -8,12 -17,11 -38,0 -123,15 -123,22 0,5 -24,7 -52,7 -32,-1 -59,3 -67,11 -11,11 -16,10 -30,-1 -9,-7 -32,-15 -51,-16 -31,-3 -59,-6 -97,-10 -7,0 -12,-6 -10,-12 1,-6 -5,-14 -13,-16 -12,-4 -12,-3 -1,5 10,7 10,11 1,17 -6,4 -17,0 -23,-7 -14,-18 -75,-43 -83,-35 -4,3 -27,-2 -53,-12 -64,-25 -80,-30 -86,-30 -3,0 -13,-7 -22,-16 -8,-9 -25,-15 -37,-13 -11,1 -25,0 -31,-4 -5,-3 -77,-9 -160,-13 -82,-4 -153,-9 -157,-12 -5,-2 -8,3 -8,11 0,13 -12,16 -55,16 h -55 v -54 c 0,-33 -5,-60 -14,-68 -17,-18 -46,-73 -52,-101 -8,-34 -4,-141 5,-147 5,-3 12,-20 16,-39 4,-20 14,-35 26,-38 16,-5 19,-15 19,-69 v -64 h 225 c 143,0 225,4 225,10 0,6 11,10 23,10 13,0 27,3 31,7 3,4 16,8 28,10 12,2 26,9 30,16 6,9 8,9 8,-2 0,-11 3,-11 17,0 12,11 64,15 212,16 108,2 234,5 281,8 47,2 126,6 175,8 50,2 102,5 118,6 17,0 27,7 27,16 0,11 13,15 53,15 30,0 57,-3 61,-7 4,-4 24,-8 44,-9 51,-2 167,-19 167,-25 0,-1 11,-3 25,-4 14,-1 32,-5 41,-9 10,-4 23,-7 30,-5 39,5 49,-2 49,-31 v -30 h 60 c 56,0 60,2 60,23 0,15 6,23 18,24 9,0 42,4 72,7 30,3 66,7 80,9 14,1 30,5 35,8 6,4 35,7 65,8 31,0 78,5 105,10 27,5 54,7 59,3 12,-7 114,-6 171,2 22,3 72,8 110,11 95,8 99,11 35,22 -30,6 -43,11 -29,12 14,0 47,7 72,15 40,12 47,12 47,0 0,-11 22,-14 105,-14 h 105 v 50 50 h 50 50 v 46 c 0,35 5,51 21,65 19,16 20,21 8,35 -11,14 -11,18 -1,21 6,3 12,9 12,14 0,5 -6,8 -12,6 -7,-1 -16,-18 -19,-37 -3,-20 -7,14 -8,78 l -1,112 h -30 c -22,0 -30,5 -30,17 0,15 -2,15 -12,2 -7,-8 -12,-12 -11,-10 5,8 -114,51 -164,60 l -53,8 v -39 -38 h -50 c -27,0 -50,-4 -50,-10 0,-5 -13,-10 -30,-10 -20,0 -30,5 -30,15 0,14 -15,19 -50,16 -8,-1 -2,6 13,15 16,8 26,18 23,21 -3,3 -36,5 -73,4 -48,-1 -64,2 -53,9 10,6 11,10 3,10 -7,0 -13,7 -13,15 0,13 -2,14 -14,3 -8,-7 -10,-15 -4,-17 5,-1 2,-11 -8,-22 -12,-13 -21,-16 -34,-9 -13,7 -25,4 -43,-10 -14,-11 -35,-20 -46,-20 -19,0 -21,6 -21,74 0,71 -1,75 -21,71 -12,-3 -27,-1 -33,3 -6,3 -36,8 -66,9 -60,3 -125,9 -125,13 0,5 -50,9 -137,13 -48,2 -86,1 -84,-2 2,-3 -17,-7 -42,-8 -31,-1 -41,1 -31,8 10,6 1,9 -28,9 -24,0 -43,-5 -46,-12 -4,-10 -7,-10 -18,0 -7,6 -24,12 -38,11 -23,0 -24,-1 -6,-8 17,-7 17,-8 -7,-13 -15,-3 -25,-2 -23,3 3,4 1,10 -5,14 -5,3 -10,1 -10,-4 z M 937,773 c -4,-3 -10,-3 -14,0 -3,4 0,7 7,7 7,0 10,-3 7,-7 z m -80,-40 c -4,-3 -10,-3 -14,0 -3,4 0,7 7,7 7,0 10,-3 7,-7 z"
       id="path73"
       inkscape:connector-curvature="0" />
    <path
       d="m 4220,943 c -14,-2 -32,-7 -40,-10 -8,-3 -24,-8 -35,-10 -10,-2 -22,-8 -26,-14 -3,-6 -9,-10 -13,-10 -26,5 -126,-34 -126,-49 0,-5 -10,-12 -22,-16 -13,-4 -25,-10 -28,-13 -3,-4 -36,-21 -75,-38 -76,-33 -94,-53 -46,-53 16,0 33,-4 36,-10 4,-6 -8,-10 -30,-10 -29,0 -36,-4 -33,-17 1,-10 -1,-24 -6,-32 -5,-8 -3,-16 5,-22 8,-5 11,-9 7,-10 -11,-2 -26,-6 -35,-9 -5,-1 -11,-2 -14,-2 -4,1 -9,-8 -12,-18 -3,-11 0,-20 6,-20 7,0 4,-6 -5,-13 -9,-8 -15,-22 -13,-33 2,-10 4,-23 4,-27 1,-5 5,-6 10,-3 4,3 6,-6 3,-19 -3,-20 0,-25 17,-25 12,0 21,-6 21,-15 0,-9 10,-15 28,-16 16,-1 20,-3 10,-6 -14,-4 -18,-15 -18,-59 0,-51 1,-54 25,-54 23,0 25,-4 25,-45 v -45 h 55 c 48,0 55,2 55,20 0,13 7,20 20,20 11,0 20,-7 20,-15 0,-10 9,-15 28,-14 15,0 47,-2 71,-5 115,-15 699,-23 886,-12 22,1 68,3 103,4 59,2 62,3 62,27 0,14 3,25 8,26 4,0 16,2 27,4 11,1 38,6 59,9 22,3 42,10 46,15 8,13 90,31 90,20 0,-5 47,-9 105,-9 h 105 v 50 50 h 50 50 v 100 c 0,66 4,100 11,100 6,0 9,-7 5,-15 -3,-9 0,-15 9,-15 8,0 15,9 15,20 0,13 -7,20 -20,20 -11,0 -20,7 -20,15 0,8 5,15 12,15 9,0 9,3 0,12 -7,7 -12,25 -12,40 v 28 h 135 134 l -8,-22 c -5,-13 -14,-22 -20,-20 -6,1 -11,-3 -11,-9 0,-6 -9,-8 -21,-4 -19,6 -21,4 -17,-16 4,-25 -27,-66 -37,-49 -9,15 -42,12 -49,-5 -4,-12 4,-15 42,-17 43,-1 67,-3 100,-7 6,0 12,-9 12,-18 0,-15 -2,-16 -10,-3 -6,10 -10,11 -10,3 0,-8 -14,-14 -32,-14 -33,-2 -33,-2 -4,-6 46,-7 57,-26 63,-108 l 6,-75 h 43 43 l 3,-47 3,-48 150,-1 c 109,-1 163,-6 197,-17 26,-9 75,-19 110,-22 72,-7 78,-10 78,-35 0,-16 10,-19 68,-22 91,-5 317,-1 372,7 25,3 59,8 75,9 17,2 56,7 87,11 32,4 61,6 64,5 4,-1 10,4 15,12 6,9 11,10 20,1 10,-10 50,-5 99,14 14,5 59,10 168,16 24,2 45,0 47,-3 6,-9 67,0 83,12 8,7 12,7 12,-1 0,-8 24,-11 81,-10 49,1 85,-3 92,-10 14,-14 117,-15 117,-1 0,6 9,10 20,10 16,0 20,7 20,30 v 30 l 300,-1 c 164,0 304,2 310,6 6,4 56,6 111,6 l 99,-1 v 25 c 0,20 5,25 25,25 24,0 25,3 25,55 0,54 0,55 -30,55 -25,0 -30,-4 -30,-25 0,-19 -5,-25 -21,-25 -16,0 -19,4 -14,17 4,10 8,24 8,31 0,6 4,12 9,12 4,0 8,18 8,41 0,24 4,38 10,34 14,-9 13,8 -2,23 -7,7 -9,12 -5,12 4,0 1,14 -8,30 -9,17 -13,30 -10,30 17,0 -32,60 -50,61 -20,0 -20,0 0,9 14,6 2,9 -42,9 -35,1 -63,5 -63,11 0,6 -11,10 -24,10 -13,0 -32,3 -42,7 -16,6 -16,7 2,13 17,6 15,9 -13,23 -17,9 -39,14 -47,11 -9,-3 -27,1 -40,9 -13,9 -48,19 -77,23 -30,4 -57,12 -61,18 -5,7 -15,6 -33,-4 -22,-12 -28,-12 -35,-1 -4,8 -12,11 -18,7 -6,-3 -14,-1 -17,4 -5,8 -14,5 -27,-7 -13,-12 -38,-18 -81,-19 -34,-1 -64,-3 -67,-4 -14,-6 -36,-4 -47,3 -6,4 -14,3 -18,-3 -3,-6 -11,-8 -16,-5 -5,4 -9,1 -9,-6 0,-10 -26,-10 -85,4 -11,2 -23,0 -27,-6 -4,-7 -16,-4 -32,7 -20,13 -35,15 -59,9 -37,-10 -77,-6 -77,8 0,5 5,9 12,9 6,0 8,3 5,6 -4,4 -13,1 -22,-6 -8,-7 -15,-8 -15,-2 0,10 -38,26 -55,22 -30,-6 -95,-4 -95,3 0,5 -9,5 -20,2 -14,-4 -20,-2 -20,9 0,8 -12,17 -27,20 -16,4 -39,9 -53,12 -14,4 -56,8 -95,11 -38,3 -76,10 -82,15 -9,7 -18,7 -28,-2 -8,-7 -15,-8 -15,-2 0,6 -161,10 -465,11 -408,2 -465,0 -465,-13 0,-15 -58,-32 -92,-27 -9,1 -19,-3 -23,-9 -3,-5 -15,-10 -26,-10 -14,0 -19,7 -19,30 0,28 -2,30 -38,30 -36,0 -38,-2 -36,-30 1,-16 -1,-30 -4,-31 -44,-7 -92,-6 -92,0 0,11 -83,-9 -91,-22 -3,-5 -10,-9 -15,-10 -5,-1 -8,-4 -7,-7 1,-4 -9,-6 -21,-6 -17,0 -22,5 -19,17 4,13 -2,17 -29,16 -31,-1 -47,-11 -48,-30 0,-5 4,-6 9,-2 5,3 12,1 15,-3 6,-11 -40,-9 -50,1 -4,4 -1,7 6,7 22,0 -1,17 -32,24 -28,6 -28,6 -28,-49 0,-53 -13,-74 -23,-37 -4,16 -5,16 -6,0 0,-10 -6,-18 -12,-18 -6,0 -9,7 -6,15 4,8 2,17 -4,20 -5,4 -12,0 -15,-9 -8,-22 -51,0 -58,30 -5,17 -13,24 -30,24 -14,0 -26,-3 -28,-7 -1,-5 -25,-5 -53,-2 l -50,6 45,2 c 36,1 41,4 28,12 -18,10 -155,40 -195,43 -12,0 -25,4 -29,9 -4,4 -16,7 -26,7 -14,0 -18,-8 -18,-35 v -35 l -57,4 c -63,5 -109,19 -114,35 -6,15 -82,23 -201,23 -101,-1 -108,1 -108,19 0,19 -7,19 -207,18 -115,-2 -219,-4 -233,-6 z m 7,-20 c -4,-3 -10,-3 -14,0 -3,4 0,7 7,7 7,0 10,-3 7,-7 z m -60,-20 c -4,-3 -10,-3 -14,0 -3,4 0,7 7,7 7,0 10,-3 7,-7 z m 3210,0 c -4,-3 -10,-3 -14,0 -3,4 0,7 7,7 7,0 10,-3 7,-7 z M 3887,713 c -4,-3 -7,0 -7,7 0,7 3,10 7,7 3,-4 3,-10 0,-14 z M 5877,613 c -4,-3 -10,-3 -14,0 -3,4 0,7 7,7 7,0 10,-3 7,-7 z m 50,1 c -3,-3 -12,-4 -19,-1 -8,3 -5,6 6,6 11,1 17,-2 13,-5 z m 140,-241 c -4,-3 -7,0 -7,7 0,7 3,10 7,7 3,-4 3,-10 0,-14 z M 3977,304 c -3,-3 -12,-4 -19,-1 -8,3 -5,6 6,6 11,1 17,-2 13,-5 z"
       id="path75"
       inkscape:connector-curvature="0" />
    <path
       d="m 5963,913 c 4,-3 10,-3 14,0 3,4 0,7 -7,7 -7,0 -10,-3 -7,-7 z"
       id="path77"
       inkscape:connector-curvature="0" />
    <path
       d="m 3953,853 c 4,-3 10,-3 14,0 3,4 0,7 -7,7 -7,0 -10,-3 -7,-7 z"
       id="path79"
       inkscape:connector-curvature="0" />
    <path
       d="m 3550,740 c 0,-7 3,-10 7,-7 3,4 3,10 0,14 -4,3 -7,0 -7,-7 z"
       id="path81"
       inkscape:connector-curvature="0" />
    <path
       d="m 3760,740 c 0,-7 3,-10 7,-7 3,4 3,10 0,14 -4,3 -7,0 -7,-7 z"
       id="path83"
       inkscape:connector-curvature="0" />
    <path
       d="m 5800,665 c -10,-11 -10,-15 -1,-15 7,0 9,-4 6,-10 -9,-14 4,-12 19,3 11,10 11,15 0,24 -9,9 -15,9 -24,-2 z"
       id="path85"
       inkscape:connector-curvature="0" />
    <path
       d="m 5741,604 c 0,-11 3,-14 6,-6 3,7 2,16 -1,19 -3,4 -6,-2 -5,-13 z"
       id="path87"
       inkscape:connector-curvature="0" />
    <path
       d="m 3580,590 c 0,-5 5,-10 11,-10 5,0 7,5 4,10 -3,6 -8,10 -11,10 -2,0 -4,-4 -4,-10 z"
       id="path89"
       inkscape:connector-curvature="0" />
    <path
       d="m 3660,590 c 0,-7 3,-10 7,-7 3,4 3,10 0,14 -4,3 -7,0 -7,-7 z"
       id="path91"
       inkscape:connector-curvature="0" />
    <path
       d="m 3662,550 c 0,-14 2,-19 5,-12 2,6 2,18 0,25 -3,6 -5,1 -5,-13 z"
       id="path93"
       inkscape:connector-curvature="0" />
    <path
       d="m 3681,544 c 0,-11 3,-14 6,-6 3,7 2,16 -1,19 -3,4 -6,-2 -5,-13 z"
       id="path95"
       inkscape:connector-curvature="0" />
    <path
       d="m 3580,540 c 0,-7 3,-10 7,-7 3,4 3,10 0,14 -4,3 -7,0 -7,-7 z"
       id="path97"
       inkscape:connector-curvature="0" />
    <path
       d="m 5703,535 c 0,-8 4,-15 9,-15 4,0 8,7 8,15 0,8 -4,15 -8,15 -5,0 -9,-7 -9,-15 z"
       id="path99"
       inkscape:connector-curvature="0" />
    <path
       d="m 5793,543 c 4,-3 10,-3 14,0 3,4 0,7 -7,7 -7,0 -10,-3 -7,-7 z"
       id="path101"
       inkscape:connector-curvature="0" />
    <path
       d="m 315,290 c 3,-5 10,-10 16,-10 5,0 9,5 9,10 0,6 -7,10 -16,10 -8,0 -12,-4 -9,-10 z"
       id="path103"
       inkscape:connector-curvature="0" />
    <path
       d="m 3233,289 c -11,-5 2,-8 35,-8 28,-1 52,1 52,3 0,8 -69,12 -87,5 z"
       id="path105"
       inkscape:connector-curvature="0" />
  </g>
  <g
     id="layer107"
     transform="translate(48.295585,1785.9531)"
     style="fill:#4e4924;stroke:none">
    <path
       d="m 2020,941 c 0,-6 -17,-11 -39,-11 -21,0 -56,-7 -77,-16 -22,-9 -57,-17 -79,-18 -33,-1 -41,-5 -43,-23 -4,-26 -36,-32 -49,-9 -12,22 -26,20 -35,-3 -7,-21 -30,-24 -57,-7 -8,5 -16,3 -22,-5 -6,-9 -9,-10 -9,-2 0,6 -8,12 -17,11 -38,0 -123,15 -123,22 0,5 -24,7 -52,7 -32,-1 -59,3 -67,11 -11,11 -16,10 -30,-1 -9,-7 -32,-15 -51,-16 -31,-3 -59,-6 -97,-10 -7,0 -12,-6 -10,-12 1,-6 -5,-14 -13,-16 -12,-4 -12,-3 -1,5 10,7 10,11 1,17 -6,4 -17,0 -23,-7 -14,-18 -75,-43 -83,-35 -4,3 -27,-2 -53,-12 -64,-25 -80,-30 -86,-30 -3,0 -13,-7 -22,-16 -8,-9 -25,-15 -37,-13 -11,1 -25,0 -31,-4 -5,-3 -77,-9 -160,-13 -82,-4 -153,-9 -157,-12 -5,-2 -8,3 -8,11 0,13 -12,16 -55,16 h -55 v -54 c 0,-33 -5,-60 -14,-68 -26,-27 -51,-86 -58,-137 -3,-31 4,-111 11,-111 4,0 11,19 14,43 3,23 14,58 24,77 l 18,35 3,-182 2,-183 h 225 225 v 44 45 l 48,3 c 45,3 47,4 50,35 3,25 8,33 23,33 11,0 29,5 40,10 16,9 19,7 19,-10 0,-19 6,-20 175,-20 164,0 175,1 175,19 0,15 7,18 48,16 26,-1 55,2 65,7 14,7 17,4 17,-17 v -25 h 175 175 v 43 c 0,48 7,62 25,47 7,-5 35,-11 63,-12 29,-1 52,-5 52,-8 0,-3 9,-7 20,-8 11,-1 29,-3 40,-4 15,-2 20,-10 20,-30 v -28 h 95 95 v -70 -70 h 60 60 v 74 c 0,77 12,102 43,90 9,-3 22,-2 29,2 24,15 40,13 45,-7 5,-17 15,-19 109,-19 h 104 v 35 c 0,28 4,35 20,35 11,0 20,7 20,15 0,10 10,15 30,15 28,0 30,3 30,36 0,31 2,34 15,20 11,-10 15,-36 15,-85 v -71 h 150 150 v 50 50 h 40 40 v -50 -50 h 105 105 v 50 50 h 50 50 v 46 c 0,28 6,51 16,61 10,10 13,25 10,39 -4,14 -2,24 4,24 5,0 10,4 10,8 0,5 -6,9 -13,9 -7,0 -14,-14 -15,-31 -6,-70 -12,-31 -12,72 v 112 h -30 c -22,0 -30,5 -30,17 0,15 -2,15 -12,2 -7,-8 -12,-12 -11,-10 5,8 -114,51 -164,60 l -53,8 v -39 -38 h -50 -50 V 585 420 h -90 c -87,0 -90,1 -90,23 0,18 2,19 10,7 8,-13 10,-12 10,3 0,10 8,21 18,24 9,4 20,11 24,17 3,5 21,11 40,12 48,2 48,2 48,23 0,23 -30,37 -42,19 -6,-10 -8,-10 -8,1 0,8 -3,11 -7,8 -11,-11 -32,13 -26,30 5,12 1,14 -14,9 -43,-14 -53,1 -53,80 v 74 h -55 -55 v -76 c 0,-67 -2,-74 -15,-60 -8,8 -15,22 -15,30 0,11 -9,16 -30,16 -28,0 -30,2 -30,39 0,22 -5,41 -12,43 -7,3 -47,6 -88,7 -41,1 -79,7 -84,12 -14,13 -60,11 -74,-3 -9,-9 -12,-8 -12,5 0,9 -6,17 -12,18 -31,2 -66,8 -97,15 -27,6 -32,4 -26,-6 6,-10 4,-11 -6,-4 -15,9 -30,11 -129,13 -93,1 -100,1 -100,-10 0,-5 -13,-9 -28,-9 -16,0 -32,-3 -35,-6 -4,-4 -21,-9 -39,-11 -18,-2 -46,-5 -63,-7 -16,-2 -49,-4 -72,-5 -36,-1 -43,-4 -43,-21 0,-22 -1,-22 -98,-25 -46,-1 -65,3 -71,13 -5,9 -15,12 -25,9 -10,-4 -19,-1 -22,8 -7,17 -114,22 -114,5 0,-5 -9,-10 -20,-10 -11,0 -20,5 -20,10 0,14 -347,13 -352,-1 -2,-6 -26,-13 -53,-16 -28,-3 -55,-10 -61,-15 -8,-6 -13,1 -16,22 -3,22 -1,30 11,31 46,2 64,7 71,19 4,7 21,13 36,13 16,0 38,5 49,12 20,13 90,27 149,29 17,1 37,5 44,9 7,5 20,6 30,3 9,-3 33,-7 52,-10 19,-2 58,-10 85,-16 28,-7 81,-13 118,-14 53,-1 72,-6 82,-19 11,-15 14,-15 25,-2 13,16 60,21 60,6 0,-11 81,-8 100,4 24,15 50,16 50,2 1,-6 9,-2 19,11 15,17 30,22 65,22 24,0 48,5 51,11 4,6 39,9 86,8 44,-1 82,1 85,4 3,3 21,1 40,-5 20,-5 57,-11 82,-13 26,-2 59,-5 75,-8 15,-3 27,-1 27,5 0,5 9,6 23,2 12,-4 32,-7 45,-6 12,1 22,-2 22,-6 0,-5 28,-10 62,-11 34,-1 68,-6 76,-10 8,-5 23,-6 33,-4 16,4 19,15 19,59 0,49 -2,53 -21,49 -12,-3 -27,-1 -33,3 -6,3 -36,8 -66,9 -60,3 -125,9 -125,13 0,5 -50,9 -137,13 -48,2 -86,1 -84,-2 2,-3 -17,-7 -42,-8 -31,-1 -41,1 -31,8 10,6 1,9 -28,9 -24,0 -43,-5 -46,-12 -4,-10 -7,-10 -18,0 -7,6 -24,12 -38,11 -23,0 -24,-1 -6,-8 17,-7 17,-8 -7,-13 -15,-3 -25,-2 -23,3 3,4 1,10 -5,14 -5,3 -10,1 -10,-4 z M 937,773 c -4,-3 -10,-3 -14,0 -3,4 0,7 7,7 7,0 10,-3 7,-7 z m -80,-40 c -4,-3 -10,-3 -14,0 -3,4 0,7 7,7 7,0 10,-3 7,-7 z m 2481,-47 c 19,-17 39,-31 45,-31 8,0 13,-37 15,-117 l 3,-118 h -86 -85 v 154 155 l 37,-6 c 21,-4 52,-20 71,-37 z m -2518,1 c 0,-7 4,-7 12,1 18,18 28,15 28,-8 0,-17 -7,-20 -45,-20 -43,0 -45,-1 -45,-30 0,-27 -3,-30 -32,-31 -18,-1 -44,-1 -58,0 -20,2 -22,0 -10,-8 12,-9 11,-11 -8,-11 -13,0 -20,4 -17,10 3,6 -3,10 -14,10 -12,0 -21,-7 -21,-15 0,-9 -9,-15 -25,-15 -32,0 -88,-28 -80,-40 3,-5 1,-11 -5,-15 -6,-4 -10,19 -10,64 v 70 l 40,11 c 94,24 118,28 174,29 33,1 62,3 63,5 9,9 53,2 53,-7 z M 634,300 c 113,0 169,7 160,21 -3,5 0,9 5,9 6,0 11,-13 11,-30 V 270 H 650 490 v 37 37 l 20,-22 c 19,-20 31,-22 124,-22 z"
       id="path108"
       inkscape:connector-curvature="0" />
    <path
       d="m 4220,943 c -14,-2 -32,-7 -40,-10 -8,-3 -24,-8 -35,-10 -10,-2 -22,-8 -26,-14 -3,-6 -9,-10 -13,-10 -26,5 -126,-34 -126,-49 0,-5 -10,-12 -22,-16 -13,-4 -25,-10 -28,-13 -3,-4 -36,-21 -75,-38 -76,-33 -94,-53 -46,-53 16,0 33,-4 36,-10 4,-6 -8,-10 -30,-10 -29,0 -36,-4 -33,-17 1,-10 -1,-24 -6,-32 -5,-8 -3,-16 5,-22 8,-5 11,-9 7,-10 -11,-2 -26,-6 -35,-9 -5,-1 -11,-2 -15,-1 -5,0 -8,-4 -8,-10 0,-6 9,-9 20,-6 14,4 20,0 20,-11 1,-12 9,-8 30,16 16,17 32,32 35,32 3,0 5,-49 5,-110 V 420 h -25 c -24,0 -25,-3 -25,-55 0,-52 1,-55 25,-55 23,0 25,-4 25,-45 v -45 h 55 c 48,0 55,2 55,20 0,13 7,20 20,20 11,0 20,-7 20,-15 0,-10 9,-15 28,-15 15,0 68,-1 117,-4 50,-3 81,-2 70,1 -11,3 -31,10 -45,15 -14,6 -43,11 -65,13 -59,5 -105,16 -105,26 0,5 -9,9 -20,9 -27,0 -25,18 3,22 19,3 22,10 25,56 3,50 2,52 -22,52 h -26 v 115 115 h 45 45 v 50 c 0,45 -2,50 -22,50 -19,1 -17,3 11,15 18,8 43,15 55,15 12,0 32,7 44,16 13,9 37,17 55,19 18,2 46,7 62,10 17,4 41,8 55,8 14,1 28,6 32,12 5,6 11,6 18,-1 8,-8 26,-8 58,-2 26,4 59,6 75,2 16,-3 27,-1 27,5 0,6 7,11 15,11 8,0 15,-4 15,-8 0,-10 41,-8 85,5 50,14 357,6 382,-10 7,-4 25,-10 40,-13 84,-14 99,-18 104,-27 4,-5 24,-11 45,-14 21,-2 43,-8 49,-13 6,-5 23,-11 39,-14 36,-6 46,-16 18,-16 -20,0 -22,-5 -22,-65 0,-36 -4,-65 -8,-65 -5,0 -19,9 -31,19 -16,14 -18,21 -9,24 13,5 -15,11 -39,8 -6,-1 -19,9 -28,21 -10,14 -19,18 -22,12 -2,-7 -13,-10 -23,-7 -11,3 -18,9 -15,13 3,5 2,15 -1,24 -5,12 -20,16 -60,16 -31,0 -54,-4 -54,-10 0,-7 -7,-7 -21,0 -12,7 -82,12 -165,13 l -144,2 v 29 c 0,16 -3,27 -6,23 -3,-3 -17,-2 -30,3 -16,7 -24,6 -24,-1 0,-6 -6,-9 -13,-6 -8,3 -20,1 -27,-3 -8,-5 -19,-6 -25,-2 -13,9 -105,9 -105,0 0,-13 -38,-18 -64,-9 -14,6 -26,7 -26,2 0,-4 -19,-7 -42,-6 -24,1 -52,-2 -63,-8 -19,-10 -19,-11 5,-18 17,-5 5,-7 -37,-8 -35,-1 -63,-5 -63,-11 0,-5 7,-10 15,-10 8,0 15,-4 15,-10 0,-5 -5,-10 -12,-10 -6,0 -9,-3 -5,-6 9,-10 -32,-44 -53,-44 -12,0 -20,-7 -20,-17 0,-10 -15,-25 -33,-34 -28,-14 -32,-21 -33,-60 -2,-34 3,-49 22,-68 20,-20 24,-21 24,-7 0,10 5,14 10,11 6,-3 10,-21 10,-40 0,-33 1,-34 43,-37 l 42,-3 3,-47 3,-48 h 154 154 l 3,28 c 4,33 22,32 26,-3 l 3,-25 h 173 c 160,0 174,1 178,18 3,10 11,20 19,21 108,15 109,14 109,-13 v -26 h 150 150 v 50 50 h 40 40 v -50 -50 h 105 105 v 49 50 l 48,3 47,3 3,98 c 2,60 7,97 13,97 6,0 9,-7 5,-15 -3,-9 0,-15 9,-15 8,0 15,9 15,20 0,13 -7,20 -20,20 -11,0 -20,7 -20,15 0,8 5,15 12,15 9,0 9,3 0,12 -7,7 -12,25 -12,40 v 28 h 135 134 l -8,-22 c -5,-13 -14,-22 -20,-20 -6,1 -11,-3 -11,-9 0,-6 -9,-8 -21,-4 -19,6 -21,4 -17,-16 4,-25 -27,-66 -37,-49 -9,15 -42,12 -49,-5 -5,-15 -2,-16 124,-19 31,-1 35,2 40,29 5,30 6,30 78,33 l 72,3 v -46 c 0,-43 -1,-45 -30,-45 -29,0 -30,-2 -30,-45 v -45 h -45 -45 v -55 -55 h 44 45 l 3,-47 3,-48 h 125 125 l 6,45 c 3,25 7,39 7,33 1,-7 15,-13 31,-13 16,0 31,-5 33,-11 2,-6 44,-11 109,-12 99,-2 105,-3 101,-21 -4,-15 -1,-18 12,-13 10,4 15,3 11,-3 -6,-10 29,-14 118,-13 l 47,1 v -48 c 0,-41 3,-48 18,-45 9,2 34,4 55,4 l 37,1 v 45 45 h 81 c 47,0 78,4 74,9 -3,5 9,10 27,10 118,3 148,5 148,12 0,4 -6,10 -12,12 -7,3 15,6 49,6 56,1 62,3 65,24 2,15 10,22 24,22 12,1 29,8 38,18 19,19 36,22 36,7 0,-5 7,-7 15,-4 12,5 15,-2 15,-30 v -36 h 125 125 v 50 50 h 49 c 42,0 50,3 56,23 21,61 23,64 24,35 1,-28 31,-42 31,-15 0,8 4,7 10,-3 15,-23 12,-30 -15,-30 -24,0 -25,-3 -25,-55 0,-52 1,-55 26,-55 22,0 25,-4 22,-27 -2,-19 -9,-27 -25,-28 -13,-1 -26,-5 -30,-10 -5,-4 -1,-6 9,-2 9,3 24,-1 35,-8 21,-16 123,-20 123,-5 0,6 9,10 20,10 11,0 20,4 20,10 0,5 -3,9 -7,9 -24,-4 -33,4 -33,26 0,20 5,25 25,25 24,0 25,3 25,55 0,45 -3,55 -17,56 -14,0 -15,2 -3,6 8,3 18,11 23,17 5,8 10,6 17,-4 9,-13 10,-13 10,0 0,13 1,13 10,0 8,-13 11,-12 24,5 15,19 15,19 16,-7 0,-26 3,-28 45,-28 h 45 v -50 -50 h 105 105 v 50 50 h 55 c 42,0 55,3 55,15 0,8 5,15 10,15 6,0 10,-28 10,-65 0,-71 -1,-70 80,-67 14,1 69,1 123,1 97,1 97,1 97,26 0,20 5,25 25,25 24,0 25,3 25,55 0,54 0,55 -30,55 -25,0 -30,-4 -30,-25 0,-19 -5,-25 -21,-25 -16,0 -19,4 -14,17 4,10 8,24 8,31 0,6 4,12 9,12 4,0 8,18 8,41 0,24 4,38 10,34 14,-9 13,8 -2,23 -7,7 -9,12 -5,12 4,0 1,14 -8,30 -9,17 -13,30 -10,30 17,0 -32,60 -50,61 -20,0 -20,0 0,9 14,6 2,9 -42,9 -35,1 -63,5 -63,11 0,6 -11,10 -24,10 -13,0 -32,3 -42,7 -16,6 -16,7 2,13 17,6 15,9 -13,23 -17,9 -39,14 -47,11 -9,-3 -27,1 -40,9 -13,9 -48,19 -77,23 -30,4 -57,12 -61,18 -5,7 -15,6 -33,-4 -22,-12 -28,-12 -35,-1 -4,8 -12,11 -18,7 -6,-3 -14,-1 -17,4 -5,8 -14,5 -27,-7 -13,-12 -38,-18 -81,-19 -34,-1 -64,-3 -67,-4 -14,-6 -36,-4 -47,3 -6,4 -14,3 -18,-3 -3,-6 -11,-8 -16,-5 -5,4 -9,1 -9,-6 0,-10 -26,-10 -85,4 -11,2 -23,0 -27,-6 -4,-7 -16,-4 -32,7 -20,13 -35,15 -59,9 -37,-10 -77,-6 -77,8 0,5 5,9 12,9 6,0 8,3 5,6 -4,4 -13,1 -22,-6 -8,-7 -15,-8 -15,-2 0,10 -38,26 -55,22 -30,-6 -95,-4 -95,3 0,5 -9,5 -20,2 -14,-4 -20,-2 -20,9 0,8 -12,17 -27,20 -16,4 -39,9 -53,12 -14,4 -56,8 -95,11 -38,3 -76,10 -82,15 -9,7 -18,7 -28,-2 -8,-7 -15,-8 -15,-2 0,6 -161,10 -465,11 -408,2 -465,0 -465,-13 0,-15 -58,-32 -92,-27 -9,1 -19,-3 -23,-9 -3,-5 -15,-10 -26,-10 -14,0 -19,7 -19,30 0,28 -2,30 -38,30 -36,0 -38,-2 -36,-30 1,-16 -1,-30 -4,-31 -44,-7 -92,-6 -92,0 0,11 -83,-9 -91,-22 -3,-5 -10,-9 -15,-10 -5,-1 -8,-4 -7,-7 1,-4 -9,-6 -21,-6 -17,0 -22,5 -19,17 4,13 -2,17 -29,16 -31,-1 -47,-11 -48,-30 0,-5 4,-6 9,-2 5,3 12,1 15,-3 6,-11 -40,-9 -50,1 -4,4 -1,7 6,7 22,0 -1,17 -32,24 -28,6 -28,6 -28,-49 0,-53 -13,-74 -23,-37 -4,16 -5,16 -6,0 0,-10 -6,-18 -12,-18 -6,0 -9,7 -6,15 4,8 2,17 -4,20 -5,4 -12,0 -15,-9 -8,-22 -51,0 -58,30 -5,17 -13,24 -30,24 -14,0 -26,-3 -28,-7 -1,-5 -25,-5 -53,-2 l -50,6 45,2 c 36,1 41,4 28,12 -18,10 -155,40 -195,43 -12,0 -25,4 -29,9 -4,4 -16,7 -26,7 -14,0 -18,-8 -18,-35 v -35 l -57,4 c -63,5 -109,19 -114,35 -6,15 -82,23 -201,23 -101,-1 -108,1 -108,19 0,19 -7,19 -207,18 -115,-2 -219,-4 -233,-6 z m 7,-20 c -4,-3 -10,-3 -14,0 -3,4 0,7 7,7 7,0 10,-3 7,-7 z m -60,-20 c -4,-3 -10,-3 -14,0 -3,4 0,7 7,7 7,0 10,-3 7,-7 z m 3210,0 c -4,-3 -10,-3 -14,0 -3,4 0,7 7,7 7,0 10,-3 7,-7 z m -282,-32 c 39,-4 85,-7 103,-6 17,2 32,0 32,-3 0,-8 42,-13 128,-15 50,-1 63,-5 68,-19 3,-10 14,-18 24,-18 11,0 23,-8 29,-17 8,-16 10,-16 16,-2 6,17 65,14 65,-3 0,-6 12,-8 29,-5 19,4 33,1 41,-8 8,-10 23,-13 45,-9 18,3 36,1 39,-5 4,-6 18,-6 36,-1 18,5 32,5 35,-1 4,-5 15,-9 26,-9 11,0 18,4 14,9 -6,10 6,9 58,-4 17,-5 27,-3 27,4 0,6 16,11 36,11 29,0 35,-3 30,-16 -3,-9 -6,-33 -6,-55 v -39 h -50 c -41,0 -50,-3 -50,-17 -1,-17 -2,-17 -14,0 -11,14 -29,18 -90,19 l -76,2 v 43 43 h -125 c -77,0 -125,-4 -125,-10 0,-16 -57,-12 -74,6 -12,12 -16,12 -17,2 0,-10 -2,-10 -6,1 -4,9 -7,10 -13,2 -5,-9 -26,-5 -76,13 -38,13 -80,23 -94,22 -14,-2 -28,2 -32,8 -6,8 -10,8 -15,0 -11,-16 -53,1 -53,21 0,8 -8,16 -17,17 -52,4 -101,7 -122,8 -14,0 -28,6 -33,12 -6,10 -8,10 -8,-1 0,-11 -3,-11 -17,0 -9,8 -14,9 -10,3 4,-7 -1,-14 -11,-16 -15,-4 -129,-2 -142,2 -16,6 -66,-4 -72,-14 -4,-6 -8,-6 -8,-1 0,6 -16,10 -35,10 -19,0 -35,-3 -35,-7 0,-3 -8,-5 -17,-3 -10,1 -12,0 -5,-2 31,-11 7,-22 -45,-20 -39,1 -57,-2 -56,-9 1,-7 -6,-10 -16,-7 -10,2 -24,-1 -32,-9 -8,-7 -25,-14 -39,-16 -14,-2 -30,-10 -36,-18 -13,-16 -104,-20 -104,-4 0,6 -21,11 -47,11 l -48,1 50,10 c 28,5 59,9 70,9 11,0 26,6 35,13 25,21 44,31 36,18 -7,-12 0,-11 42,4 14,6 13,8 -8,14 -23,7 -23,8 8,9 24,1 31,-2 26,-11 -9,-15 23,9 47,34 8,9 24,17 35,17 40,-1 287,11 291,14 6,7 289,-3 358,-12 z m -518,-67 c -3,-3 -12,-4 -19,-1 -8,3 -5,6 6,6 11,1 17,-2 13,-5 z m 1710,-28 c 29,-3 55,-1 58,4 7,11 64,2 83,-13 7,-5 15,-7 19,-4 3,4 14,2 24,-3 12,-7 20,-7 24,0 4,7 13,7 26,0 26,-14 24,-30 -3,-31 -22,-1 -22,-1 2,-9 24,-8 24,-8 3,-9 -18,-1 -23,-7 -23,-26 0,-24 -3,-26 -42,-23 -43,3 -43,3 -46,46 l -3,42 h -105 -104 v -34 c 0,-19 -4,-38 -10,-41 -24,-15 -54,-13 -67,3 -7,9 -13,13 -12,7 3,-22 -2,-26 -16,-11 -8,8 -15,28 -15,45 0,30 -2,31 -41,31 -26,0 -38,4 -33,11 4,7 29,9 65,6 38,-3 65,0 76,8 10,7 33,11 53,9 19,-2 59,-6 87,-8 z M 3887,713 c -4,-3 -7,0 -7,7 0,7 3,10 7,7 3,-4 3,-10 0,-14 z m 1579,5 c 18,-6 35,-20 37,-30 3,-10 17,-22 31,-28 26,-9 26,-10 26,-125 V 420 h -85 -85 v 155 c 0,153 0,155 22,155 12,0 36,-5 54,-12 z M 3930,679 c 0,-16 -7,-19 -37,-18 -21,1 -29,4 -19,6 15,4 16,7 5,14 -11,6 -8,9 9,9 12,0 22,5 22,11 0,5 5,7 10,4 6,-3 10,-15 10,-26 z m 4110,-39 c 0,-5 -2,-10 -4,-10 -3,0 -8,5 -11,10 -3,6 -1,10 4,10 6,0 11,-4 11,-10 z m 50,6 c 0,-3 -4,-8 -10,-11 -5,-3 -10,-1 -10,4 0,6 5,11 10,11 6,0 10,-2 10,-4 z M 5877,613 c -4,-3 -10,-3 -14,0 -3,4 0,7 7,7 7,0 10,-3 7,-7 z m 50,1 c -3,-3 -12,-4 -19,-1 -8,3 -5,6 6,6 11,1 17,-2 13,-5 z m 2756,-25 c 25,-29 43,-123 29,-152 -10,-21 -11,-21 -11,6 -1,22 -6,27 -26,27 -24,0 -25,2 -25,70 0,39 3,70 8,70 4,0 16,-9 25,-21 z M 7867,483 c -4,-3 -10,-3 -14,0 -3,4 0,7 7,7 7,0 10,-3 7,-7 z M 5280,440 c 0,-17 -6,-20 -37,-19 -28,1 -31,3 -13,6 14,3 29,11 33,19 11,20 17,17 17,-6 z m 831,13 c -9,-4 2,-13 28,-25 22,-10 41,-23 41,-27 0,-5 12,-14 28,-19 22,-9 10,-11 -60,-11 l -88,-1 v 45 c 0,44 1,45 33,44 17,0 26,-3 18,-6 z m 2202,-14 c 8,6 17,4 25,-5 11,-12 3,-14 -55,-12 -41,1 -53,3 -30,5 20,2 37,10 38,16 0,8 2,8 6,-1 3,-8 9,-10 16,-3 z m 87,-10 c 0,-5 -9,-9 -20,-9 -22,0 -27,16 -7,23 15,5 27,-1 27,-14 z m -780,1 c 11,-7 4,-10 -25,-9 -31,0 -36,2 -20,9 26,11 28,11 45,0 z m 60,0 c 0,-5 -9,-10 -21,-10 -11,0 -17,5 -14,10 3,6 13,10 21,10 8,0 14,-4 14,-10 z m 997,-77 c -4,-3 -10,-3 -14,0 -3,4 0,7 7,7 7,0 10,-3 7,-7 z"
       id="path110"
       inkscape:connector-curvature="0" />
    <path
       d="m 6266,748 c 3,-5 10,-6 15,-3 13,9 11,12 -6,12 -8,0 -12,-4 -9,-9 z"
       id="path112"
       inkscape:connector-curvature="0" />
    <path
       d="m 5963,913 c 4,-3 10,-3 14,0 3,4 0,7 -7,7 -7,0 -10,-3 -7,-7 z"
       id="path114"
       inkscape:connector-curvature="0" />
    <path
       d="m 3953,853 c 4,-3 10,-3 14,0 3,4 0,7 -7,7 -7,0 -10,-3 -7,-7 z"
       id="path116"
       inkscape:connector-curvature="0" />
    <path
       d="m 2892,834 c -9,-10 -9,-14 -1,-14 8,0 8,-4 -1,-15 -10,-13 -9,-15 9,-15 12,0 19,5 16,10 -3,6 0,10 7,10 9,0 9,3 2,8 -6,4 -13,12 -15,19 -3,8 -8,7 -17,-3 z"
       id="path118"
       inkscape:connector-curvature="0" />
    <path
       d="m 1995,810 c 4,-6 11,-8 16,-5 14,9 11,15 -7,15 -8,0 -12,-5 -9,-10 z"
       id="path120"
       inkscape:connector-curvature="0" />
    <path
       d="m 2985,799 c -16,-4 -25,-8 -20,-9 48,-9 58,-9 72,-2 13,8 13,10 -3,14 -11,2 -32,1 -49,-3 z"
       id="path122"
       inkscape:connector-curvature="0" />
    <path
       d="m 3550,740 c 0,-7 3,-10 7,-7 3,4 3,10 0,14 -4,3 -7,0 -7,-7 z"
       id="path124"
       inkscape:connector-curvature="0" />
    <path
       d="m 3760,740 c 0,-7 3,-10 7,-7 3,4 3,10 0,14 -4,3 -7,0 -7,-7 z"
       id="path126"
       inkscape:connector-curvature="0" />
    <path
       d="m 5140,740 c 0,-5 9,-10 21,-10 11,0 17,5 14,10 -3,6 -13,10 -21,10 -8,0 -14,-4 -14,-10 z"
       id="path128"
       inkscape:connector-curvature="0" />
    <path
       d="m 5800,665 c -10,-11 -10,-15 -1,-15 7,0 9,-4 6,-10 -9,-14 4,-12 19,3 11,10 11,15 0,24 -9,9 -15,9 -24,-2 z"
       id="path130"
       inkscape:connector-curvature="0" />
    <path
       d="m 5741,604 c 0,-11 3,-14 6,-6 3,7 2,16 -1,19 -3,4 -6,-2 -5,-13 z"
       id="path132"
       inkscape:connector-curvature="0" />
    <path
       d="m 3580,590 c 0,-5 5,-10 11,-10 5,0 7,5 4,10 -3,6 -8,10 -11,10 -2,0 -4,-4 -4,-10 z"
       id="path134"
       inkscape:connector-curvature="0" />
    <path
       d="m 3660,590 c 0,-7 3,-10 7,-7 3,4 3,10 0,14 -4,3 -7,0 -7,-7 z"
       id="path136"
       inkscape:connector-curvature="0" />
    <path
       d="m 3661,554 c 0,-11 3,-14 6,-6 3,7 2,16 -1,19 -3,4 -6,-2 -5,-13 z"
       id="path138"
       inkscape:connector-curvature="0" />
    <path
       d="m 3713,535 c 0,-8 4,-12 9,-9 4,3 8,-1 8,-8 0,-9 3,-9 10,2 14,22 12,30 -8,30 -10,0 -19,-7 -19,-15 z"
       id="path140"
       inkscape:connector-curvature="0" />
    <path
       d="m 5703,535 c 0,-8 4,-15 9,-15 4,0 8,4 8,9 0,6 -4,12 -8,15 -5,3 -9,-1 -9,-9 z"
       id="path142"
       inkscape:connector-curvature="0" />
    <path
       d="m 5793,543 c 4,-3 10,-3 14,0 3,4 0,7 -7,7 -7,0 -10,-3 -7,-7 z"
       id="path144"
       inkscape:connector-curvature="0" />
    <path
       d="m 5873,543 c 9,-2 25,-2 35,0 9,3 1,5 -18,5 -19,0 -27,-2 -17,-5 z"
       id="path146"
       inkscape:connector-curvature="0" />
    <path
       d="m 5931,534 c 0,-11 3,-14 6,-6 3,7 2,16 -1,19 -3,4 -6,-2 -5,-13 z"
       id="path148"
       inkscape:connector-curvature="0" />
    <path
       d="m 3770,530 c 0,-7 3,-10 7,-7 3,4 3,10 0,14 -4,3 -7,0 -7,-7 z"
       id="path150"
       inkscape:connector-curvature="0" />
    <path
       d="m 330,350 c 0,-7 3,-10 7,-7 3,4 3,10 0,14 -4,3 -7,0 -7,-7 z"
       id="path152"
       inkscape:connector-curvature="0" />
    <path
       d="m 315,290 c 3,-5 10,-10 16,-10 5,0 9,5 9,10 0,6 -7,10 -16,10 -8,0 -12,-4 -9,-10 z"
       id="path154"
       inkscape:connector-curvature="0" />
    <path
       d="m 3243,283 c 15,-2 39,-2 55,0 15,2 2,4 -28,4 -30,0 -43,-2 -27,-4 z"
       id="path156"
       inkscape:connector-curvature="0" />
    <path
       d="m 7553,254 c 0,-10 7,-14 19,-11 10,3 20,1 23,-4 7,-10 35,-1 35,12 0,4 -7,5 -17,2 -11,-4 -14,-3 -9,5 5,8 -2,12 -22,12 -19,0 -29,-5 -29,-16 z"
       id="path158"
       inkscape:connector-curvature="0" />
    <path
       d="m 7694,261 c -14,-14 3,-21 52,-21 30,0 53,4 50,9 -3,5 -16,7 -28,3 -14,-3 -19,-1 -14,6 4,8 -4,11 -24,9 -18,-1 -33,-4 -36,-6 z"
       id="path160"
       inkscape:connector-curvature="0" />
    <path
       d="m 7400,245 c 0,-8 4,-15 10,-15 5,0 7,7 4,15 -4,8 -8,15 -10,15 -2,0 -4,-7 -4,-15 z"
       id="path162"
       inkscape:connector-curvature="0" />
    <path
       d="m 7474,249 c -13,-6 -6,-8 23,-7 23,1 40,4 38,7 -9,8 -41,8 -61,0 z"
       id="path164"
       inkscape:connector-curvature="0" />
    <path
       d="m 7645,250 c -3,-5 1,-10 9,-10 8,0 18,5 21,10 3,6 -1,10 -9,10 -8,0 -18,-4 -21,-10 z"
       id="path166"
       inkscape:connector-curvature="0" />
    <path
       d="m 7376,243 c -4,-5 -11,-8 -14,-9 -37,-6 -72,-18 -72,-24 0,-9 81,9 94,21 5,5 7,11 5,14 -3,3 -9,2 -13,-2 z"
       id="path168"
       inkscape:connector-curvature="0" />
    <path
       d="m 7434,238 c -4,-7 -3,-8 4,-4 7,4 12,9 12,12 0,8 -9,4 -16,-8 z"
       id="path170"
       inkscape:connector-curvature="0" />
    <path
       d="m 5057,233 c -4,-3 -23,-5 -44,-5 -22,0 -45,-4 -53,-9 -11,-8 1,-9 40,-5 30,3 74,6 98,6 23,0 42,4 42,9 0,9 -74,13 -83,4 z"
       id="path172"
       inkscape:connector-curvature="0" />
    <path
       d="m 4379,219 c -10,-6 -7,-9 14,-9 29,0 35,5 14,13 -8,3 -20,1 -28,-4 z"
       id="path174"
       inkscape:connector-curvature="0" />
    <path
       d="m 4865,219 c -15,-6 -11,-8 18,-8 20,-1 37,1 37,3 0,9 -37,12 -55,5 z"
       id="path176"
       inkscape:connector-curvature="0" />
    <path
       d="m 4238,213 c 7,-3 16,-2 19,1 4,3 -2,6 -13,5 -11,0 -14,-3 -6,-6 z"
       id="path178"
       inkscape:connector-curvature="0" />
    <path
       d="m 4440,210 c 8,-5 20,-10 25,-10 6,0 3,5 -5,10 -8,5 -19,10 -25,10 -5,0 -3,-5 5,-10 z"
       id="path180"
       inkscape:connector-curvature="0" />
    <path
       d="m 4495,210 c -3,-5 3,-10 15,-10 12,0 18,5 15,10 -3,6 -10,10 -15,10 -5,0 -12,-4 -15,-10 z"
       id="path182"
       inkscape:connector-curvature="0" />
    <path
       d="m 4620,209 c 0,-5 5,-7 10,-4 6,3 10,8 10,11 0,2 -4,4 -10,4 -5,0 -10,-5 -10,-11 z"
       id="path184"
       inkscape:connector-curvature="0" />
    <path
       d="m 7120,200 c 0,-12 30,-12 85,-1 38,8 37,9 -22,10 -36,1 -63,-3 -63,-9 z"
       id="path186"
       inkscape:connector-curvature="0" />
    <path
       d="m 6923,163 c 4,-3 10,-3 14,0 3,4 0,7 -7,7 -7,0 -10,-3 -7,-7 z"
       id="path188"
       inkscape:connector-curvature="0" />
  </g>
  <g
     id="layer108"
     transform="translate(11.938965,1826.6384)"
     style="fill:#665a1a;stroke:none">
    <path
       d="m 6853,854 c 4,-7 -1,-14 -11,-16 -15,-4 -129,-2 -142,2 -16,6 -66,-4 -72,-14 -4,-6 -8,-6 -8,-1 0,6 -16,10 -35,10 -19,0 -35,-3 -35,-7 0,-3 -8,-5 -17,-3 -10,1 -12,0 -5,-2 31,-11 7,-22 -45,-20 -39,1 -57,-2 -56,-9 1,-7 -6,-10 -16,-7 -10,2 -24,-1 -32,-9 -8,-7 -25,-14 -39,-16 -14,-2 -30,-10 -36,-18 -13,-16 -104,-20 -104,-4 0,6 -48,10 -125,10 h -125 v -50 -50 h 75 75 v -45 c 0,-43 -1,-45 -30,-45 -29,0 -30,-2 -30,-45 v -45 h -45 -45 v -55 -55 h 44 45 l 3,-47 3,-48 h 125 125 l 6,45 c 3,25 7,39 7,33 1,-7 15,-13 31,-13 16,0 31,-5 33,-11 2,-6 44,-11 109,-12 99,-2 105,-3 101,-21 -4,-15 -1,-18 12,-13 10,4 15,3 11,-3 -6,-10 29,-14 118,-13 l 47,1 v -44 -44 h 55 55 v 45 45 h 81 c 47,0 78,4 74,9 -3,5 9,10 27,10 118,3 148,5 148,12 0,4 -6,10 -12,12 -7,3 15,6 49,6 56,1 62,3 65,24 2,15 10,22 24,22 12,1 29,8 38,18 19,19 36,22 36,7 0,-5 7,-7 15,-4 12,5 15,-2 15,-30 v -36 h 125 125 v 50 50 h 49 c 42,0 50,3 56,23 21,61 23,64 24,35 1,-28 31,-42 31,-15 0,8 4,7 10,-3 15,-23 12,-30 -15,-30 -24,0 -25,-3 -25,-55 0,-52 1,-55 25,-55 23,0 25,-4 25,-45 v -45 h 55 55 v 45 c 0,41 2,45 25,45 24,0 25,3 25,55 0,45 -3,55 -17,56 -14,0 -15,2 -3,6 8,3 18,11 23,17 5,8 10,6 17,-4 9,-13 10,-13 10,0 0,13 1,13 10,0 8,-13 11,-12 24,5 15,19 15,19 16,-7 0,-26 3,-28 45,-28 h 45 v -50 -50 h 105 105 v 50 50 h 55 c 42,0 55,3 55,15 0,8 5,15 10,15 6,0 10,-28 10,-65 v -65 h 55 c 52,0 55,1 55,25 0,18 5,25 20,25 15,0 20,-7 20,-25 0,-24 2,-25 75,-25 73,0 75,1 75,25 0,20 5,25 25,25 24,0 25,3 25,55 0,54 0,55 -30,55 -25,0 -30,-4 -30,-25 0,-24 -2,-25 -65,-25 -63,0 -65,1 -65,25 0,20 -5,25 -25,25 h -25 v 140 140 h -55 c -30,0 -55,-4 -55,-10 0,-5 -10,-10 -22,-11 -22,-1 -22,-1 2,-9 24,-8 24,-8 3,-9 -18,-1 -23,-7 -23,-26 0,-24 -3,-26 -42,-23 -43,3 -43,3 -46,46 l -3,42 h -105 -104 v -34 c 0,-19 -4,-38 -10,-41 -24,-15 -54,-13 -67,3 -7,9 -13,13 -12,7 3,-22 -2,-26 -16,-11 -8,8 -15,28 -15,45 0,31 0,31 -55,31 h -55 v -45 -45 h -50 c -41,0 -50,-3 -50,-17 -1,-17 -2,-17 -14,0 -11,14 -29,18 -90,19 l -76,2 v 43 43 h -125 c -77,0 -125,-4 -125,-10 0,-16 -57,-12 -74,6 -12,12 -16,12 -16,2 0,-10 -2,-10 -9,1 -6,9 -10,10 -12,2 -3,-9 -25,-5 -74,12 -39,14 -81,24 -95,23 -14,-2 -28,2 -32,8 -6,8 -10,8 -15,0 -11,-16 -53,1 -53,21 0,8 -8,16 -17,17 -52,4 -101,7 -122,8 -14,0 -28,6 -33,12 -6,10 -8,10 -8,-1 0,-11 -3,-11 -17,0 -9,8 -14,9 -10,3 z m -276,-50 c -3,-3 -12,-4 -19,-1 -8,3 -5,6 6,6 11,1 17,-2 13,-5 z M 8040,640 c 0,-5 -2,-10 -4,-10 -3,0 -8,5 -11,10 -3,6 -1,10 4,10 6,0 11,-4 11,-10 z m 50,6 c 0,-3 -4,-8 -10,-11 -5,-3 -10,-1 -10,4 0,6 5,11 10,11 6,0 10,-2 10,-4 z M 7867,483 c -4,-3 -10,-3 -14,0 -3,4 0,7 7,7 7,0 10,-3 7,-7 z M 6111,453 c -9,-4 2,-13 28,-25 22,-10 41,-23 41,-27 0,-5 12,-14 28,-19 22,-9 10,-11 -60,-11 l -88,-1 v 45 c 0,44 1,45 33,44 17,0 26,-3 18,-6 z m 2202,-14 c 8,6 17,4 25,-5 11,-12 3,-14 -55,-12 -41,1 -53,3 -30,5 20,2 37,10 38,16 0,8 2,8 6,-1 3,-8 9,-10 16,-3 z m 87,-10 c 0,-5 -9,-9 -20,-9 -22,0 -27,16 -7,23 15,5 27,-1 27,-14 z m -780,1 c 11,-7 4,-10 -25,-9 -31,0 -36,2 -20,9 26,11 28,11 45,0 z m 60,0 c 0,-5 -9,-10 -21,-10 -11,0 -17,5 -14,10 3,6 13,10 21,10 8,0 14,-4 14,-10 z"
       id="path191"
       inkscape:connector-curvature="0" />
    <path
       d="m 4600,809 c 0,-6 -6,-9 -13,-6 -8,3 -20,1 -27,-3 -8,-5 -19,-6 -25,-2 -13,9 -105,9 -105,0 0,-13 -38,-18 -64,-9 -14,6 -26,7 -26,2 0,-4 -19,-7 -42,-6 -24,1 -52,-2 -63,-8 -19,-10 -19,-11 5,-18 17,-5 5,-7 -37,-8 -35,-1 -63,-5 -63,-11 0,-5 7,-10 15,-10 8,0 15,-4 15,-10 0,-5 -5,-10 -12,-10 -6,0 -9,-3 -6,-6 10,-10 -31,-44 -52,-44 -12,0 -20,-7 -20,-17 0,-10 -15,-25 -33,-34 -28,-14 -32,-21 -33,-60 -2,-34 3,-49 22,-68 20,-20 24,-21 24,-7 0,10 5,14 10,11 6,-3 10,-21 10,-40 0,-33 1,-34 43,-37 l 42,-3 3,-48 3,-47 h 154 154 l 3,28 c 2,15 8,27 13,27 6,0 11,-12 13,-27 l 3,-28 h 173 c 160,0 174,1 178,18 3,10 11,20 19,21 108,15 109,14 109,-13 v -26 h 150 150 v 50 50 h 40 40 v -50 -50 h 105 105 v 49 50 l 48,3 47,3 3,168 2,167 h -60 -60 V 585 420 h -85 -85 v 165 165 h -55 -55 v -65 c 0,-36 -4,-65 -8,-65 -5,0 -19,9 -31,19 -16,14 -18,21 -9,24 13,5 -15,11 -39,8 -6,-1 -19,9 -28,21 -10,14 -19,18 -22,12 -2,-7 -13,-10 -23,-7 -11,3 -18,9 -15,13 3,5 2,15 -1,24 -5,12 -20,16 -60,16 -31,0 -54,-4 -54,-10 0,-7 -7,-7 -21,0 -12,7 -82,12 -165,13 l -144,2 v 29 c 0,16 -3,27 -6,23 -3,-3 -17,-2 -30,3 -16,7 -24,6 -24,-1 z m 680,-369 c 0,-17 -6,-20 -37,-19 -28,1 -31,3 -13,6 14,3 29,11 33,19 11,20 17,17 17,-6 z"
       id="path193"
       inkscape:connector-curvature="0" />
    <path
       d="m 2168,804 c -3,-3 -20,-6 -37,-6 -17,-1 -31,-5 -31,-10 0,-4 -13,-8 -28,-8 -16,0 -32,-3 -35,-6 -4,-4 -21,-9 -39,-11 -18,-2 -46,-5 -63,-7 -16,-2 -49,-4 -72,-5 -36,-1 -43,-4 -43,-21 0,-22 -1,-22 -99,-25 -46,-1 -64,2 -68,13 -3,8 -14,11 -25,9 -11,-3 -22,0 -25,9 -6,16 -113,20 -113,4 0,-5 -9,-10 -20,-10 -11,0 -20,5 -20,10 0,14 -347,13 -352,-1 -2,-6 -26,-13 -53,-16 -28,-3 -56,-10 -62,-16 -10,-7 -13,-3 -13,17 0,25 -2,26 -55,26 h -55 v -45 -45 h -45 c -43,0 -45,-1 -45,-30 0,-27 -3,-30 -32,-31 -18,-1 -44,-1 -58,0 -20,2 -22,0 -10,-8 12,-9 11,-11 -8,-11 -13,0 -20,4 -17,10 3,5 -3,10 -14,10 -12,0 -21,-7 -21,-15 0,-9 -9,-15 -25,-15 -32,0 -88,-28 -80,-40 3,-5 1,-11 -5,-15 -7,-4 -10,35 -10,114 V 750 H 435 380 V 460 170 h 225 225 v 44 45 l 48,3 c 45,3 47,4 50,35 3,25 8,33 23,33 11,0 29,5 40,10 16,9 19,7 19,-10 0,-19 6,-20 175,-20 164,0 175,1 175,19 0,15 7,18 48,16 26,-1 55,2 65,7 14,7 17,4 17,-17 v -25 h 175 175 v 43 c 0,48 7,62 25,47 7,-5 35,-11 63,-12 29,-1 52,-5 52,-8 0,-3 9,-7 20,-8 11,-1 29,-3 40,-4 15,-2 20,-10 20,-30 v -28 h 95 95 v -70 -70 h 60 60 v 74 c 0,77 12,102 43,90 9,-3 22,-2 29,2 24,15 40,13 45,-7 5,-17 15,-19 109,-19 h 104 v 35 c 0,28 4,35 20,35 11,0 20,7 20,15 0,10 10,15 30,15 28,0 30,3 30,36 0,31 2,34 15,20 11,-10 15,-36 15,-85 v -71 h 150 150 v 50 50 h 40 40 v -50 -50 h 105 105 v 50 50 h 50 50 v 170 170 h -60 -60 V 585 420 h -85 -85 v 165 165 h -55 -55 V 585 420 h -90 c -87,0 -90,1 -90,23 0,18 2,19 10,7 8,-13 10,-12 10,3 0,10 8,21 18,24 9,4 20,11 24,17 3,5 21,11 40,12 48,2 48,2 48,23 0,23 -30,37 -42,19 -6,-10 -8,-10 -8,1 0,8 -3,11 -7,8 -11,-11 -32,13 -26,30 5,12 1,14 -14,9 -43,-14 -53,1 -53,80 v 74 h -55 -55 v -76 c 0,-67 -2,-74 -15,-60 -8,8 -15,22 -15,30 0,11 -9,16 -30,16 -28,0 -30,2 -30,39 0,22 -5,41 -12,43 -7,3 -47,6 -88,7 -41,1 -79,7 -84,12 -14,13 -60,11 -74,-3 -9,-9 -12,-8 -12,5 0,9 -6,17 -12,18 -31,2 -66,8 -97,15 -27,6 -32,4 -26,-6 6,-9 4,-11 -6,-5 -7,5 -36,10 -64,12 -27,1 -59,5 -71,8 -12,2 -23,2 -26,-1 z M 634,300 c 113,0 169,7 160,21 -3,5 0,9 5,9 6,0 11,-13 11,-30 V 270 H 650 490 v 37 37 l 20,-22 c 19,-20 31,-22 124,-22 z"
       id="path195"
       inkscape:connector-curvature="0" />
    <path
       d="m 6266,748 c 3,-5 10,-6 15,-3 13,9 11,12 -6,12 -8,0 -12,-4 -9,-9 z"
       id="path197"
       inkscape:connector-curvature="0" />
    <path
       d="m 3930,705 v -45 h -45 -45 V 540 420 h -25 c -24,0 -25,-3 -25,-55 0,-52 1,-55 25,-55 23,0 25,-4 25,-45 v -45 h 55 55 v 44 c 0,39 3,45 23,48 19,3 22,10 25,56 3,50 2,52 -22,52 h -26 v 115 115 h 45 45 v 50 50 h -55 -55 z"
       id="path199"
       inkscape:connector-curvature="0" />
    <path
       d="m 5140,740 c 0,-5 9,-10 21,-10 11,0 17,5 14,10 -3,6 -13,10 -21,10 -8,0 -14,-4 -14,-10 z"
       id="path201"
       inkscape:connector-curvature="0" />
  </g>
  <g
     id="layer109"
     transform="translate(11.938965,1826.6384)"
     style="fill:#635a21;stroke:none">
    <path
       d="m 6853,854 c 4,-7 -1,-14 -11,-16 -15,-4 -129,-2 -142,2 -16,6 -66,-4 -72,-14 -4,-6 -8,-6 -8,-1 0,6 -16,10 -35,10 -19,0 -35,-3 -35,-7 0,-3 -8,-5 -17,-3 -10,1 -12,0 -5,-2 31,-11 7,-22 -45,-20 -39,1 -57,-2 -56,-9 1,-7 -6,-10 -16,-7 -10,2 -24,-1 -32,-9 -8,-7 -25,-14 -39,-16 -14,-2 -30,-10 -36,-18 -13,-16 -104,-20 -104,-4 0,6 -48,10 -125,10 h -125 v -50 -50 h 75 75 v -45 c 0,-43 -1,-45 -30,-45 -29,0 -30,-2 -30,-44 v -45 l -42,-3 -43,-3 -3,-52 -3,-53 h 50 51 v -50 -51 l 123,3 122,3 6,45 c 3,25 7,39 7,33 1,-7 15,-13 31,-13 16,0 31,-5 33,-10 3,-11 106,-15 266,-12 l 92,2 v 49 c 0,41 3,50 21,54 19,5 20,2 18,-69 -1,-55 -5,-74 -15,-74 -8,0 -14,-4 -14,-10 0,-5 7,-7 15,-4 12,5 15,-3 15,-40 v -46 h 55 55 l 1,48 c 0,26 0,75 -1,110 -1,35 3,69 8,75 6,7 30,11 61,9 l 50,-4 3,-46 3,-47 153,-3 152,-3 v 101 100 h -25 c -22,0 -25,3 -19,25 6,25 -7,46 -36,58 -8,3 6,6 33,6 l 47,1 v 40 c 0,31 4,40 18,40 15,0 17,-12 14,-135 l -4,-135 h 51 51 v -50 -50 h 125 125 v 50 50 h 50 50 l 1,43 c 1,36 2,38 9,17 7,-21 8,-22 9,-5 1,15 8,20 32,21 17,1 25,-2 19,-6 -9,-6 -9,-13 -1,-28 15,-29 14,-32 -14,-32 -24,0 -25,-3 -25,-55 0,-52 1,-55 25,-55 23,0 25,-4 25,-45 v -45 h 55 55 v 45 c 0,41 2,45 25,45 24,0 25,3 25,55 0,52 -1,55 -26,55 -24,0 -25,2 -22,52 l 3,53 63,3 62,3 v -60 -61 h 44 45 l 3,-47 3,-48 103,-3 102,-3 v 51 50 h 55 c 42,0 55,3 55,15 0,8 5,15 10,15 6,0 10,-28 10,-65 v -65 h 55 c 52,0 55,1 55,25 0,18 5,25 20,25 15,0 20,-7 20,-25 0,-24 2,-25 75,-25 73,0 75,1 75,25 0,20 5,25 25,25 24,0 25,3 25,55 0,54 0,55 -30,55 -25,0 -30,-4 -30,-25 0,-24 -2,-25 -64,-25 -59,0 -65,2 -68,23 -2,14 -11,23 -25,25 -23,3 -23,6 -23,143 v 139 h -55 c -30,0 -55,-4 -55,-10 0,-5 -10,-10 -22,-11 -22,-1 -22,-1 2,-9 24,-8 24,-8 3,-9 -18,-1 -23,-7 -23,-26 0,-24 -3,-26 -42,-23 -43,3 -43,3 -46,46 l -3,42 h -105 -104 v -34 c 0,-19 -4,-38 -10,-41 -24,-15 -54,-13 -67,3 -7,9 -13,13 -12,7 3,-22 -2,-26 -16,-11 -8,8 -15,28 -15,45 0,31 0,31 -55,31 h -55 v -45 -45 h -50 c -41,0 -50,-3 -50,-17 -1,-17 -2,-17 -14,0 -11,14 -29,18 -90,19 l -76,2 v 43 43 h -125 c -77,0 -125,-4 -125,-10 0,-16 -57,-12 -74,6 -12,12 -16,12 -16,2 0,-10 -2,-10 -9,1 -6,9 -10,10 -12,2 -3,-9 -25,-5 -74,12 -39,14 -81,24 -95,23 -14,-2 -28,2 -32,8 -6,8 -10,8 -15,0 -11,-16 -53,1 -53,21 0,8 -8,16 -17,17 -52,4 -101,7 -122,8 -14,0 -28,6 -33,12 -6,10 -8,10 -8,-1 0,-11 -3,-11 -17,0 -9,8 -14,9 -10,3 z m -276,-50 c -3,-3 -12,-4 -19,-1 -8,3 -5,6 6,6 11,1 17,-2 13,-5 z m 562,-50 c 2,-2 -14,-4 -37,-4 -23,0 -42,4 -42,9 0,9 69,4 79,-5 z m -542,0 c -3,-3 -12,-4 -19,-1 -8,3 -5,6 6,6 11,1 17,-2 13,-5 z m 191,-1 c -14,-4 -18,-15 -18,-59 0,-30 -3,-54 -6,-54 -16,0 -34,33 -34,62 0,34 24,55 60,56 10,0 9,-2 -2,-5 z m 205,-10 c 4,-2 7,-22 7,-44 v -39 h -45 c -25,0 -48,0 -51,1 -4,0 -11,-5 -15,-13 -5,-8 -9,10 -9,46 0,47 3,57 15,53 8,-4 17,-2 21,4 5,9 57,4 77,-8 z m 210,10 c -7,-2 -19,-2 -25,0 -7,3 -2,5 12,5 14,0 19,-2 13,-5 z m -775,-76 c 3,-13 -4,-17 -29,-17 -32,0 -32,0 -14,20 21,23 38,22 43,-3 z m 949,-14 c -4,-3 -10,-3 -14,0 -3,4 0,7 7,7 7,0 10,-3 7,-7 z m -791,-28 c -8,-8 -27,-16 -41,-17 -29,-3 -40,-13 -48,-43 -4,-18 -5,-18 -6,2 -1,16 -6,21 -16,17 -8,-4 -15,-12 -15,-20 0,-8 -4,-14 -10,-14 -5,0 -10,20 -10,45 v 45 h 81 c 72,0 79,-2 65,-15 z m 31,-2 c -4,-3 -7,0 -7,7 0,7 3,10 7,7 3,-4 3,-10 0,-14 z m 420,10 c -4,-3 -10,-3 -14,0 -3,4 0,7 7,7 7,0 10,-3 7,-7 z m 93,-2 c 0,-5 -9,-7 -20,-4 -11,3 -20,7 -20,9 0,2 9,4 20,4 11,0 20,-4 20,-9 z m 70,-8 c 0,-10 3,-28 6,-40 4,-14 2,-23 -5,-23 -6,0 -11,7 -11,15 0,8 -5,14 -12,13 -6,-2 -14,6 -16,17 -2,11 -9,23 -16,27 -6,4 4,8 22,8 24,0 32,-4 32,-17 z m 840,7 c 0,-5 -2,-10 -4,-10 -3,0 -8,5 -11,10 -3,6 -1,10 4,10 6,0 11,-4 11,-10 z m 50,6 c 0,-3 -4,-8 -10,-11 -5,-3 -10,-1 -10,4 0,6 5,11 10,11 6,0 10,-2 10,-4 z m -561,-56 c 15,8 17,5 16,-21 -1,-16 4,-37 11,-47 12,-16 13,-15 14,6 0,24 16,30 23,10 2,-7 3,-6 2,2 -2,8 -6,24 -11,35 -7,17 -5,18 8,8 8,-7 18,-9 22,-5 4,4 7,3 6,-3 -1,-5 -2,-22 -1,-37 1,-24 5,-28 31,-28 27,0 30,-3 29,-32 0,-27 -2,-29 -8,-13 -8,19 -8,19 -19,-2 -16,-29 -15,-32 8,-26 11,3 20,0 20,-6 0,-7 -37,-11 -115,-11 h -115 v 94 c 0,123 4,134 37,96 19,-23 29,-28 42,-20 z m 778,13 c -4,-3 -7,0 -7,7 0,7 3,10 7,7 3,-4 3,-10 0,-14 z M 6321,417 c -5,-5 -17,-7 -26,-3 -15,5 -15,9 -4,22 12,14 11,16 -6,12 -13,-2 -24,5 -32,20 -15,28 -17,66 -4,58 15,-10 56,34 53,56 -2,12 0,18 7,14 6,-4 12,-1 13,6 1,7 4,-29 5,-81 2,-53 -1,-99 -6,-104 z m 1999,143 c 0,-24 -4,-30 -21,-30 -15,0 -19,4 -15,16 3,9 6,22 6,30 0,8 7,14 15,14 10,0 15,-10 15,-30 z m 80,11 c 0,-10 -9,-21 -19,-24 -28,-7 -32,2 -13,23 22,24 32,24 32,1 z m -173,-33 c -3,-7 -5,-2 -5,12 0,14 2,19 5,13 2,-7 2,-19 0,-25 z m -427,7 c 0,-8 -4,-15 -10,-15 -5,0 -7,7 -4,15 4,8 8,15 10,15 2,0 4,-7 4,-15 z m 470,-6 c 0,-5 -4,-9 -10,-9 -5,0 -10,7 -10,16 0,8 5,12 10,9 6,-3 10,-10 10,-16 z m -562,-13 c -7,-8 -15,-12 -17,-11 -5,6 10,25 20,25 5,0 4,-6 -3,-14 z m 639,-3 c -4,-3 -7,0 -7,7 0,7 3,10 7,7 3,-4 3,-10 0,-14 z m -19,-44 c -1,-26 3,-43 13,-50 9,-6 -10,-8 -56,-7 -39,1 -54,3 -33,5 l 37,4 -6,45 c -6,43 -5,44 21,44 25,0 27,-3 24,-41 z m 72,-9 c 0,-43 -3,-50 -20,-50 -11,0 -20,5 -20,10 0,6 5,10 11,10 7,0 8,14 4,40 -6,33 -4,40 9,40 13,0 16,-11 16,-50 z m -140,15 c 0,-1 -8,-5 -18,-7 -11,-3 -19,0 -19,7 0,7 8,10 19,7 10,-2 18,-6 18,-7 z M 6111,453 c -9,-4 2,-13 28,-25 22,-10 41,-23 41,-27 0,-5 12,-14 28,-19 22,-9 10,-11 -60,-11 l -88,-1 v 45 c 0,44 1,45 33,44 17,0 26,-3 18,-6 z m 389,-15 c 0,-13 -8,-18 -30,-18 -22,0 -30,5 -30,18 0,14 8,19 30,19 22,0 30,-5 30,-19 z m 691,3 c 7,11 9,11 9,-3 0,-13 -8,-18 -30,-18 -22,0 -28,4 -24,15 5,12 9,13 21,3 11,-9 16,-9 24,3 z m -571,-11 c 0,-5 -7,-10 -16,-10 -8,0 -12,5 -9,10 3,6 10,10 16,10 5,0 9,-4 9,-10 z m 417,-7 c -4,-3 -10,-3 -14,0 -3,4 0,7 7,7 7,0 10,-3 7,-7 z m -607,-58 c 0,-36 -3,-45 -17,-45 -13,0 -14,3 -6,8 7,4 10,17 6,30 -5,21 -6,21 -18,5 -12,-16 -14,-16 -29,-1 -9,9 -16,22 -16,28 0,6 -4,8 -10,5 -5,-3 -10,-1 -10,4 0,6 21,11 50,11 h 50 z"
       id="path204"
       inkscape:connector-curvature="0" />
    <path
       d="m 8292,490 c 0,-14 2,-19 5,-12 2,6 2,18 0,25 -3,6 -5,1 -5,-13 z"
       id="path206"
       inkscape:connector-curvature="0" />
    <path
       d="m 4600,809 c 0,-6 -6,-9 -13,-6 -8,3 -20,1 -27,-3 -8,-5 -19,-6 -25,-2 -13,9 -105,9 -105,0 0,-13 -38,-18 -64,-9 -14,6 -26,7 -26,2 0,-4 -19,-7 -42,-6 -24,1 -52,-2 -63,-8 -19,-10 -19,-11 5,-18 17,-5 5,-7 -37,-8 -35,-1 -63,-5 -63,-11 0,-5 7,-10 15,-10 8,0 15,-4 15,-10 0,-5 -5,-10 -12,-10 -6,0 -9,-3 -6,-6 10,-10 -31,-44 -52,-44 -19,0 -20,-7 -20,-125 V 410 h 44 45 l 3,-47 3,-48 153,-3 152,-3 v 101 100 h -50 c -47,0 -50,2 -50,25 0,25 0,25 -95,25 h -95 v 45 45 h 90 c 89,0 90,0 90,-25 0,-24 3,-25 55,-25 h 55 v 65 65 h 60 60 v -35 c 0,-35 0,-35 -45,-35 h -45 v -55 -55 h 45 45 v -45 -45 h 120 c 113,0 120,-1 120,-20 0,-19 -7,-20 -165,-20 h -165 v -55 -55 h 175 175 v 50 50 h 50 50 v 170 170 h -150 -150 v 32 c 0,17 -3,29 -6,25 -3,-3 -17,-2 -30,3 -16,7 -24,6 -24,-1 z M 4170,670 c 0,-5 -4,-10 -10,-10 -5,0 -10,5 -10,10 0,6 5,10 10,10 6,0 10,-4 10,-10 z m 667,-32 c -2,-7 -12,-12 -22,-10 -10,2 -22,-2 -26,-10 -7,-10 -11,-10 -17,-1 -4,7 -13,9 -19,5 -7,-4 -30,-7 -53,-5 -37,2 -40,0 -40,-25 0,-21 -5,-28 -20,-29 -17,-2 -20,4 -20,43 v 44 h 111 c 84,0 110,-3 106,-12 z M 4370,440 c 0,-19 -7,-20 -90,-20 -83,0 -90,1 -90,20 0,19 7,20 90,20 83,0 90,-1 90,-20 z"
       id="path208"
       inkscape:connector-curvature="0" />
    <path
       d="m 2168,804 c -3,-3 -20,-6 -37,-6 -17,-1 -31,-5 -31,-10 0,-4 -13,-8 -28,-8 -16,0 -32,-3 -35,-6 -4,-4 -21,-9 -39,-11 -18,-2 -46,-5 -63,-7 -16,-2 -49,-4 -72,-5 -36,-1 -43,-4 -43,-21 0,-22 -1,-22 -99,-25 -46,-1 -64,2 -68,13 -3,8 -14,11 -25,9 -11,-3 -22,0 -25,9 -6,16 -113,20 -113,4 0,-5 -9,-10 -20,-10 -11,0 -20,5 -20,10 0,14 -347,13 -352,-1 -2,-6 -26,-13 -53,-16 -28,-3 -56,-10 -62,-16 -10,-7 -13,-3 -13,17 0,25 -2,26 -55,26 h -55 v -45 -45 h -45 c -43,0 -45,-1 -45,-30 0,-27 -3,-30 -32,-31 -18,-1 -44,-1 -58,0 -20,2 -22,0 -10,-8 12,-9 11,-11 -8,-11 -13,0 -20,4 -17,10 3,5 -3,10 -14,10 -12,0 -21,-7 -21,-15 0,-9 -9,-15 -25,-15 -32,0 -88,-28 -80,-40 3,-5 1,-11 -5,-15 -7,-4 -10,35 -10,114 V 750 H 435 380 V 460 170 h 225 225 v 44 45 l 48,3 c 45,3 47,4 50,35 3,25 8,33 23,33 11,0 29,5 40,10 16,9 19,7 19,-10 0,-19 6,-20 175,-20 h 175 v 50 50 h 45 45 v 148 l 1,147 19,-24 c 18,-21 20,-39 20,-197 V 310 l 173,2 172,3 3,48 3,47 h 45 44 v 101 c 0,96 9,139 30,139 6,0 10,-50 10,-120 V 410 h 45 45 v -50 -50 h 94 94 l 7,-70 7,-70 h 48 47 l 7,40 c 3,22 6,139 6,260 l 1,220 h 27 c 15,-1 36,0 47,1 35,3 45,-1 45,-16 0,-11 -12,-15 -45,-15 h -45 V 535 410 h 44 45 l 3,-47 3,-48 103,-3 102,-3 v 51 50 h 50 50 v 125 125 h -30 c -28,0 -30,2 -30,39 0,22 -5,41 -12,43 -7,3 -47,6 -88,7 -41,1 -79,7 -84,12 -14,13 -60,11 -74,-3 -9,-9 -12,-8 -12,5 0,9 -6,17 -12,18 -31,2 -66,8 -97,15 -27,6 -32,4 -26,-6 6,-9 4,-11 -6,-5 -7,5 -36,10 -64,12 -27,1 -59,5 -71,8 -12,2 -23,2 -26,-1 z M 1340,606 v -44 l -110,-1 -110,-2 v 29 c 0,30 4,33 70,52 14,4 53,8 88,9 l 62,1 z m 308,26 c 2,-7 11,-12 21,-12 9,0 22,-5 29,-12 9,-9 12,-9 12,0 0,7 7,12 15,12 8,0 15,-5 15,-10 0,-7 6,-7 18,-1 10,6 24,6 32,1 8,-5 18,-6 22,-4 4,3 8,-38 8,-90 v -96 h -110 -110 v 113 c 0,111 1,114 22,112 12,-1 24,-7 26,-13 z m 602,-17 c 0,-23 -5,-35 -14,-35 -25,0 -28,-49 -6,-94 31,-65 30,-66 -65,-66 h -85 v 115 115 h 85 85 z m 438,-82 3,-113 h -91 -90 v 115 116 l 88,-3 87,-3 z M 670,510 v -40 h -80 c -44,0 -80,3 -80,8 1,15 53,44 91,49 21,3 39,10 39,14 0,5 7,9 15,9 11,0 15,-11 15,-40 z m 430,-5 v -45 h 120 c 113,0 120,-1 120,-20 0,-19 -7,-20 -135,-20 -122,0 -135,2 -136,18 0,10 -3,12 -6,4 -6,-15 -23,-6 -23,14 0,8 8,15 18,15 16,1 16,2 0,6 -13,3 -18,15 -18,39 0,31 3,34 30,34 29,0 30,-2 30,-45 z m -280,5 c 0,-11 7,-20 15,-20 8,0 15,-9 15,-19 0,-11 4,-22 8,-25 12,-7 14,-64 2,-71 -6,-3 -10,4 -11,17 0,22 -1,22 -9,3 -7,-15 -9,-6 -7,30 2,49 2,50 -25,47 -25,-3 -28,0 -28,27 0,24 4,31 20,31 13,0 20,-7 20,-20 z m 136,-58 c -4,-3 -11,0 -16,8 -15,24 -11,33 6,15 9,-9 13,-19 10,-23 z m 72,2 c -11,-23 -13,-24 -19,-7 -5,16 2,24 28,32 2,1 -3,-11 -9,-25 z M 919,423 c 2,-52 -9,-53 -15,-2 -3,27 1,49 10,49 1,0 3,-21 5,-47 z M 810,315 V 270 H 650 490 v 45 45 h 160 160 z"
       id="path210"
       inkscape:connector-curvature="0" />
    <path
       d="m 2170,579 c 0,-5 5,-7 10,-4 6,3 10,8 10,11 0,2 -4,4 -10,4 -5,0 -10,-5 -10,-11 z"
       id="path212"
       inkscape:connector-curvature="0" />
    <path
       d="m 2162,554 c -27,-19 -28,-28 -2,-54 16,-16 20,-17 20,-5 0,8 5,15 10,15 6,0 10,14 10,30 0,34 -6,36 -38,14 z"
       id="path214"
       inkscape:connector-curvature="0" />
    <path
       d="m 6266,748 c 3,-5 10,-6 15,-3 13,9 11,12 -6,12 -8,0 -12,-4 -9,-9 z"
       id="path216"
       inkscape:connector-curvature="0" />
    <path
       d="M 2830,530 V 310 h 150 150 v 50 50 h 39 40 l 3,-47 3,-48 103,-3 102,-3 v 51 50 h 45 45 v 170 170 h -49 -49 l -7,-106 c -4,-59 -5,-133 -2,-165 l 5,-59 h -89 -89 v 165 165 h -55 -55 V 585 420 h -90 -90 v 165 165 h -55 -55 z"
       id="path218"
       inkscape:connector-curvature="0" />
    <path
       d="m 3930,705 v -45 h -45 -45 V 540 420 h -25 c -24,0 -25,-3 -25,-55 0,-52 1,-55 25,-55 23,0 25,-4 25,-45 v -45 h 55 55 v 44 c 0,39 3,45 23,48 19,3 22,9 22,53 0,44 -3,50 -22,53 -22,3 -23,7 -23,118 v 114 h 45 45 v 50 50 h -55 -55 z"
       id="path220"
       inkscape:connector-curvature="0" />
    <path
       d="M 4990,530 V 310 h 150 150 v 50 50 h 39 40 l 3,-47 3,-48 103,-3 102,-3 v 51 50 h 45 45 v 170 170 h -49 -49 l -7,-75 c -4,-42 -5,-116 -3,-165 l 4,-90 h -88 -88 v 165 165 h -55 -55 V 585 420 h -90 -90 v 136 c 0,123 2,135 16,123 9,-7 23,-14 32,-15 10,0 22,-2 27,-4 6,-1 24,-2 40,0 26,1 27,3 10,9 -11,5 -25,6 -31,4 -7,-2 -20,6 -29,19 -10,14 -19,18 -22,12 -2,-7 -13,-10 -23,-7 -11,3 -18,9 -15,13 3,5 2,15 -1,24 -5,12 -20,16 -60,16 h -54 z"
       id="path222"
       inkscape:connector-curvature="0" />
    <path
       d="m 5140,740 c 0,-5 9,-10 21,-10 11,0 17,5 14,10 -3,6 -13,10 -21,10 -8,0 -14,-4 -14,-10 z"
       id="path224"
       inkscape:connector-curvature="0" />
    <path
       d="m 8030,500 c 0,-5 5,-10 11,-10 5,0 7,5 4,10 -3,6 -8,10 -11,10 -2,0 -4,-4 -4,-10 z"
       id="path226"
       inkscape:connector-curvature="0" />
    <path
       d="m 8030,465 c 0,-8 7,-15 15,-15 8,0 15,7 15,15 0,8 -7,15 -15,15 -8,0 -15,-7 -15,-15 z"
       id="path228"
       inkscape:connector-curvature="0" />
    <path
       d="m 7176,288 c 3,-4 12,-8 20,-8 8,0 14,4 14,8 0,4 -9,8 -19,8 -11,0 -17,-4 -15,-8 z"
       id="path230"
       inkscape:connector-curvature="0" />
    <path
       d="m 6693,283 c 4,-3 10,-3 14,0 3,4 0,7 -7,7 -7,0 -10,-3 -7,-7 z"
       id="path232"
       inkscape:connector-curvature="0" />
    <path
       d="m 6918,283 c 7,-3 16,-2 19,1 4,3 -2,6 -13,5 -11,0 -14,-3 -6,-6 z"
       id="path234"
       inkscape:connector-curvature="0" />
    <path
       d="m 6995,281 c -6,-6 -30,-11 -55,-14 -27,-2 -14,-4 30,-4 41,0 65,2 52,4 -12,2 -20,9 -17,14 8,12 2,12 -10,0 z"
       id="path236"
       inkscape:connector-curvature="0" />
    <path
       d="m 7058,278 c 5,-5 16,-8 23,-6 8,3 3,7 -10,11 -17,4 -21,3 -13,-5 z"
       id="path238"
       inkscape:connector-curvature="0" />
    <path
       d="m 6644,259 c 29,-4 56,-4 65,1 11,6 -5,9 -49,9 l -65,-1 z"
       id="path240"
       inkscape:connector-curvature="0" />
  </g>
  <g
     id="layer110"
     transform="translate(12.335884,1881.3281)"
     style="fill:#726418;stroke:none">
    <path
       d="M 380,460 V 170 h 225 225 v 44 45 l 48,3 47,3 3,53 3,52 h -50 -51 v 50 c 0,47 -2,50 -25,50 -22,0 -25,4 -25,39 v 40 l 48,3 47,3 3,48 3,47 h 45 44 v 50 50 H 915 860 V 705 660 H 815 770 V 610 560 H 720 670 V 515 470 H 580 490 V 610 750 H 435 380 Z M 810,315 V 270 H 650 490 v 45 45 h 160 160 z"
       id="path243"
       inkscape:connector-curvature="0" />
    <path
       d="m 1100,705 v -45 h -45 -45 v -55 -55 h 45 45 v -45 -45 h 120 c 113,0 120,-1 120,-20 0,-19 -7,-20 -165,-20 h -165 v -55 -55 h 175 175 v 50 50 h 45 45 v 170 170 h -175 -175 z m 240,-99 v -44 l -110,-1 -110,-2 v 46 45 h 110 110 z"
       id="path245"
       inkscape:connector-curvature="0" />
    <path
       d="M 1490,530 V 310 l 173,2 172,3 3,48 3,47 h 45 44 v 170 170 h -55 -55 V 585 420 h -110 -110 v 165 165 h -55 -55 z"
       id="path247"
       inkscape:connector-curvature="0" />
    <path
       d="M 1970,580 V 410 h 45 45 v -50 -50 h 94 94 l 7,-70 7,-70 h 48 c 47,0 47,0 53,37 6,37 9,185 8,426 l -1,117 h -200 -200 z m 280,35 c 0,-23 -5,-35 -14,-35 -25,0 -28,-49 -6,-94 31,-65 30,-66 -65,-66 h -85 v 115 115 h 85 85 z"
       id="path249"
       inkscape:connector-curvature="0" />
    <path
       d="m 2170,579 c 0,-5 5,-7 10,-4 6,3 10,8 10,11 0,2 -4,4 -10,4 -5,0 -10,-5 -10,-11 z"
       id="path251"
       inkscape:connector-curvature="0" />
    <path
       d="m 2162,554 c -27,-19 -28,-28 -2,-54 16,-16 20,-17 20,-5 0,8 5,15 10,15 6,0 10,14 10,30 0,34 -6,36 -38,14 z"
       id="path253"
       inkscape:connector-curvature="0" />
    <path
       d="m 2490,705 v -45 h -45 -45 V 535 410 h 44 45 l 3,-47 3,-48 103,-3 102,-3 v 51 50 h 50 50 v 125 125 h -50 -50 v 45 45 H 2595 2490 Z M 2690,535 V 420 h -90 -90 v 115 115 h 90 90 z"
       id="path255"
       inkscape:connector-curvature="0" />
    <path
       d="M 2830,530 V 310 h 150 150 v 50 50 h 39 40 l 3,-47 3,-48 103,-3 102,-3 v 51 50 h 45 45 v 170 170 h -49 -49 l -7,-106 c -4,-59 -5,-133 -2,-165 l 5,-59 h -89 -89 v 165 165 h -55 -55 V 585 420 h -90 -90 v 165 165 h -55 -55 z"
       id="path257"
       inkscape:connector-curvature="0" />
    <path
       d="m 3930,705 v -45 h -45 -45 V 540 420 h -25 c -24,0 -25,-3 -25,-55 0,-52 1,-55 25,-55 23,0 25,-4 25,-45 v -45 h 55 55 v 44 c 0,39 3,45 23,48 19,3 22,9 22,53 0,44 -3,50 -22,53 -22,3 -23,7 -23,118 v 114 h 45 45 v 50 50 h -55 -55 z"
       id="path259"
       inkscape:connector-curvature="0" />
    <path
       d="m 4170,705 v -45 h -45 -45 V 535 410 h 44 45 l 3,-47 3,-48 153,-3 152,-3 v 101 100 h -50 c -47,0 -50,2 -50,25 0,25 0,25 -95,25 h -95 v 45 45 h 90 c 89,0 90,0 90,-25 0,-24 3,-25 55,-25 h 55 v 75 75 h -155 -155 z m 200,-265 c 0,-19 -7,-20 -90,-20 -83,0 -90,1 -90,20 0,19 7,20 90,20 83,0 90,-1 90,-20 z"
       id="path261"
       inkscape:connector-curvature="0" />
    <path
       d="m 4600,705 v -45 h -45 -45 v -55 -55 h 45 45 v -45 -45 h 120 c 113,0 120,-1 120,-20 0,-19 -7,-20 -165,-20 h -165 v -55 -55 h 175 175 v 50 50 h 50 50 v 170 170 h -180 -180 z m 237,-67 c -2,-7 -12,-12 -22,-10 -10,2 -22,-2 -26,-10 -7,-10 -11,-10 -17,-1 -4,7 -13,9 -19,5 -7,-4 -30,-7 -53,-5 -37,2 -40,0 -40,-25 0,-21 -5,-28 -20,-29 -17,-2 -20,4 -20,43 v 44 h 111 c 84,0 110,-3 106,-12 z"
       id="path263"
       inkscape:connector-curvature="0" />
    <path
       d="M 4990,530 V 310 h 150 150 v 50 50 h 39 40 l 3,-47 3,-48 103,-3 102,-3 v 51 50 h 45 45 v 170 170 h -49 -49 l -7,-75 c -4,-42 -5,-116 -3,-165 l 4,-90 h -88 -88 v 165 165 h -55 -55 V 585 420 h -90 -90 v 165 165 h -55 -55 z"
       id="path265"
       inkscape:connector-curvature="0" />
    <path
       d="m 5950,700 v -50 h 120 120 v -45 -45 h -75 -75 v -44 -45 l -42,-3 -43,-3 -3,-52 -3,-53 h 50 51 v -50 -51 l 123,3 122,3 3,53 3,52 h -120 -121 v 45 45 h 70 70 v 45 45 h 50 50 v 55 55 h -50 -50 v 45 45 h -125 -125 z"
       id="path267"
       inkscape:connector-curvature="0" />
    <path
       d="m 6430,705 v -45 h -50 -50 V 535 410 h 50 50 v -50 -50 h 150 150 v 49 c 0,40 3,50 20,54 19,5 20,0 20,-119 V 170 h 55 55 v 113 c 0,62 4,117 9,122 6,6 32,8 60,7 l 50,-4 3,-46 3,-47 153,-3 152,-3 v 101 100 h -25 c -22,0 -25,3 -19,25 6,25 -7,46 -36,58 -8,3 6,6 33,6 l 47,1 v 75 75 h -155 -155 v -45 -45 h -45 c -25,0 -48,0 -51,1 -4,0 -11,-5 -15,-13 -5,-8 -9,9 -9,45 v 57 h -55 -55 v -55 c 0,-30 -3,-55 -6,-55 -17,0 -34,34 -34,69 v 41 h -150 -150 z m 156,-70 c -8,-8 -27,-16 -41,-17 -29,-3 -40,-13 -48,-43 -4,-18 -5,-18 -6,2 -1,16 -6,21 -16,17 -8,-4 -15,-12 -15,-20 0,-8 -4,-14 -10,-14 -5,0 -10,20 -10,45 v 45 h 81 c 72,0 79,-2 65,-15 z m 31,-2 c -4,-3 -7,0 -7,7 0,7 3,10 7,7 3,-4 3,-10 0,-14 z m 420,10 c -4,-3 -10,-3 -14,0 -3,4 0,7 7,7 7,0 10,-3 7,-7 z m 93,-2 c 0,-5 -9,-7 -20,-4 -11,3 -20,7 -20,9 0,2 9,4 20,4 11,0 20,-4 20,-9 z m 70,-8 c 0,-10 3,-28 6,-40 4,-14 2,-23 -5,-23 -6,0 -11,7 -11,15 0,8 -5,14 -12,13 -6,-2 -14,6 -16,17 -2,11 -9,23 -16,27 -6,4 4,8 22,8 24,0 32,-4 32,-17 z M 6500,438 c 0,-13 -8,-18 -30,-18 -22,0 -30,5 -30,18 0,14 8,19 30,19 22,0 30,-5 30,-19 z m 691,3 c 7,11 9,11 9,-3 0,-13 -8,-18 -30,-18 -22,0 -28,4 -24,15 5,12 9,13 21,3 11,-9 16,-9 24,3 z m -571,-11 c 0,-5 -7,-10 -16,-10 -8,0 -12,5 -9,10 3,6 10,10 16,10 5,0 9,-4 9,-10 z m 417,-7 c -4,-3 -10,-3 -14,0 -3,4 0,7 7,7 7,0 10,-3 7,-7 z"
       id="path269"
       inkscape:connector-curvature="0" />
    <path
       d="m 7440,705 v -45 h -50 -50 V 535 410 h 50 50 v -50 -50 h 125 125 v 50 50 h 50 50 v 50 50 h -55 -55 v -45 -45 h -115 -115 v 115 115 h 115 115 v -50 -50 h 55 55 v 55 55 h -50 -50 v 45 45 h -125 -125 z"
       id="path271"
       inkscape:connector-curvature="0" />
    <path
       d="m 7970,705 v -45 h -50 -50 V 540 420 h -25 c -24,0 -25,-3 -25,-55 0,-52 1,-55 25,-55 23,0 25,-4 25,-45 v -45 h 55 55 v 45 c 0,41 2,45 25,45 24,0 25,3 25,55 0,52 -1,55 -25,55 h -25 v 115 115 h 50 50 v 50 50 h -55 -55 z"
       id="path273"
       inkscape:connector-curvature="0" />
    <path
       d="m 8200,705 v -45 h -45 -45 V 535 410 h 44 45 l 3,-47 3,-48 103,-3 102,-3 v 51 50 h 50 50 v 125 125 h -50 -50 v 45 45 H 8305 8200 Z M 8400,535 V 420 h -90 -90 v 115 115 h 90 90 z"
       id="path275"
       inkscape:connector-curvature="0" />
    <path
       d="M 8540,530 V 310 h 55 c 52,0 55,1 55,25 0,18 5,25 20,25 15,0 20,-7 20,-25 0,-24 2,-25 75,-25 73,0 75,1 75,25 0,20 5,25 26,25 24,0 25,2 22,53 -3,48 -5,52 -28,52 -18,0 -26,-6 -28,-22 -3,-21 -9,-23 -67,-23 -58,0 -64,2 -67,23 -2,14 -11,23 -25,25 -23,3 -23,6 -23,143 v 139 h -55 -55 z"
       id="path277"
       inkscape:connector-curvature="0" />
  </g>
  <g
     id="layer111"
     transform="translate(7.3358838,1881.3281)"
     style="fill:#fed600;stroke:none">
    <path
       d="M 390,460 V 170 h 215 215 v 50 50 h 50 50 v 50 50 h -50 -50 v 45 c 0,38 -3,45 -19,45 -15,0 -21,10 -26,40 -9,52 -2,60 51,60 h 44 v 45 45 h 50 50 v 50 50 h -50 -50 v -44 -44 l -50,-7 -50,-7 v -44 -44 h -44 c -47,0 -56,-11 -56,-72 V 460 H 580 490 V 605 750 H 440 390 Z M 820,315 V 270 H 655 490 v 45 45 h 165 165 z"
       id="path280"
       inkscape:connector-curvature="0" />
    <path
       d="m 1110,706 v -45 l -47,-3 -48,-3 -3,-47 -3,-48 h 50 51 v -50 -50 h 120 c 113,0 120,-1 120,-20 0,-19 -8,-20 -167,-22 l -168,-3 v -50 -50 h 165 165 l 3,48 3,47 h 50 49 v 170 170 h -170 -170 z m 240,-101 v -45 h -120 -120 v 45 45 h 120 120 z"
       id="path282"
       inkscape:connector-curvature="0" />
    <path
       d="m 1492,533 3,-218 35,2 c 19,1 95,2 168,2 l 132,1 v 45 45 h 50 50 v 170 170 h -50 -50 V 585 420 h -120 -120 v 165 165 h -50 -50 z"
       id="path284"
       inkscape:connector-curvature="0" />
    <path
       d="M 1970,580 V 410 h 49 50 l 3,-47 3,-48 93,-3 92,-3 v -69 -70 h 50 50 v 290 290 h -195 -195 z m 290,-45 V 420 h -95 -95 v 115 115 h 95 95 z"
       id="path286"
       inkscape:connector-curvature="0" />
    <path
       d="m 2500,706 v -45 l -47,-3 -48,-3 -3,-122 -3,-123 h 50 50 l 3,-47 3,-48 60,1 c 138,4 125,-2 125,49 v 45 h 50 51 l -3,123 -3,122 -47,3 -48,3 v 45 44 h -95 -95 z M 2690,535 V 420 h -95 -95 v 115 115 h 95 95 z"
       id="path288"
       inkscape:connector-curvature="0" />
    <path
       d="M 2830,535 V 320 h 145 145 v 45 45 h 50 50 v -45 -45 h 95 95 v 45 45 h 50 50 v 170 170 h -50 -50 l -2,-167 -3,-168 h -90 -90 l -3,168 -2,167 h -50 -50 V 585 420 h -95 -95 v 165 165 h -50 -50 z"
       id="path290"
       inkscape:connector-curvature="0" />
    <path
       d="m 3938,703 -3,-48 -47,-3 -48,-3 V 529 410 h -25 c -23,0 -25,-4 -25,-45 0,-41 2,-45 25,-45 23,0 25,-3 25,-50 v -50 h 49 50 l 3,47 c 3,41 6,48 26,51 19,3 22,9 22,47 0,38 -3,44 -22,47 -22,3 -23,7 -26,120 l -3,117 48,3 48,3 3,48 3,47 h -50 -50 z"
       id="path292"
       inkscape:connector-curvature="0" />
    <path
       d="m 4180,706 v -45 l -47,-3 -48,-3 V 535 415 l 48,-3 47,-3 v -45 -44 h 65 c 36,-1 100,-1 143,-2 h 77 l 3,96 3,96 h -45 c -39,0 -45,3 -48,23 -3,21 -8,22 -100,25 l -98,3 v 44 45 h 94 c 90,0 95,-1 98,-22 3,-20 10,-23 51,-26 l 47,-3 v 75 76 h -145 -145 z m 190,-266 c 0,-19 -7,-20 -95,-20 -88,0 -95,1 -95,20 0,19 7,20 95,20 88,0 95,-1 95,-20 z"
       id="path294"
       inkscape:connector-curvature="0" />
    <path
       d="m 4610,706 v -45 l -47,-3 -48,-3 -3,-47 -3,-48 h 50 51 v -50 -50 h 120 c 113,0 120,-1 120,-20 0,-19 -8,-20 -167,-22 l -168,-3 v -49 -49 l 165,-1 165,-1 3,48 3,47 h 50 49 v 170 170 h -170 -170 z m 240,-101 v -45 h -120 -120 v 45 45 h 120 120 z"
       id="path296"
       inkscape:connector-curvature="0" />
    <path
       d="M 4990,535 V 320 h 145 145 v 45 45 h 50 50 v -45 -45 h 95 95 v 45 45 h 50 50 v 170 170 h -50 -50 l -2,-167 -3,-168 h -90 -90 l -3,168 -2,167 h -50 -50 V 585 420 h -95 -95 v 165 165 h -50 -50 z"
       id="path298"
       inkscape:connector-curvature="0" />
    <path
       d="m 5952,703 3,-48 118,-3 117,-3 v -44 -45 h -70 -70 v -50 -50 h -51 -50 l 3,-47 3,-48 48,-3 47,-3 v -45 -44 h 120 120 v 50 50 h -120 -120 v 45 45 h 75 75 v 50 50 h 45 45 v 50 50 h -45 -45 v 45 45 h -126 -125 z"
       id="path300"
       inkscape:connector-curvature="0" />
    <path
       d="m 6437,743 c -4,-3 -7,-24 -7,-45 v -38 h -45 -45 V 535 410 h 45 45 v -37 c 0,-63 2,-64 156,-61 l 139,3 3,98 3,97 h -51 c -47,0 -50,2 -50,25 0,25 0,25 -95,25 h -95 v 45 45 h 95 95 v -26 c 0,-24 2,-25 48,-22 l 47,3 3,73 3,72 h -144 c -79,0 -147,-3 -150,-7 z m 193,-303 c 0,-19 -7,-20 -95,-20 -88,0 -95,1 -95,20 0,19 7,20 95,20 88,0 95,-1 95,-20 z"
       id="path302"
       inkscape:connector-curvature="0" />
    <path
       d="M 6770,460 V 170 h 50 50 v 290 290 h -50 -50 z"
       id="path304"
       inkscape:connector-curvature="0" />
    <path
       d="m 7010,706 v -45 l -47,-3 -48,-3 -3,-122 -3,-123 h 50 50 l 3,-47 3,-48 h 140 140 l 3,98 3,97 h -46 c -41,0 -45,2 -45,25 v 25 h -100 -100 v 45 45 h 94 c 90,0 95,-1 98,-22 3,-20 10,-23 51,-26 l 47,-3 v 75 76 h -145 -145 z m 190,-266 c 0,-19 -7,-20 -95,-20 -88,0 -95,1 -95,20 0,19 7,20 95,20 88,0 95,-1 95,-20 z"
       id="path306"
       inkscape:connector-curvature="0" />
    <path
       d="m 7440,705 v -45 h -45 -45 V 535 410 h 45 45 v -45 -45 h 125 125 v 45 45 h 45 45 v 50 50 h -50 -50 v -45 -45 h -115 -115 v 115 115 h 115 115 v -45 -45 h 51 50 l -3,48 -3,47 -42,3 -43,3 v 45 44 h -125 -125 z"
       id="path308"
       inkscape:connector-curvature="0" />
    <path
       d="m 7970,705 v -45 h -45 -45 V 541 c 0,-116 -1,-120 -22,-123 -20,-3 -23,-10 -26,-50 -3,-42 -1,-47 20,-50 20,-3 23,-10 26,-50 l 3,-48 h 44 44 l 3,47 c 3,41 6,48 26,51 21,3 23,8 20,50 -3,40 -6,47 -25,50 -22,3 -23,7 -23,118 v 114 h 50 50 v 50 50 h -50 -50 z"
       id="path310"
       inkscape:connector-curvature="0" />
    <path
       d="m 8210,706 v -45 l -47,-3 -48,-3 V 535 415 l 48,-3 47,-3 v -45 -44 h 95 95 v 45 45 h 50 51 l -3,123 -3,122 -47,3 -48,3 v 45 44 h -95 -95 z M 8400,535 V 420 h -95 -95 v 115 115 h 95 95 z"
       id="path312"
       inkscape:connector-curvature="0" />
    <path
       d="M 8550,535 V 320 h 50 c 43,0 50,3 50,20 0,13 7,20 20,20 13,0 20,-7 20,-20 0,-18 7,-20 75,-20 67,0 75,2 75,19 0,13 8,21 23,23 19,3 22,10 25,51 3,44 2,47 -22,47 -18,0 -25,-6 -28,-22 -3,-21 -8,-23 -73,-23 -65,0 -70,2 -73,23 -2,14 -10,22 -23,22 -18,0 -19,8 -19,145 v 145 h -50 -50 z"
       id="path314"
       inkscape:connector-curvature="0" />
  </g>
</svg>
